<?xml version="1.0" standalone="no"?>
<!DOCTYPE svg PUBLIC "-//W3C//DTD SVG 1.1//EN" "http://www.w3.org/Graphics/SVG/1.1/DTD/svg11.dtd" >
<svg xmlns="http://www.w3.org/2000/svg" xmlns:xlink="http://www.w3.org/1999/xlink" version="1.1">
<metadata>
Created by FontForge 20190801 at Tue Feb 17 16:24:39 2015
 By Jimmy Wärting
Hong Golbae
</metadata>
<defs>
<font id="PokemonGSC" horiz-adv-x="760" >
  <font-face 
    font-family="PokemonGSC"
    font-weight="400"
    font-stretch="normal"
    units-per-em="1024"
    panose-1="2 3 6 0 0 1 1 1 1 1"
    ascent="896"
    descent="-128"
    x-height="501"
    cap-height="700"
    bbox="0 -130.103 1017 1024"
    underline-thickness="45"
    underline-position="-122"
    unicode-range="U+0001-FFE5"
  />
<missing-glyph horiz-adv-x="140" 
d="M448 127v142h-143v-142h143zM590 293v143h-285v-143h285zM448 459v143h-143v-143h143zM590 626v141h-142q-60 0 -101 -41q-42 -42 -42 -100h285zM0 0v896h896v-896h-896z" />
    <glyph glyph-name=".notdef" horiz-adv-x="140" 
d="M448 127v142h-143v-142h143zM590 293v143h-285v-143h285zM448 459v143h-143v-143h143zM590 626v141h-142q-60 0 -101 -41q-42 -42 -42 -100h285zM0 0v896h896v-896h-896z" />
    <glyph glyph-name="glyph1" horiz-adv-x="12" 
 />
    <glyph glyph-name="glyph2" horiz-adv-x="384" 
 />
    <glyph glyph-name="space" unicode=" " horiz-adv-x="268" 
 />
    <glyph glyph-name="exclam" unicode="!" horiz-adv-x="520" 
d="M180 700h160v-80h80v-320h-80v-160h-160v160h-80v320h80v80zM180 60h160v-160h-160v160z" />
    <glyph glyph-name="quotedbl" unicode="&#x22;" horiz-adv-x="840" 
d="M100 512v128h128v-128h-128zM484 512v128h128v-128h-128zM228 640v128h-128v128h256v-256h-128zM612 640v128h-128v128h256v-256h-128z" />
    <glyph glyph-name="ampersand" unicode="&#x26;" horiz-adv-x="960" 
d="M751 -100v109h109v-109h-109zM751 117v217h109v-217h-109zM534 334v217h109v-217h-109zM209 -100v109h-109v108h109v109h108v-217h217v108h-108v109h-109v108h-108v217h108v109h217v-109h-108v-217h108v-108h109v-109h108v-108h-108v-109h-434z" />
    <glyph glyph-name="quotesingle" unicode="'" horiz-adv-x="456" 
d="M100 512v128h128v-128h-128zM228 640v128h-128v128h256v-256h-128z" />
    <glyph glyph-name="parenleft" unicode="(" horiz-adv-x="402" 
d="M234 639h68v-67h-68v67zM167 572h67v-135h-67v135zM100 437h67v-335h-67v335zM167 102h67v-135h-67v135zM234 -33h68v-67h-68v67z" />
    <glyph glyph-name="parenright" unicode=")" horiz-adv-x="402" 
d="M100 639h67v-67h-67v67zM167 572h67v-135h-67v135zM234 437h68v-335h-68v335zM167 102h67v-135h-67v135zM100 -33h67v-67h-67v67z" />
    <glyph glyph-name="comma" unicode="," horiz-adv-x="440" 
d="M180 140h160v-160h-80v-80h-160v80h80v160z" />
    <glyph glyph-name="hyphen" unicode="-" 
d="M100 -20h560v-80h-560v80z" />
    <glyph glyph-name="period" unicode="." horiz-adv-x="360" 
d="M100 60h160v-160h-160v160z" />
    <glyph glyph-name="slash" unicode="/" horiz-adv-x="1096" 
d="M100 -100v128h128v-128h-128zM228 28v128h128v-128h-128zM356 156v128h128v-128h-128zM484 284v128h128v-128h-128zM612 412v128h128v-128h-128zM740 540v128h128v-128h-128zM868 668v128h128v-128h-128z" />
    <glyph glyph-name="zero" unicode="0" horiz-adv-x="901" 
d="M300 0v100h-100v100h-100v201h100v100h100v-301h101v-100h200v-100h-301zM601 100v301h-100v100h-201v100h301v-100h100v-100h100v-201h-100v-100h-100z" />
    <glyph glyph-name="one" unicode="1" horiz-adv-x="801" 
d="M100 0v100h200v301h-100v100h100v100h201v-501h200v-100h-601z" />
    <glyph glyph-name="two" unicode="2" horiz-adv-x="901" 
d="M100 0v200h100v101h301v100h100v100h-301v-100h-200v100h100v100h501v-100h100v-200h-100v-101h-300v-100h400v-100h-701z" />
    <glyph glyph-name="three" unicode="3" horiz-adv-x="900" 
d="M200 0v100h-100v100h200v-100h300v200h200v-200h-100v-100h-500zM300 300v100h200v100h-300v100h600v-100h-100v-100h-100v-100h-300z" />
    <glyph glyph-name="four" unicode="4" horiz-adv-x="900" 
d="M500 200v200h-100v-100h-100v-100h200zM500 0v100h-400v200h100v100h100v100h100v100h300v-400h100v-100h-100v-100h-200z" />
    <glyph glyph-name="five" unicode="5" horiz-adv-x="900" 
d="M200 0v100h-100v100h200v-100h300v200h-500v300h600v-100h-500v-100h500v-100h100v-200h-100v-100h-500z" />
    <glyph glyph-name="six" unicode="6" horiz-adv-x="900" 
d="M600 100v200h-300v-200h300zM200 0v100h-100v400h100v100h500v-100h-400v-100h400v-100h100v-200h-100v-100h-500z" />
    <glyph glyph-name="seven" unicode="7" horiz-adv-x="898" 
d="M299 0v199h100v100h100v100h99v99h-299v-99h-199v199h698v-199h-100v-100h-100v-100h-99v-199h-200z" />
    <glyph glyph-name="eight" unicode="8" horiz-adv-x="900" 
d="M600 100v200h-300v-200h300zM600 400v100h-300v-100h300zM200 0v100h-100v200h100v100h-100v100h100v100h500v-100h100v-100h-100v-100h100v-200h-100v-100h-500z" />
    <glyph glyph-name="nine" unicode="9" horiz-adv-x="900" 
d="M600 300v200h-300v-200h300zM200 0v100h400v100h-400v100h-100v200h100v100h500v-100h100v-400h-100v-100h-500z" />
    <glyph glyph-name="colon" unicode=":" horiz-adv-x="400" 
d="M100 0v200h200v-200h-200zM100 400v200h200v-200h-200z" />
    <glyph glyph-name="semicolon" unicode=";" horiz-adv-x="407" 
d="M100 -128v104h104v-104h-104zM204 -24v103h-104v208h207v-311h-103zM100 391v207h207v-207h-207z" />
    <glyph glyph-name="question" unicode="?" 
d="M180 700h400v-80h80v-240h-80v-80h-80v-160h-160v240h80v80h80v80h-240v-160h-160v240h80v80zM340 60h160v-160h-160v160z" />
    <glyph glyph-name="A" unicode="A" horiz-adv-x="900" 
d="M100 0v200h100v-200h-100zM700 0v200h100v-200h-100zM200 200v200h100v-100h300v100h100v-200h-500zM300 400v200h100v-200h-100zM500 400v200h100v-200h-100zM400 600v100h100v-100h-100z" />
    <glyph glyph-name="B" unicode="B" horiz-adv-x="898" 
d="M698 100v199h100v-199h-100zM100 0v698h499v-100h-399v-199h399v199h99v-299h-498v-199h498v-100h-598z" />
    <glyph glyph-name="C" unicode="C" horiz-adv-x="900" 
d="M300 0v100h400v-100h-400zM200 100v100h100v-100h-100zM700 100v100h100v-100h-100zM100 200v300h100v-300h-100zM200 500v100h100v-100h-100zM700 500v100h100v-100h-100zM300 600v100h400v-100h-400z" />
    <glyph glyph-name="D" unicode="D" horiz-adv-x="900" 
d="M600 100v100h100v-100h-100zM700 200v300h100v-300h-100zM600 500v100h100v-100h-100zM100 0v700h500v-100h-400v-500h400v-100h-500z" />
    <glyph glyph-name="E" unicode="E" horiz-adv-x="900" 
d="M100 0v700h700v-100h-600v-200h500v-100h-500v-200h600v-100h-700z" />
    <glyph glyph-name="F" unicode="F" horiz-adv-x="900" 
d="M100 0v700h700v-100h-600v-200h500v-100h-500v-300h-100z" />
    <glyph glyph-name="G" unicode="G" horiz-adv-x="900" 
d="M300 0v100h400v-100h-400zM200 100v100h100v-100h-100zM700 100v200h-300v100h400v-300h-100zM100 200v300h100v-300h-100zM200 500v100h100v-100h-100zM700 500v100h100v-100h-100zM300 600v100h400v-100h-400z" />
    <glyph glyph-name="H" unicode="H" horiz-adv-x="900" 
d="M100 0v700h100v-300h500v300h100v-700h-100v300h-500v-300h-100z" />
    <glyph glyph-name="I" unicode="I" horiz-adv-x="700" 
d="M100 0v100h200v500h-200v100h500v-100h-200v-500h200v-100h-500z" />
    <glyph glyph-name="J" unicode="J" horiz-adv-x="900" 
d="M200 0v100h300v-100h-300zM100 100v300h100v-300h-100zM500 100v500h-300v100h600v-100h-200v-500h-100z" />
    <glyph glyph-name="K" unicode="K" horiz-adv-x="900" 
d="M700 0v100h100v-100h-100zM600 100v100h100v-100h-100zM500 200v100h100v-100h-100zM300 300v100h100v100h100v-200h-200zM500 500v100h100v-100h-100zM100 0v700h100v-400h100v-100h-100v-200h-100zM600 600v100h100v-100h-100z" />
    <glyph glyph-name="L" unicode="L" horiz-adv-x="900" 
d="M100 0v700h100v-600h600v-100h-700z" />
    <glyph glyph-name="M" unicode="M" horiz-adv-x="900" 
d="M400 300v100h100v-100h-100zM300 400v100h100v-100h-100zM500 400v100h100v-100h-100zM100 0v700h100v-100h100v-100h-100v-500h-100zM700 0v500h-100v100h100v100h100v-700h-100z" />
    <glyph glyph-name="N" unicode="N" horiz-adv-x="900" 
d="M500 200v100h100v-100h-100zM400 300v100h100v-100h-100zM300 400v100h100v-100h-100zM100 0v700h100v-100h100v-100h-100v-500h-100zM700 0v100h-100v100h100v500h100v-700h-100z" />
    <glyph glyph-name="O" unicode="O" horiz-adv-x="900" 
d="M300 0v100h300v-100h-300zM200 100v100h100v-100h-100zM600 100v100h100v-100h-100zM100 200v300h100v-300h-100zM700 200v300h100v-300h-100zM200 500v100h100v-100h-100zM600 500v100h100v-100h-100zM300 600v100h300v-100h-300z" />
    <glyph glyph-name="P" unicode="P" horiz-adv-x="900" 
d="M700 400v200h100v-200h-100zM100 0v700h600v-100h-500v-200h500v-100h-500v-300h-100z" />
    <glyph glyph-name="Q" unicode="Q" horiz-adv-x="900" 
d="M300 0v100h300v-100h-300zM700 0v100h100v-100h-100zM200 100v100h100v-100h-100zM600 100v100h100v-100h-100zM500 200v100h100v-100h-100zM100 200v300h100v-300h-100zM700 200v300h100v-300h-100zM200 500v100h100v-100h-100zM600 500v100h100v-100h-100zM300 600v100
h300v-100h-300z" />
    <glyph glyph-name="R" unicode="R" horiz-adv-x="900" 
d="M700 0v100h100v-100h-100zM600 100v100h100v-100h-100zM700 400v200h100v-200h-100zM100 0v700h600v-100h-500v-200h500v-100h-100v-100h-100v100h-300v-300h-100z" />
    <glyph glyph-name="S" unicode="S" horiz-adv-x="900" 
d="M200 0v100h500v-100h-500zM100 100v100h100v-100h-100zM700 100v200h100v-200h-100zM200 300v100h500v-100h-500zM100 400v200h100v-200h-100zM700 500v100h100v-100h-100zM200 600v100h500v-100h-500z" />
    <glyph glyph-name="T" unicode="T" horiz-adv-x="900" 
d="M400 0v600h-300v100h700v-100h-300v-600h-100z" />
    <glyph glyph-name="U" unicode="U" horiz-adv-x="900" 
d="M200 100v100h100v-100h-100zM100 200v500h100v-500h-100zM300 0v100h400v600h100v-700h-500z" />
    <glyph glyph-name="V" unicode="V" horiz-adv-x="900" 
d="M400 0v100h100v-100h-100zM300 100v200h100v-200h-100zM500 100v200h100v-200h-100zM200 300v200h100v-200h-100zM600 300v200h100v-200h-100zM100 500v200h100v-200h-100zM700 500v200h100v-200h-100z" />
    <glyph glyph-name="W" unicode="W" horiz-adv-x="900" 
d="M300 300v100h100v-100h-100zM500 300v100h100v-100h-100zM400 400v100h100v-100h-100zM100 0v700h100v-400h100v-200h-100v-100h-100zM700 0v100h-100v200h100v400h100v-700h-100z" />
    <glyph glyph-name="X" unicode="X" horiz-adv-x="900" 
d="M100 0v100h100v100h100v-200h-200zM600 0v200h100v-100h100v-100h-200zM300 200v100h100v-100h-100zM500 200v100h100v-100h-100zM400 300v100h100v-100h-100zM300 400v100h100v-100h-100zM500 400v100h100v-100h-100zM200 500v100h-100v100h200v-200h-100zM600 500v200
h200v-100h-100v-100h-100z" />
    <glyph glyph-name="Y" unicode="Y" horiz-adv-x="900" 
d="M400 0v400h100v-400h-100zM300 400v100h100v-100h-100zM500 400v100h100v-100h-100zM200 500v100h100v-100h-100zM600 500v100h100v-100h-100zM100 600v100h100v-100h-100zM700 600v100h100v-100h-100z" />
    <glyph glyph-name="Z" unicode="Z" horiz-adv-x="900" 
d="M100 0v100h100v100h100v-100h500v-100h-700zM300 200v100h100v-100h-100zM400 300v100h100v-100h-100zM500 400v100h100v-100h-100zM600 500v100h-500v100h700v-100h-100v-100h-100z" />
    <glyph glyph-name="bracketleft" unicode="[" horiz-adv-x="518" 
d="M100 -100v741h318v-106h-212v-529h212v-106h-318z" />
    <glyph glyph-name="bracketright" unicode="]" horiz-adv-x="517" 
d="M100 -100v106h211v527h-211v106h317v-739h-317z" />
    <glyph glyph-name="underscore" unicode="_" horiz-adv-x="968" 
d="M100 0v128h768v-128h-768z" />
    <glyph glyph-name="a" unicode="a" horiz-adv-x="801" 
d="M100 100v100h100v-100h-100zM200 0v100h301v100h-301v101h301v100h100v-301h100v-100h-501zM200 401v100h301v-100h-301z" />
    <glyph glyph-name="b" unicode="b" horiz-adv-x="803" 
d="M602 100v201h101v-201h-101zM100 0v703h100v-301h402v-101h-402v-201h402v-100h-502z" />
    <glyph glyph-name="c" unicode="c" horiz-adv-x="801" 
d="M200 0v100h501v-100h-501zM100 100v301h100v-301h-100zM200 401v100h501v-100h-501z" />
    <glyph glyph-name="d" unicode="d" horiz-adv-x="802" 
d="M100 100v201h100v-201h-100zM200 0v100h402v201h-402v100h402v301h100v-702h-502z" />
    <glyph glyph-name="e" unicode="e" horiz-adv-x="801" 
d="M200 0v100h501v-100h-501zM100 100v301h100v-100h401v100h100v-201h-501v-100h-100zM200 401v100h401v-100h-401z" />
    <glyph glyph-name="f" unicode="f" horiz-adv-x="800" 
d="M300 0v300h-200v100h200v200h100v-200h300v-100h-300v-300h-100zM600 500v100h100v-100h-100zM400 600v100h200v-100h-200z" />
    <glyph glyph-name="g" unicode="g" horiz-adv-x="829" 
d="M100 -128v105h524v-105h-524zM100 187v209h105v-209h-105zM624 -23v105h-419v105h419v209h-419v105h524v-524h-105z" />
    <glyph glyph-name="h" unicode="h" horiz-adv-x="700" 
d="M500 0v300h100v-300h-100zM100 0v700h100v-300h300v-100h-300v-300h-100z" />
    <glyph glyph-name="i" unicode="i" horiz-adv-x="301" 
d="M100 0v404h101v-404h-101zM100 505v101h101v-101h-101z" />
    <glyph glyph-name="j" unicode="j" horiz-adv-x="518" 
d="M100 -128v106h212v-106h-212zM312 -22v423h106v-423h-106zM312 507v106h106v-106h-106z" />
    <glyph glyph-name="k" unicode="k" horiz-adv-x="800" 
d="M500 0v100h200v-100h-200zM300 100v100h200v-100h-200zM300 300v100h200v-100h-200zM500 400v100h200v-100h-200zM100 0v700h100v-400h100v-100h-100v-200h-100z" />
    <glyph glyph-name="l" unicode="l" horiz-adv-x="300" 
d="M100 0v700h100v-700h-100z" />
    <glyph glyph-name="m" unicode="m" horiz-adv-x="901" 
d="M401 0v401h100v-401h-100zM701 0v401h100v-401h-100zM100 0v501h301v-100h-201v-401h-100zM501 401v100h200v-100h-200z" />
    <glyph glyph-name="n" unicode="n" horiz-adv-x="701" 
d="M501 0v401h100v-401h-100zM100 0v501h401v-100h-301v-401h-100z" />
    <glyph glyph-name="o" unicode="o" horiz-adv-x="801" 
d="M200 0v100h401v-100h-401zM100 100v301h100v-301h-100zM601 100v301h100v-301h-100zM200 401v100h401v-100h-401z" />
    <glyph glyph-name="p" unicode="p" horiz-adv-x="829" 
d="M624 187v209h105v-209h-105zM100 -128v629h524v-105h-419v-209h419v-105h-419v-210h-105z" />
    <glyph glyph-name="q" unicode="q" horiz-adv-x="829" 
d="M100 187v209h105v-209h-105zM624 -128v210h-419v105h419v209h-419v105h524v-629h-105z" />
    <glyph glyph-name="r" unicode="r" horiz-adv-x="801" 
d="M300 301v100h101v-100h-101zM100 0v501h100v-200h100v-101h-100v-200h-100zM401 401v100h300v-100h-300z" />
    <glyph glyph-name="s" unicode="s" horiz-adv-x="801" 
d="M100 0v100h501v-100h-501zM601 100v100h100v-100h-100zM200 200v101h401v-101h-401zM100 301v100h100v-100h-100zM200 401v100h401v-100h-401z" />
    <glyph glyph-name="t" unicode="t" horiz-adv-x="701" 
d="M401 0v100h200v-100h-200zM300 100v301h-200v100h200v100h101v-100h200v-100h-200v-301h-101z" />
    <glyph glyph-name="u" unicode="u" horiz-adv-x="701" 
d="M100 100v401h100v-401h-100zM200 0v100h301v401h100v-501h-401z" />
    <glyph glyph-name="v" unicode="v" horiz-adv-x="701" 
d="M300 0v100h101v-100h-101zM200 100v100h100v-100h-100zM401 100v100h100v-100h-100zM100 200v301h100v-301h-100zM501 200v301h100v-301h-100z" />
    <glyph glyph-name="w" unicode="w" horiz-adv-x="901" 
d="M200 0v100h100v-100h-100zM601 0v100h100v-100h-100zM300 100v100h101v-100h-101zM501 100v100h100v-100h-100zM401 200v201h100v-201h-100zM100 100v401h100v-401h-100zM701 100v401h100v-401h-100z" />
    <glyph glyph-name="x" unicode="x" horiz-adv-x="901" 
d="M200 0v100h100v-100h-100zM601 0v100h200v-100h-200zM300 100v100h101v-100h-101zM501 100v100h100v-100h-100zM401 200v101h100v-101h-100zM300 301v100h101v-100h-101zM501 301v100h100v-100h-100zM100 401v100h200v-100h-200zM601 401v100h100v-100h-100z" />
    <glyph glyph-name="y" unicode="y" horiz-adv-x="724" 
d="M100 -128v105h419v-105h-419zM100 187v314h105v-314h-105zM519 -23v105h-314v105h314v314h105v-524h-105z" />
    <glyph glyph-name="z" unicode="z" horiz-adv-x="801" 
d="M100 0v100h100v100h100v-100h401v-100h-601zM300 200v101h201v-101h-201zM501 301v100h-401v100h601v-100h-100v-100h-100z" />
    <glyph glyph-name="asciitilde" unicode="~" horiz-adv-x="780" 
d="M512 768v128h-256v-128h256zM128 0v128h-128v128h128v128h-128v128h128v512h512v-384h-384v-128h128v-128h-128v-128h128v-128h-128v-128h-128z" />
    <glyph glyph-name="glyph83" horiz-adv-x="780" 
d="M512 768v128h-256v-128h256zM128 0v128h-128v128h128v128h-128v128h128v512h512v-384h-384v-128h128v-128h-128v-128h128v-128h-128v-128h-128z" />
    <glyph glyph-name="glyph83" horiz-adv-x="780" 
d="M512 768v128h-256v-128h256zM128 0v128h-128v128h128v128h-128v128h128v512h512v-384h-384v-128h128v-128h-128v-128h128v-128h-128v-128h-128z" />
    <glyph glyph-name="uni0001" horiz-adv-x="780" 
d="M512 768v128h-256v-128h256zM128 0v128h-128v128h128v128h-128v128h128v512h512v-384h-384v-128h128v-128h-128v-128h128v-128h-128v-128h-128z" />
    <glyph glyph-name="uni0004" horiz-adv-x="396" 
d="M0 512v128h128v-128h-128zM128 640v128h-128v128h256v-256h-128z" />
    <glyph glyph-name="uni0006" horiz-adv-x="780" 
d="M0 512v128h128v-128h-128zM384 512v128h128v-128h-128zM128 640v128h-128v128h256v-256h-128zM512 640v128h-128v128h256v-256h-128z" />
    <glyph glyph-name="uniAC00" unicode="&#xac00;" horiz-adv-x="759" 
d="M500 779h79v-400h80v-79h-80v-400h-79v879zM100 699h320v-240h-80v160h-240v80zM260 459h80v-159h-80v159zM180 300h80v-160h-80v160zM100 140h80v-160h-80v160z" />
    <glyph glyph-name="uniAC01" unicode="&#xac01;" horiz-adv-x="759" 
d="M500 779h79v-240h80v-80h-80v-159h-79v479zM100 699h320v-240h-80v160h-240v80zM260 459h80v-80h-80v80zM180 379h80v-79h-80v79zM100 220h559v-320h-80v240h-479v80z" />
    <glyph glyph-name="uniAC04" unicode="&#xac04;" horiz-adv-x="759" 
d="M500 779h79v-240h80v-80h-80v-159h-79v479zM100 699h320v-240h-80v160h-240v80zM260 459h80v-80h-80v80zM180 379h80v-79h-80v79zM100 220h80v-240h479v-80h-559v320z" />
    <glyph glyph-name="uniAC07" unicode="&#xac07;" horiz-adv-x="759" 
d="M500 779h79v-240h80v-80h-80v-159h-79v479zM100 699h320v-240h-80v160h-240v80zM260 459h80v-80h-80v80zM180 379h80v-79h-80v79zM100 220h559v-80h-399v-160h399v-80h-479v240h-80v80z" />
    <glyph glyph-name="uniAC08" unicode="&#xac08;" horiz-adv-x="759" 
d="M500 779h79v-160h80v-80h-80v-160h-79v400zM100 699h320v-160h-80v80h-240v80zM260 539h80v-80h-80v80zM180 459h80v-80h-80v80zM180 300h399v-240h-319v-80h319v-80h-399v240h320v80h-320v80z" />
    <glyph glyph-name="uniAC09" unicode="&#xac09;" horiz-adv-x="759" 
d="M500 779h79v-160h80v-80h-80v-160h-79v400zM100 699h320v-160h-80v80h-240v80zM260 539h80v-80h-80v80zM180 459h80v-80h-80v80zM100 300h240v-240h-160v-80h160v-80h-240v240h160v80h-160v80zM420 300h239v-400h-80v320h-159v80z" />
    <glyph glyph-name="uniAC0A" unicode="&#xac0a;" 
d="M500 780h80v-160h80v-80h-80v-160h-80v400zM100 700h320v-160h-80v80h-240v80zM260 540h80v-80h-80v80zM180 460h80v-80h-80v80zM100 300h240v-240h-160v-80h160v-80h-240v240h160v80h-160v80zM420 300h240v-400h-240v400zM500 220v-240h80v240h-80z" />
    <glyph glyph-name="uniAC10" unicode="&#xac10;" 
d="M500 780h80v-240h80v-80h-80v-160h-80v480zM100 700h320v-240h-80v160h-240v80zM260 460h80v-80h-80v80zM180 380h80v-80h-80v80zM100 220h560v-320h-560v320zM180 140v-160h400v160h-400z" />
    <glyph glyph-name="uniAC11" unicode="&#xac11;" 
d="M500 780h80v-240h80v-80h-80v-160h-80v480zM100 700h320v-240h-80v160h-240v80zM260 460h80v-80h-80v80zM180 380h80v-80h-80v80zM100 220h80v-80h400v80h80v-320h-560v320zM180 60v-80h400v80h-400z" />
    <glyph glyph-name="uniAC12" unicode="&#xac12;" 
d="M500 780h80v-160h80v-80h-80v-160h-80v400zM100 700h320v-160h-80v80h-240v80zM260 540h80v-80h-80v80zM180 460h80v-80h-80v80zM100 300h80v-160h80v160h80v-400h-240v400zM420 300h160v-240h-80v160h-80v80zM180 60v-80h80v80h-80zM420 60h80v-160h-80v160zM580 60h80
v-160h-80v160z" />
    <glyph glyph-name="uniAC13" unicode="&#xac13;" 
d="M500 780h80v-240h80v-80h-80v-160h-80v480zM100 700h320v-240h-80v160h-240v80zM260 460h80v-80h-80v80zM180 380h80v-80h-80v80zM420 220h80v-80h-80v80zM340 140h80v-80h-80v80zM260 60h80v-80h-80v80zM420 60h80v-80h-80v80zM180 -20h80v-80h-80v80zM500 -20h80v-80
h-80v80z" />
    <glyph glyph-name="uniAC14" unicode="&#xac14;" 
d="M500 780h80v-240h80v-80h-80v-160h-80v480zM100 700h320v-240h-80v160h-240v80zM260 460h80v-80h-80v80zM180 380h80v-80h-80v80zM180 220h80v-160h-80v160zM500 220h80v-160h-80v160zM100 60h80v-160h-80v160zM260 60h80v-160h-80v160zM420 60h80v-160h-80v160zM580 60
h80v-160h-80v160z" />
    <glyph glyph-name="uniAC15" unicode="&#xac15;" 
d="M500 780h80v-240h80v-80h-80v-160h-80v480zM100 700h320v-240h-80v160h-240v80zM260 460h80v-80h-80v80zM180 380h80v-80h-80v80zM260 220h240v-80h-240v80zM180 140h80v-160h-80v160zM500 140h80v-160h-80v160zM260 -20h240v-80h-240v80z" />
    <glyph glyph-name="uniAC16" unicode="&#xac16;" 
d="M500 780h80v-240h80v-80h-80v-160h-80v480zM100 700h320v-240h-80v160h-240v80zM260 460h80v-80h-80v80zM180 380h80v-80h-80v80zM100 220h560v-80h-160v-80h-80v80h-80v-80h-80v80h-160v80zM180 60h80v-80h-80v80zM500 60h80v-80h-80v80zM100 -20h80v-80h-80v80z
M580 -20h80v-80h-80v80z" />
    <glyph glyph-name="uniAC17" unicode="&#xac17;" 
d="M500 780h80v-240h80v-80h-80v-160h-80v480zM100 700h320v-240h-80v160h-240v80zM260 460h80v-80h-80v80zM180 380h80v-80h-80v80zM340 220h80v-80h240v-80h-160v-80h-80v80h-80v-80h-80v80h-160v80h240v80zM180 -20h80v-80h-80v80zM500 -20h80v-80h-80v80z" />
    <glyph glyph-name="uniAC19" unicode="&#xac19;" 
d="M500 780h80v-240h80v-80h-80v-240h-320v-80h320v-80h-320v-80h320v-80h-400v400h320v480zM100 700h320v-160h-80v80h-240v80zM260 540h80v-80h-80v80zM180 460h80v-80h-80v80z" />
    <glyph glyph-name="uniAC1A" unicode="&#xac1a;" 
d="M500 780h80v-240h80v-80h-80v-160h-80v480zM100 700h320v-240h-80v160h-240v80zM260 460h80v-80h-80v80zM180 380h80v-80h-80v80zM100 220h560v-80h-80v-160h80v-80h-560v80h80v160h-80v80zM260 140v-160h240v160h-240z" />
    <glyph glyph-name="uniAC1B" unicode="&#xac1b;" 
d="M500 780h80v-240h80v-80h-80v-160h-80v480zM100 700h320v-240h-80v160h-240v80zM260 460h80v-80h-80v80zM180 380h80v-80h-80v80zM340 300h80v-80h240v-80h-160v-80h-240v80h-160v80h240v80zM180 60h80v-80h-80v80zM500 60h80v-80h-80v80zM260 -20h240v-80h-240v80z" />
    <glyph glyph-name="uniAC1C" unicode="&#xac1c;" 
d="M420 780h80v-400h80v400h80v-880h-80v400h-80v-400h-80v880zM100 700h240v-240h-80v160h-160v80zM180 460h80v-240h-80v240zM100 220h80v-240h-80v240z" />
    <glyph glyph-name="uniAC1D" unicode="&#xac1d;" 
d="M420 780h80v-240h80v240h80v-480h-80v160h-80v-160h-80v480zM100 700h240v-240h-80v160h-160v80zM180 460h80v-160h-80v160zM100 220h560v-320h-80v240h-480v80z" />
    <glyph glyph-name="uniAC20" unicode="&#xac20;" 
d="M420 780h80v-240h80v240h80v-480h-80v160h-80v-160h-80v480zM100 700h240v-240h-80v160h-160v80zM180 460h80v-160h-80v160zM100 220h80v-240h480v-80h-560v320z" />
    <glyph glyph-name="uniAC24" unicode="&#xac24;" 
d="M420 780h80v-160h80v160h80v-400h-80v160h-80v-160h-80v400zM100 700h240v-160h-80v80h-160v80zM180 540h80v-80h-80v80zM100 460h80v-80h-80v80zM180 300h400v-240h-320v-80h320v-80h-400v240h320v80h-320v80z" />
    <glyph glyph-name="uniAC2C" unicode="&#xac2c;" 
d="M420 780h80v-240h80v240h80v-480h-80v160h-80v-160h-80v480zM100 700h240v-240h-80v160h-160v80zM180 460h80v-160h-80v160zM100 220h560v-320h-560v320zM180 140v-160h400v160h-400z" />
    <glyph glyph-name="uniAC2D" unicode="&#xac2d;" 
d="M420 780h80v-240h80v240h80v-480h-80v160h-80v-160h-80v480zM100 700h240v-240h-80v160h-160v80zM180 460h80v-160h-80v160zM100 220h80v-80h400v80h80v-320h-560v320zM180 60v-80h400v80h-400z" />
    <glyph glyph-name="uniAC2F" unicode="&#xac2f;" 
d="M420 780h80v-240h80v240h80v-480h-80v160h-80v-160h-80v480zM100 700h240v-240h-80v160h-160v80zM180 460h80v-160h-80v160zM420 220h80v-80h-80v80zM340 140h80v-80h-80v80zM260 60h80v-80h-80v80zM420 60h80v-80h-80v80zM180 -20h80v-80h-80v80zM500 -20h80v-80h-80v80
z" />
    <glyph glyph-name="uniAC30" unicode="&#xac30;" 
d="M420 780h80v-240h80v240h80v-480h-80v160h-80v-160h-80v480zM100 700h240v-240h-80v160h-160v80zM180 460h80v-160h-80v160zM180 220h80v-160h-80v160zM500 220h80v-160h-80v160zM100 60h80v-160h-80v160zM260 60h80v-160h-80v160zM420 60h80v-160h-80v160zM580 60h80
v-160h-80v160z" />
    <glyph glyph-name="uniAC31" unicode="&#xac31;" 
d="M420 780h80v-240h80v240h80v-480h-80v160h-80v-160h-80v480zM100 700h240v-240h-80v160h-160v80zM180 460h80v-160h-80v160zM260 220h240v-80h-240v80zM180 140h80v-160h-80v160zM500 140h80v-160h-80v160zM260 -20h240v-80h-240v80z" />
    <glyph glyph-name="uniAC38" unicode="&#xac38;" 
d="M500 780h80v-240h80v-80h-80v-240h80v-80h-80v-240h-80v880zM100 700h320v-240h-80v160h-240v80zM260 460h80v-160h-80v160zM180 300h80v-160h-80v160zM100 140h80v-160h-80v160z" />
    <glyph glyph-name="uniAC39" unicode="&#xac39;" 
d="M500 780h80v-160h80v-80h-80v-80h80v-80h-80v-80h-80v480zM100 700h320v-240h-80v160h-240v80zM260 460h80v-80h-80v80zM180 380h80v-80h-80v80zM100 220h560v-320h-80v240h-480v80z" />
    <glyph glyph-name="uniAC3C" unicode="&#xac3c;" 
d="M500 780h80v-160h80v-80h-80v-80h80v-80h-80v-160h-80v560zM100 700h320v-240h-80v160h-240v80zM260 460h80v-80h-80v80zM180 380h80v-80h-80v80zM100 220h80v-240h480v-80h-560v320z" />
    <glyph glyph-name="uniAC40" unicode="&#xac40;" 
d="M500 780h80v-80h80v-80h-80v-80h80v-80h-80v-80h-80v400zM100 700h320v-160h-80v80h-240v80zM260 540h80v-80h-80v80zM180 460h80v-80h-80v80zM180 300h400v-240h-320v-80h320v-80h-400v240h320v80h-320v80z" />
    <glyph glyph-name="uniAC4B" unicode="&#xac4b;" 
d="M500 780h80v-160h80v-80h-80v-80h80v-80h-80v-80h-80v480zM100 700h320v-240h-80v160h-240v80zM260 460h80v-80h-80v80zM180 380h80v-80h-80v80zM420 220h80v-80h-80v80zM340 140h80v-80h-80v80zM260 60h80v-80h-80v80zM420 60h80v-80h-80v80zM180 -20h80v-80h-80v80z
M500 -20h80v-80h-80v80z" />
    <glyph glyph-name="uniAC4D" unicode="&#xac4d;" 
d="M500 780h80v-160h80v-80h-80v-80h80v-80h-80v-80h-80v480zM100 700h320v-240h-80v160h-240v80zM260 460h80v-80h-80v80zM180 380h80v-80h-80v80zM260 220h240v-80h-240v80zM180 140h80v-160h-80v160zM500 140h80v-160h-80v160zM260 -20h240v-80h-240v80z" />
    <glyph glyph-name="uniAC54" unicode="&#xac54;" 
d="M420 780h80v-240h80v240h80v-880h-80v240h-80v-240h-80v880zM100 700h240v-240h-80v160h-160v80zM500 460v-240h80v240h-80zM180 460h80v-240h-80v240zM100 220h80v-240h-80v240z" />
    <glyph glyph-name="uniAC58" unicode="&#xac58;" 
d="M420 780h80v-160h80v160h80v-480h-80v80h-80v-80h-80v480zM100 700h240v-240h-80v160h-160v80zM500 540v-80h80v80h-80zM180 460h80v-160h-80v160zM100 220h80v-240h480v-80h-560v320z" />
    <glyph glyph-name="uniAC5C" unicode="&#xac5c;" 
d="M420 780h80v-80h80v80h80v-400h-80v80h-80v-80h-80v400zM100 700h240v-160h-80v80h-160v80zM500 620v-80h80v80h-80zM180 540h80v-80h-80v80zM100 460h80v-80h-80v80zM180 300h400v-240h-320v-80h320v-80h-400v240h320v80h-320v80z" />
    <glyph glyph-name="uniAC70" unicode="&#xac70;" 
d="M580 780h80v-880h-80v400h-80v80h80v400zM100 700h320v-240h-80v160h-240v80zM260 460h80v-160h-80v160zM180 300h80v-160h-80v160zM100 140h80v-160h-80v160z" />
    <glyph glyph-name="uniAC71" unicode="&#xac71;" 
d="M580 780h80v-480h-80v160h-80v80h80v240zM100 700h320v-240h-80v160h-240v80zM260 460h80v-80h-80v80zM180 380h80v-80h-80v80zM100 220h560v-320h-80v240h-480v80z" />
    <glyph glyph-name="uniAC74" unicode="&#xac74;" 
d="M580 780h80v-480h-80v160h-80v80h80v240zM100 700h320v-240h-80v160h-240v80zM260 460h80v-80h-80v80zM180 380h80v-80h-80v80zM100 220h80v-240h480v-80h-560v320z" />
    <glyph glyph-name="uniAC77" unicode="&#xac77;" 
d="M580 780h80v-480h-80v160h-80v80h80v240zM100 700h320v-240h-80v160h-240v80zM260 460h80v-80h-80v80zM180 380h80v-80h-80v80zM100 220h560v-80h-400v-160h400v-80h-480v240h-80v80z" />
    <glyph glyph-name="uniAC78" unicode="&#xac78;" 
d="M580 780h80v-400h-80v160h-80v80h80v160zM100 700h320v-160h-80v80h-240v80zM260 540h80v-80h-80v80zM180 460h80v-80h-80v80zM180 300h400v-240h-320v-80h320v-80h-400v240h320v80h-320v80z" />
    <glyph glyph-name="uniAC7A" unicode="&#xac7a;" 
d="M580 780h80v-400h-80v160h-80v80h80v160zM100 700h320v-160h-80v80h-240v80zM260 540h80v-80h-80v80zM180 460h80v-80h-80v80zM100 300h240v-240h-160v-80h160v-80h-240v240h160v80h-160v80zM420 300h240v-400h-240v400zM500 220v-240h80v240h-80z" />
    <glyph glyph-name="uniAC80" unicode="&#xac80;" 
d="M580 780h80v-480h-80v160h-80v80h80v240zM100 700h320v-240h-80v160h-240v80zM260 460h80v-80h-80v80zM180 380h80v-80h-80v80zM100 220h560v-320h-560v320zM180 140v-160h400v160h-400z" />
    <glyph glyph-name="uniAC81" unicode="&#xac81;" 
d="M580 780h80v-480h-80v160h-80v80h80v240zM100 700h320v-240h-80v160h-240v80zM260 460h80v-80h-80v80zM180 380h80v-80h-80v80zM100 220h80v-80h400v80h80v-320h-560v320zM180 60v-80h400v80h-400z" />
    <glyph glyph-name="uniAC83" unicode="&#xac83;" 
d="M580 780h80v-480h-80v160h-80v80h80v240zM100 700h320v-240h-80v160h-240v80zM260 460h80v-80h-80v80zM180 380h80v-80h-80v80zM420 220h80v-80h-80v80zM340 140h80v-80h-80v80zM260 60h80v-80h-80v80zM420 60h80v-80h-80v80zM180 -20h80v-80h-80v80zM500 -20h80v-80h-80
v80z" />
    <glyph glyph-name="uniAC84" unicode="&#xac84;" 
d="M580 780h80v-480h-80v160h-80v80h80v240zM100 700h320v-240h-80v160h-240v80zM260 460h80v-80h-80v80zM180 380h80v-80h-80v80zM180 220h80v-160h-80v160zM500 220h80v-160h-80v160zM100 60h80v-160h-80v160zM260 60h80v-160h-80v160zM420 60h80v-160h-80v160zM580 60h80
v-160h-80v160z" />
    <glyph glyph-name="uniAC85" unicode="&#xac85;" 
d="M580 780h80v-480h-80v160h-80v80h80v240zM100 700h320v-240h-80v160h-240v80zM260 460h80v-80h-80v80zM180 380h80v-80h-80v80zM260 220h240v-80h-240v80zM180 140h80v-160h-80v160zM500 140h80v-160h-80v160zM260 -20h240v-80h-240v80z" />
    <glyph glyph-name="uniAC86" unicode="&#xac86;" 
d="M580 780h80v-480h-80v160h-80v80h80v240zM100 700h320v-240h-80v160h-240v80zM260 460h80v-80h-80v80zM180 380h80v-80h-80v80zM100 220h560v-80h-160v-80h-80v80h-80v-80h-80v80h-160v80zM180 60h80v-80h-80v80zM500 60h80v-80h-80v80zM100 -20h80v-80h-80v80zM580 -20
h80v-80h-80v80z" />
    <glyph glyph-name="uniAC89" unicode="&#xac89;" 
d="M580 780h80v-480h-80v160h-80v80h80v240zM100 700h320v-160h-80v80h-240v80zM260 540h80v-80h-80v80zM180 460h80v-80h-80v80zM180 300h400v-80h-320v-80h320v-80h-320v-80h320v-80h-400v400z" />
    <glyph glyph-name="uniAC8A" unicode="&#xac8a;" 
d="M580 780h80v-480h-80v160h-80v80h80v240zM100 700h320v-240h-80v160h-240v80zM260 460h80v-80h-80v80zM180 380h80v-80h-80v80zM100 220h560v-80h-80v-160h80v-80h-560v80h80v160h-80v80zM260 140v-160h240v160h-240z" />
    <glyph glyph-name="uniAC8B" unicode="&#xac8b;" 
d="M580 780h80v-480h-80v160h-80v80h80v240zM100 700h320v-240h-80v160h-240v80zM260 460h80v-80h-80v80zM180 380h80v-80h-80v80zM340 300h80v-80h240v-80h-160v-80h-240v80h-160v80h240v80zM180 60h80v-80h-80v80zM500 60h80v-80h-80v80zM260 -20h240v-80h-240v80z" />
    <glyph glyph-name="uniAC8C" unicode="&#xac8c;" 
d="M420 780h80v-880h-80v400h-80v80h80v400zM580 780h80v-880h-80v880zM100 700h240v-240h-80v160h-160v80zM180 460h80v-240h-80v240zM100 220h80v-240h-80v240z" />
    <glyph glyph-name="uniAC90" unicode="&#xac90;" 
d="M100 780h240v-160h-80v80h-160v80zM420 780h80v-560h-80v240h-80v80h80v240zM580 780h80v-560h-80v560zM180 620h80v-160h-80v160zM100 460h80v-160h-80v160zM100 220h80v-240h480v-80h-560v320z" />
    <glyph glyph-name="uniAC94" unicode="&#xac94;" 
d="M100 780h240v-160h80v160h80v-400h-80v160h-160v160h-160v80zM580 780h80v-400h-80v400zM180 540h80v-80h-80v80zM100 460h80v-80h-80v80zM180 300h400v-240h-320v-80h320v-80h-400v240h320v80h-320v80z" />
    <glyph glyph-name="uniAC9C" unicode="&#xac9c;" 
d="M100 780h240v-160h-80v80h-160v80zM420 780h80v-480h-80v160h-80v80h80v240zM580 780h80v-480h-80v480zM180 620h80v-160h-80v160zM100 460h80v-160h-80v160zM100 220h560v-320h-560v320zM180 140v-160h400v160h-400z" />
    <glyph glyph-name="uniAC9D" unicode="&#xac9d;" 
d="M100 780h240v-160h-80v80h-160v80zM420 780h80v-480h-80v160h-80v80h80v240zM580 780h80v-480h-80v480zM180 620h80v-160h-80v160zM100 460h80v-160h-80v160zM100 220h80v-80h400v80h80v-320h-560v320zM180 60v-80h400v80h-400z" />
    <glyph glyph-name="uniAC9F" unicode="&#xac9f;" 
d="M100 780h240v-160h-80v80h-160v80zM420 780h80v-480h-80v160h-80v80h80v240zM580 780h80v-480h-80v480zM180 620h80v-160h-80v160zM100 460h80v-160h-80v160zM420 220h80v-80h-80v80zM340 140h80v-80h-80v80zM260 60h80v-80h-80v80zM420 60h80v-80h-80v80zM180 -20h80
v-80h-80v80zM500 -20h80v-80h-80v80z" />
    <glyph glyph-name="uniACA0" unicode="&#xaca0;" 
d="M100 780h240v-160h-80v80h-160v80zM420 780h80v-480h-80v160h-80v80h80v240zM580 780h80v-480h-80v480zM180 620h80v-160h-80v160zM100 460h80v-160h-80v160zM180 220h80v-160h-80v160zM500 220h80v-160h-80v160zM100 60h80v-160h-80v160zM260 60h80v-160h-80v160z
M420 60h80v-160h-80v160zM580 60h80v-160h-80v160z" />
    <glyph glyph-name="uniACA1" unicode="&#xaca1;" 
d="M100 780h240v-160h-80v80h-160v80zM420 780h80v-480h-80v160h-80v80h80v240zM580 780h80v-480h-80v480zM180 620h80v-160h-80v160zM100 460h80v-160h-80v160zM260 220h240v-80h-240v80zM180 140h80v-160h-80v160zM500 140h80v-160h-80v160zM260 -20h240v-80h-240v80z" />
    <glyph glyph-name="uniACA8" unicode="&#xaca8;" 
d="M580 780h80v-880h-80v240h-80v80h80v240h-80v80h80v240zM100 700h320v-240h-80v160h-240v80zM260 460h80v-160h-80v160zM180 300h80v-160h-80v160zM100 140h80v-160h-80v160z" />
    <glyph glyph-name="uniACA9" unicode="&#xaca9;" 
d="M580 780h80v-480h-80v80h-80v80h80v80h-80v80h80v160zM100 700h320v-240h-80v160h-240v80zM260 460h80v-80h-80v80zM180 380h80v-80h-80v80zM100 220h560v-320h-80v240h-480v80z" />
    <glyph glyph-name="uniACAA" unicode="&#xacaa;" 
d="M580 780h80v-480h-80v80h-80v80h80v80h-80v80h80v160zM100 700h320v-240h-80v160h-240v80zM260 460h80v-80h-80v80zM180 380h80v-80h-80v80zM100 220h560v-320h-80v240h-160v-160h-80v160h-240v80zM260 -20h80v-80h-80v80z" />
    <glyph glyph-name="uniACAC" unicode="&#xacac;" 
d="M580 780h80v-560h-80v160h-80v80h80v80h-80v80h80v160zM100 700h320v-240h-80v160h-240v80zM260 460h80v-80h-80v80zM180 380h80v-80h-80v80zM100 220h80v-240h480v-80h-560v320z" />
    <glyph glyph-name="uniACAF" unicode="&#xacaf;" 
d="M580 780h80v-480h-80v80h-80v80h80v80h-80v80h80v160zM100 700h320v-240h-80v160h-240v80zM260 460h80v-80h-80v80zM180 380h80v-80h-80v80zM100 220h560v-80h-400v-160h400v-80h-480v240h-80v80z" />
    <glyph glyph-name="uniACB0" unicode="&#xacb0;" 
d="M580 780h80v-400h-80v80h-80v80h80v80h-80v80h80v80zM100 700h320v-160h-80v80h-240v80zM260 540h80v-80h-80v80zM180 460h80v-80h-80v80zM180 300h400v-240h-320v-80h320v-80h-400v240h320v80h-320v80z" />
    <glyph glyph-name="uniACB8" unicode="&#xacb8;" 
d="M580 780h80v-480h-80v80h-80v80h80v80h-80v80h80v160zM100 700h320v-240h-80v160h-240v80zM260 460h80v-80h-80v80zM180 380h80v-80h-80v80zM100 220h560v-320h-560v320zM180 140v-160h400v160h-400z" />
    <glyph glyph-name="uniACB9" unicode="&#xacb9;" 
d="M580 780h80v-480h-80v80h-80v80h80v80h-80v80h80v160zM100 700h320v-240h-80v160h-240v80zM260 460h80v-80h-80v80zM180 380h80v-80h-80v80zM100 220h80v-80h400v80h80v-320h-560v320zM180 60v-80h400v80h-400z" />
    <glyph glyph-name="uniACBB" unicode="&#xacbb;" 
d="M580 780h80v-560h-80v160h-80v80h80v80h-80v80h80v160zM100 700h320v-240h-80v160h-240v80zM260 460h80v-80h-80v80zM180 380h80v-80h-80v80zM420 220h80v-80h-80v80zM340 140h80v-80h-80v80zM260 60h80v-80h-80v80zM420 60h80v-80h-80v80zM180 -20h80v-80h-80v80z
M500 -20h80v-80h-80v80z" />
    <glyph glyph-name="uniACBC" unicode="&#xacbc;" 
d="M580 780h80v-560h-80v160h-80v80h80v80h-80v80h80v160zM100 700h320v-240h-80v160h-240v80zM260 460h80v-80h-80v80zM180 380h80v-80h-80v80zM180 220h80v-160h-80v160zM500 220h80v-160h-80v160zM100 60h80v-160h-80v160zM260 60h80v-160h-80v160zM420 60h80v-160h-80
v160zM580 60h80v-160h-80v160z" />
    <glyph glyph-name="uniACBD" unicode="&#xacbd;" 
d="M580 780h80v-560h-80v160h-80v80h80v80h-80v80h80v160zM100 700h320v-240h-80v160h-240v80zM260 460h80v-80h-80v80zM180 380h80v-80h-80v80zM260 220h240v-80h-240v80zM180 140h80v-160h-80v160zM500 140h80v-160h-80v160zM260 -20h240v-80h-240v80z" />
    <glyph glyph-name="uniACC1" unicode="&#xacc1;" 
d="M580 780h80v-480h-80v80h-80v80h80v80h-80v80h80v160zM100 700h320v-160h-80v80h-240v80zM260 540h80v-80h-80v80zM180 460h80v-80h-80v80zM180 300h400v-80h-320v-80h320v-80h-320v-80h320v-80h-400v400z" />
    <glyph glyph-name="uniACC4" unicode="&#xacc4;" 
d="M420 780h80v-880h-80v240h-80v80h80v160h-80v80h80v320zM580 780h80v-880h-80v880zM100 700h240v-240h-80v160h-160v80zM180 460h80v-240h-80v240zM100 220h80v-240h-80v240z" />
    <glyph glyph-name="uniACC8" unicode="&#xacc8;" 
d="M100 780h240v-160h-80v80h-160v80zM420 780h80v-560h-80v160h-80v80h80v80h-80v80h80v160zM580 780h80v-560h-80v560zM180 620h80v-160h-80v160zM100 460h80v-160h-80v160zM100 220h80v-240h480v-80h-560v320z" />
    <glyph glyph-name="uniACCC" unicode="&#xaccc;" 
d="M100 780h240v-80h80v80h80v-400h-80v80h-80v80h80v80h-80v-80h-80v160h-160v80zM580 780h80v-400h-80v400zM180 540h80v-80h-80v80zM100 460h80v-80h-80v80zM180 300h400v-240h-320v-80h320v-80h-400v240h320v80h-320v80z" />
    <glyph glyph-name="uniACD5" unicode="&#xacd5;" 
d="M100 780h240v-160h-80v80h-160v80zM420 780h80v-480h-80v80h-80v80h80v80h-80v80h80v160zM580 780h80v-480h-80v480zM180 620h80v-160h-80v160zM100 460h80v-160h-80v160zM100 220h80v-80h400v80h80v-320h-560v320zM180 60v-80h400v80h-400z" />
    <glyph glyph-name="uniACD7" unicode="&#xacd7;" 
d="M100 780h240v-160h-80v80h-160v80zM380 780h120v-480h-80v80h-80v80h80v80h-80v80h80v80h-40v80zM580 780h80v-480h-80v480zM180 620h80v-160h-80v160zM100 460h80v-160h-80v160zM420 220h80v-80h-80v80zM340 140h80v-80h-80v80zM260 60h80v-80h-80v80zM420 60h80v-80
h-80v80zM180 -20h80v-80h-80v80zM500 -20h80v-80h-80v80z" />
    <glyph glyph-name="uniACE0" unicode="&#xace0;" 
d="M180 620h400v-240h-80v160h-320v80zM420 380h80v-80h-80v80zM340 300h80v-80h-80v80zM340 140h80v-160h240v-80h-560v80h240v160z" />
    <glyph glyph-name="uniACE1" unicode="&#xace1;" 
d="M180 780h400v-160h-80v80h-320v80zM420 620h80v-80h-80v80zM340 460h80v-80h240v-80h-560v80h240v80zM100 220h560v-320h-80v240h-480v80z" />
    <glyph glyph-name="uniACE4" unicode="&#xace4;" 
d="M180 780h400v-160h-80v80h-320v80zM420 620h80v-80h-80v80zM340 460h80v-80h240v-80h-560v80h240v80zM100 220h80v-240h480v-80h-560v320z" />
    <glyph glyph-name="uniACE7" unicode="&#xace7;" 
d="M180 780h400v-160h-80v80h-320v80zM420 620h80v-80h-80v80zM340 460h80v-80h240v-80h-560v80h240v80zM100 220h560v-80h-400v-160h400v-80h-480v240h-80v80z" />
    <glyph glyph-name="uniACE8" unicode="&#xace8;" 
d="M180 780h400v-240h-80v160h-320v80zM340 540h80v-80h240v-80h-560v80h240v80zM180 300h400v-240h-320v-80h320v-80h-400v240h320v80h-320v80z" />
    <glyph glyph-name="uniACEA" unicode="&#xacea;" 
d="M180 780h400v-240h-80v160h-320v80zM340 540h80v-80h240v-80h-560v80h240v80zM100 300h240v-240h-160v-80h160v-80h-240v240h160v80h-160v80zM420 300h240v-400h-240v400zM500 220v-240h80v240h-80z" />
    <glyph glyph-name="uniACEC" unicode="&#xacec;" 
d="M180 780h400v-240h-80v160h-320v80zM340 540h80v-80h240v-80h-560v80h240v80zM100 300h240v-240h-160v-80h160v-80h-240v240h160v80h-160v80zM500 300h80v-240h-80v240zM420 60h80v-160h-80v160zM580 60h80v-160h-80v160z" />
    <glyph glyph-name="uniACEF" unicode="&#xacef;" 
d="M180 780h400v-240h-80v160h-320v80zM340 540h80v-80h240v-80h-560v80h240v80zM100 300h240v-80h80v80h160v-80h80v-80h-80v-80h-160v80h-80v-80h-160v-80h160v-80h-240v240h160v80h-160v80zM340 60h80v-80h-80v80zM580 60h80v-80h-80v80zM420 -20h160v-80h-160v80z" />
    <glyph glyph-name="uniACF0" unicode="&#xacf0;" 
d="M180 780h400v-160h-80v80h-320v80zM420 620h80v-80h-80v80zM340 460h80v-80h240v-80h-560v80h240v80zM100 220h560v-320h-560v320zM180 140v-160h400v160h-400z" />
    <glyph glyph-name="uniACF1" unicode="&#xacf1;" 
d="M180 780h400v-160h-80v80h-320v80zM420 620h80v-80h-80v80zM340 460h80v-80h240v-80h-560v80h240v80zM100 220h80v-80h400v80h80v-320h-560v320zM180 60v-80h400v80h-400z" />
    <glyph glyph-name="uniACF3" unicode="&#xacf3;" 
d="M180 780h400v-160h-80v80h-320v80zM420 620h80v-80h-80v80zM340 460h80v-80h240v-80h-560v80h240v80zM420 220h80v-80h-80v80zM340 140h80v-80h-80v80zM260 60h80v-80h-80v80zM420 60h80v-80h-80v80zM180 -20h80v-80h-80v80zM500 -20h80v-80h-80v80z" />
    <glyph glyph-name="uniACF5" unicode="&#xacf5;" 
d="M180 780h400v-160h-80v80h-320v80zM420 620h80v-80h-80v80zM340 460h80v-80h240v-80h-560v80h240v80zM260 220h240v-80h-240v80zM180 140h80v-160h-80v160zM500 140h80v-160h-80v160zM260 -20h240v-80h-240v80z" />
    <glyph glyph-name="uniACF6" unicode="&#xacf6;" 
d="M180 780h400v-160h-80v80h-320v80zM420 620h80v-80h-80v80zM340 460h80v-80h240v-80h-560v80h240v80zM100 220h560v-80h-160v-80h-80v80h-80v-80h-80v80h-160v80zM180 60h80v-80h-80v80zM500 60h80v-80h-80v80zM100 -20h80v-80h-80v80zM580 -20h80v-80h-80v80z" />
    <glyph glyph-name="uniACFC" unicode="&#xacfc;" 
d="M500 780h80v-400h80v-80h-80v-400h-80v880zM100 700h320v-240h-80v160h-240v80zM260 460h80v-80h-80v80zM260 220h80v-240h80v-80h-320v80h160v240z" />
    <glyph glyph-name="uniACFD" unicode="&#xacfd;" 
d="M100 780h320v-160h-80v80h-240v80zM500 780h80v-240h80v-80h-80v-160h-80v480zM260 620h80v-80h-80v80zM260 460h80v-80h80v-80h-320v80h160v80zM100 220h560v-320h-80v240h-480v80z" />
    <glyph glyph-name="uniAD00" unicode="&#xad00;" 
d="M100 780h320v-160h-80v80h-240v80zM500 780h80v-240h80v-80h-80v-240h-80v560zM260 620h80v-80h-80v80zM260 460h80v-80h80v-80h-320v80h160v80zM100 220h80v-240h480v-80h-560v320z" />
    <glyph glyph-name="uniAD04" unicode="&#xad04;" 
d="M100 780h320v-240h-80v160h-240v80zM500 780h80v-160h80v-80h-80v-160h-80v400zM180 540h80v-80h160v-80h-320v80h80v80zM180 300h400v-240h-320v-80h320v-80h-400v240h320v80h-320v80z" />
    <glyph glyph-name="uniAD06" unicode="&#xad06;" 
d="M100 780h320v-240h-80v160h-240v80zM500 780h80v-160h80v-80h-80v-160h-80v400zM180 540h80v-80h160v-80h-320v80h80v80zM100 300h240v-240h-160v-80h160v-80h-240v240h160v80h-160v80zM420 300h240v-400h-240v400zM500 220v-240h80v240h-80z" />
    <glyph glyph-name="uniAD0C" unicode="&#xad0c;" 
d="M100 780h320v-160h-80v80h-240v80zM500 780h80v-240h80v-80h-80v-160h-80v480zM260 620h80v-80h-80v80zM260 460h80v-80h80v-80h-320v80h160v80zM100 220h560v-320h-560v320zM180 140v-160h400v160h-400z" />
    <glyph glyph-name="uniAD0D" unicode="&#xad0d;" 
d="M100 780h320v-160h-80v80h-240v80zM500 780h80v-240h80v-80h-80v-160h-80v480zM260 620h80v-80h-80v80zM260 460h80v-80h80v-80h-320v80h160v80zM100 220h80v-80h400v80h80v-320h-560v320zM180 60v-80h400v80h-400z" />
    <glyph glyph-name="uniAD0F" unicode="&#xad0f;" 
d="M100 780h320v-160h-80v80h-240v80zM500 780h80v-240h80v-80h-80v-160h-80v480zM260 620h80v-80h-80v80zM260 460h80v-80h80v-80h-320v80h160v80zM420 220h80v-80h-80v80zM340 140h80v-80h-80v80zM260 60h80v-80h-80v80zM420 60h80v-80h-80v80zM180 -20h80v-80h-80v80z
M500 -20h80v-80h-80v80z" />
    <glyph glyph-name="uniAD11" unicode="&#xad11;" 
d="M100 780h320v-160h-80v80h-240v80zM500 780h80v-240h80v-80h-80v-160h-80v480zM260 620h80v-80h-80v80zM260 460h80v-80h80v-80h-320v80h160v80zM260 220h240v-80h-240v80zM180 140h80v-160h-80v160zM500 140h80v-160h-80v160zM260 -20h240v-80h-240v80z" />
    <glyph glyph-name="uniAD18" unicode="&#xad18;" 
d="M420 780h80v-400h80v400h80v-880h-80v400h-80v-400h-80v880zM100 700h240v-240h-80v160h-160v80zM180 460h80v-80h-80v80zM180 220h80v-240h80v-80h-240v80h80v240z" />
    <glyph glyph-name="uniAD1C" unicode="&#xad1c;" 
d="M100 780h240v-240h-80v160h-160v80zM420 780h80v-240h80v240h80v-560h-80v240h-80v-240h-80v560zM180 460h80v-80h80v-80h-240v80h80v80zM100 220h80v-240h480v-80h-560v320z" />
    <glyph glyph-name="uniAD20" unicode="&#xad20;" 
d="M100 780h240v-160h-80v80h-160v80zM420 780h80v-160h80v160h80v-400h-80v160h-80v-160h-80v400zM180 540h80v-80h80v-80h-240v80h80v80zM180 300h400v-240h-320v-80h320v-80h-400v240h320v80h-320v80z" />
    <glyph glyph-name="uniAD29" unicode="&#xad29;" 
d="M100 780h240v-240h-80v160h-160v80zM420 780h80v-240h80v240h80v-480h-80v160h-80v-160h-80v480zM180 460h80v-80h80v-80h-240v80h80v80zM100 220h80v-80h400v80h80v-320h-560v320zM180 60v-80h400v80h-400z" />
    <glyph glyph-name="uniAD2C" unicode="&#xad2c;" 
d="M100 780h240v-240h-80v160h-160v80zM420 780h80v-240h80v240h80v-480h-80v160h-80v-160h-80v480zM180 460h80v-80h80v-80h-240v80h80v80zM180 220h80v-160h-80v160zM500 220h80v-160h-80v160zM100 60h80v-160h-80v160zM260 60h80v-160h-80v160zM420 60h80v-160h-80v160z
M580 60h80v-160h-80v160z" />
    <glyph glyph-name="uniAD2D" unicode="&#xad2d;" 
d="M100 780h240v-240h-80v160h-160v80zM420 780h80v-240h80v240h80v-480h-80v160h-80v-160h-80v480zM180 460h80v-80h80v-80h-240v80h80v80zM260 220h240v-80h-240v80zM180 140h80v-160h-80v160zM500 140h80v-160h-80v160zM260 -20h240v-80h-240v80z" />
    <glyph glyph-name="uniAD34" unicode="&#xad34;" 
d="M580 780h80v-880h-80v880zM100 700h400v-240h-80v160h-320v80zM340 460h80v-80h-80v80zM260 380h80v-80h-80v80zM260 220h80v-240h160v-80h-400v80h160v240z" />
    <glyph glyph-name="uniAD35" unicode="&#xad35;" 
d="M100 780h400v-160h-80v80h-320v80zM580 780h80v-480h-80v480zM340 620h80v-80h-80v80zM260 460h80v-80h160v-80h-400v80h160v80zM100 220h560v-320h-80v240h-480v80z" />
    <glyph glyph-name="uniAD38" unicode="&#xad38;" 
d="M100 780h400v-160h-80v80h-320v80zM580 780h80v-560h-80v560zM340 620h80v-80h-80v80zM260 460h80v-80h160v-80h-400v80h160v80zM100 220h80v-240h480v-80h-560v320z" />
    <glyph glyph-name="uniAD3C" unicode="&#xad3c;" 
d="M100 780h400v-240h-80v160h-320v80zM580 780h80v-400h-80v400zM260 540h80v-80h160v-80h-400v80h160v80zM180 300h400v-240h-320v-80h320v-80h-400v240h320v80h-320v80z" />
    <glyph glyph-name="uniAD44" unicode="&#xad44;" 
d="M100 780h400v-160h-80v80h-320v80zM580 780h80v-480h-80v480zM340 620h80v-80h-80v80zM260 460h80v-80h160v-80h-400v80h160v80zM180 220h480v-320h-480v320zM260 140v-160h320v160h-320z" />
    <glyph glyph-name="uniAD45" unicode="&#xad45;" 
d="M100 780h400v-160h-80v80h-320v80zM580 780h80v-480h-80v480zM340 620h80v-80h-80v80zM260 460h80v-80h160v-80h-400v80h160v80zM100 220h80v-80h400v80h80v-320h-560v320zM180 60v-80h400v80h-400z" />
    <glyph glyph-name="uniAD47" unicode="&#xad47;" 
d="M100 780h400v-160h-80v80h-320v80zM580 780h80v-480h-80v480zM340 620h80v-80h-80v80zM260 460h80v-80h160v-80h-400v80h160v80zM420 220h80v-80h-80v80zM340 140h80v-80h-80v80zM260 60h80v-80h-80v80zM420 60h80v-80h-80v80zM180 -20h80v-80h-80v80zM500 -20h80v-80
h-80v80z" />
    <glyph glyph-name="uniAD49" unicode="&#xad49;" 
d="M100 780h400v-160h-80v80h-320v80zM580 780h80v-560h-80v560zM340 620h80v-80h-80v80zM260 460h80v-80h160v-80h-400v80h160v80zM260 220h240v-80h-240v80zM180 140h80v-160h-80v160zM500 140h80v-160h-80v160zM260 -20h240v-80h-240v80z" />
    <glyph glyph-name="uniAD50" unicode="&#xad50;" 
d="M180 620h400v-240h-80v160h-320v80zM420 380h80v-80h-80v80zM340 300h80v-80h-80v80zM260 140h80v-160h80v160h80v-160h160v-80h-560v80h160v160z" />
    <glyph glyph-name="uniAD54" unicode="&#xad54;" 
d="M180 780h400v-160h-80v80h-320v80zM420 620h80v-80h-80v80zM260 460h80v-80h80v80h80v-80h160v-80h-560v80h160v80zM100 220h80v-240h480v-80h-560v320z" />
    <glyph glyph-name="uniAD58" unicode="&#xad58;" 
d="M180 780h400v-160h-80v80h-320v80zM260 540h80v-80h80v80h80v-80h160v-80h-560v80h160v80zM180 300h400v-240h-320v-80h320v-80h-400v240h320v80h-320v80z" />
    <glyph glyph-name="uniAD61" unicode="&#xad61;" 
d="M180 780h400v-160h-80v80h-320v80zM420 620h80v-80h-80v80zM260 460h80v-80h80v80h80v-80h160v-80h-560v80h160v80zM100 220h80v-80h400v80h80v-320h-560v320zM180 60v-80h400v80h-400z" />
    <glyph glyph-name="uniAD63" unicode="&#xad63;" 
d="M180 780h400v-160h-80v80h-320v80zM420 620h80v-80h-80v80zM260 460h80v-80h80v80h80v-80h160v-80h-560v80h160v80zM420 220h80v-80h-80v80zM340 140h80v-80h-80v80zM260 60h80v-80h-80v80zM420 60h80v-80h-80v80zM180 -20h80v-80h-80v80zM500 -20h80v-80h-80v80z" />
    <glyph glyph-name="uniAD6C" unicode="&#xad6c;" 
d="M180 620h400v-240h-80v160h-320v80zM420 380h80v-80h-80v80zM340 300h80v-80h-80v80zM100 140h560v-80h-240v-160h-80v160h-240v80z" />
    <glyph glyph-name="uniAD6D" unicode="&#xad6d;" 
d="M180 780h400v-240h-80v160h-320v80zM420 540h80v-80h-80v80zM100 380h560v-80h-240v-80h240v-320h-80v240h-480v80h240v80h-240v80z" />
    <glyph glyph-name="uniAD70" unicode="&#xad70;" 
d="M180 780h400v-240h-80v160h-320v80zM420 540h80v-80h-80v80zM100 380h560v-80h-240v-80h-80v80h-240v80zM100 220h80v-240h480v-80h-560v320z" />
    <glyph glyph-name="uniAD73" unicode="&#xad73;" 
d="M180 780h400v-240h-80v160h-320v80zM420 540h80v-80h-80v80zM100 380h560v-80h-240v-80h240v-80h-400v-160h400v-80h-480v240h-80v80h240v80h-240v80z" />
    <glyph glyph-name="uniAD74" unicode="&#xad74;" 
d="M180 780h400v-160h-80v80h-320v80zM420 620h80v-80h-80v80zM100 460h560v-80h-240v-80h160v-240h-320v-80h320v-80h-400v240h320v80h-320v80h160v80h-240v80z" />
    <glyph glyph-name="uniAD75" unicode="&#xad75;" 
d="M180 780h400v-160h-80v80h-320v80zM420 620h80v-80h-80v80zM100 460h560v-80h-240v-80h-80v80h-240v80zM100 300h240v-240h-160v-80h160v-80h-240v240h160v80h-160v80zM420 300h240v-400h-80v320h-160v80z" />
    <glyph glyph-name="uniAD76" unicode="&#xad76;" 
d="M180 780h400v-160h-80v80h-320v80zM420 620h80v-80h-80v80zM100 460h560v-80h-240v-80h-80v80h-240v80zM100 300h240v-240h-160v-80h160v-80h-240v240h160v80h-160v80zM420 300h240v-400h-240v400zM500 220v-240h80v240h-80z" />
    <glyph glyph-name="uniAD7B" unicode="&#xad7b;" 
d="M180 780h400v-160h-80v80h-320v80zM420 620h80v-80h-80v80zM100 460h560v-80h-240v-80h-80v80h-240v80zM100 300h240v-80h80v80h160v-80h80v-80h-80v-80h-160v80h-80v-80h-160v-80h160v-80h-240v240h160v80h-160v80zM340 60h80v-80h-80v80zM580 60h80v-80h-80v80z
M420 -20h160v-80h-160v80z" />
    <glyph glyph-name="uniAD7C" unicode="&#xad7c;" 
d="M180 780h400v-240h-80v160h-320v80zM420 540h80v-80h-80v80zM100 380h560v-80h-240v-80h240v-320h-560v320h240v80h-240v80zM180 140v-160h400v160h-400z" />
    <glyph glyph-name="uniAD7D" unicode="&#xad7d;" 
d="M180 780h400v-240h-80v160h-320v80zM420 540h80v-80h-80v80zM100 380h560v-80h-240v-80h-80v80h-240v80zM100 220h80v-80h400v80h80v-320h-560v320zM180 60v-80h400v80h-400z" />
    <glyph glyph-name="uniAD7F" unicode="&#xad7f;" 
d="M180 780h400v-240h-80v160h-320v80zM420 540h80v-80h-80v80zM100 380h560v-80h-240v-80h-80v80h-240v80zM420 220h80v-80h-80v80zM340 140h80v-80h-80v80zM260 60h80v-80h-80v80zM420 60h80v-80h-80v80zM180 -20h80v-80h-80v80zM500 -20h80v-80h-80v80z" />
    <glyph glyph-name="uniAD81" unicode="&#xad81;" 
d="M180 780h400v-240h-80v160h-320v80zM420 540h80v-80h-80v80zM100 380h560v-80h-240v-80h80v-80h-240v80h80v80h-240v80zM180 140h80v-160h-80v160zM500 140h80v-160h-80v160zM260 -20h240v-80h-240v80z" />
    <glyph glyph-name="uniAD82" unicode="&#xad82;" 
d="M180 780h400v-160h-80v80h-320v80zM420 620h80v-80h-80v80zM100 460h560v-80h-240v-80h-80v80h-240v80zM100 220h560v-80h-160v-80h-80v80h-80v-80h-80v80h-160v80zM180 60h80v-80h-80v80zM500 60h80v-80h-80v80zM100 -20h80v-80h-80v80zM580 -20h80v-80h-80v80z" />
    <glyph glyph-name="uniAD88" unicode="&#xad88;" 
d="M580 780h80v-880h-80v400h-80v80h80v400zM100 700h320v-240h-80v160h-240v80zM260 460h80v-80h-80v80zM180 380h80v-80h-80v80zM100 220h320v-80h-80v-240h-80v240h-160v80z" />
    <glyph glyph-name="uniAD89" unicode="&#xad89;" 
d="M100 780h320v-160h-80v80h-240v80zM580 780h80v-480h-80v160h-80v80h80v240zM260 620h80v-80h-80v80zM100 460h320v-80h-80v-80h-80v80h-160v80zM100 220h560v-320h-80v240h-480v80z" />
    <glyph glyph-name="uniAD8C" unicode="&#xad8c;" 
d="M100 780h320v-160h-80v80h-240v80zM580 780h80v-560h-80v240h-80v80h80v240zM260 620h80v-80h-80v80zM100 460h320v-80h-80v-160h-80v160h-160v80zM100 220h80v-240h480v-80h-560v320z" />
    <glyph glyph-name="uniAD90" unicode="&#xad90;" 
d="M100 780h320v-160h-80v80h-240v80zM580 780h80v-480h-80v160h-80v80h80v240zM260 620h80v-80h-80v80zM100 460h320v-80h-80v-80h240v-240h-320v-80h320v-80h-400v240h320v80h-320v80h80v80h-160v80z" />
    <glyph glyph-name="uniAD9C" unicode="&#xad9c;" 
d="M100 780h320v-160h-80v80h-240v80zM580 780h80v-480h-80v160h-80v80h80v240zM260 620h80v-80h-80v80zM100 460h320v-80h-80v-80h-80v80h-160v80zM180 220h80v-160h-80v160zM500 220h80v-160h-80v160zM100 60h80v-160h-80v160zM260 60h80v-160h-80v160zM420 60h80v-160
h-80v160zM580 60h80v-160h-80v160z" />
    <glyph glyph-name="uniAD9D" unicode="&#xad9d;" 
d="M100 780h320v-160h-80v80h-240v80zM580 780h80v-560h-80v240h-80v80h80v240zM260 620h80v-80h-80v80zM100 460h320v-80h-80v-80h-80v80h-160v80zM260 220h240v-80h-240v80zM180 140h80v-160h-80v160zM500 140h80v-160h-80v160zM260 -20h240v-80h-240v80z" />
    <glyph glyph-name="uniADA4" unicode="&#xada4;" 
d="M420 780h80v-880h-80v400h-80v80h80v400zM580 780h80v-880h-80v880zM100 700h240v-240h-80v160h-160v80zM180 460h80v-160h-80v160zM100 220h240v-80h-80v-240h-80v240h-80v80z" />
    <glyph glyph-name="uniADB7" unicode="&#xadb7;" 
d="M100 780h240v-160h-80v80h-160v80zM420 780h80v-480h-80v160h-80v80h80v240zM580 780h80v-480h-80v480zM180 620h80v-80h-80v80zM100 460h240v-80h-80v-80h-80v80h-80v80zM420 220h80v-80h-80v80zM340 140h80v-80h-80v80zM260 60h80v-80h-80v80zM420 60h80v-80h-80v80z
M180 -20h80v-80h-80v80zM500 -20h80v-80h-80v80z" />
    <glyph glyph-name="uniADC0" unicode="&#xadc0;" 
d="M580 780h80v-880h-80v880zM100 700h400v-240h-80v160h-320v80zM340 460h80v-80h-80v80zM260 380h80v-80h-80v80zM100 220h400v-80h-160v-240h-80v240h-160v80z" />
    <glyph glyph-name="uniADC1" unicode="&#xadc1;" 
d="M100 780h400v-160h-80v80h-320v80zM580 780h80v-480h-80v480zM340 620h80v-80h-80v80zM100 460h400v-80h-160v-80h-80v80h-160v80zM100 220h560v-320h-80v240h-480v80z" />
    <glyph glyph-name="uniADC4" unicode="&#xadc4;" 
d="M100 780h400v-160h-80v80h-320v80zM580 780h80v-560h-80v560zM340 620h80v-80h-80v80zM100 460h400v-80h-160v-80h-80v80h-160v80zM100 220h80v-240h480v-80h-560v320z" />
    <glyph glyph-name="uniADC8" unicode="&#xadc8;" 
d="M100 780h400v-160h-80v80h-320v80zM580 780h80v-480h-80v480zM340 620h80v-80h-80v80zM260 540h80v-80h160v-80h-160v-80h240v-240h-320v-80h320v-80h-400v240h320v80h-320v80h80v80h-160v80h160v80z" />
    <glyph glyph-name="uniADD0" unicode="&#xadd0;" 
d="M100 780h400v-160h-80v80h-320v80zM580 780h80v-480h-80v480zM340 620h80v-80h-80v80zM100 460h400v-80h-160v-80h-80v80h-160v80zM100 220h560v-320h-560v320zM180 140v-160h400v160h-400z" />
    <glyph glyph-name="uniADD1" unicode="&#xadd1;" 
d="M100 780h400v-160h-80v80h-320v80zM580 780h80v-480h-80v480zM340 620h80v-80h-80v80zM100 460h400v-80h-160v-80h-80v80h-160v80zM100 220h80v-80h400v80h80v-320h-560v320zM180 60v-80h400v80h-400z" />
    <glyph glyph-name="uniADD3" unicode="&#xadd3;" 
d="M100 780h400v-160h-80v80h-320v80zM580 780h80v-480h-80v480zM340 620h80v-80h-80v80zM100 460h400v-80h-160v-80h-80v80h-160v80zM420 220h80v-80h-80v80zM340 140h80v-80h-80v80zM260 60h80v-80h-80v80zM420 60h80v-80h-80v80zM180 -20h80v-80h-80v80zM500 -20h80v-80
h-80v80z" />
    <glyph glyph-name="uniADDC" unicode="&#xaddc;" 
d="M180 620h400v-240h-80v160h-320v80zM420 380h80v-80h-80v80zM340 300h80v-80h-80v80zM100 140h560v-80h-160v-160h-80v160h-80v-160h-80v160h-160v80z" />
    <glyph glyph-name="uniADE0" unicode="&#xade0;" 
d="M180 780h400v-240h-80v160h-320v80zM420 540h80v-80h-80v80zM100 380h560v-80h-160v-80h-80v80h-80v-80h-80v80h-160v80zM100 220h80v-240h480v-80h-560v320z" />
    <glyph glyph-name="uniADE4" unicode="&#xade4;" 
d="M180 780h400v-160h-80v80h-320v80zM420 620h80v-80h-80v80zM100 460h560v-80h-160v-80h80v-240h-320v-80h320v-80h-400v240h320v80h-320v80h80v80h-160v80zM340 380v-80h80v80h-80z" />
    <glyph glyph-name="uniADF8" unicode="&#xadf8;" 
d="M180 620h400v-240h-80v160h-320v80zM420 380h80v-80h-80v80zM340 300h80v-80h-80v80zM100 -20h560v-80h-560v80z" />
    <glyph glyph-name="uniADF9" unicode="&#xadf9;" 
d="M180 780h400v-240h-80v160h-320v80zM420 540h80v-80h-80v80zM100 380h560v-80h-560v80zM100 220h560v-320h-80v240h-480v80z" />
    <glyph glyph-name="uniADFC" unicode="&#xadfc;" 
d="M180 780h400v-240h-80v160h-320v80zM420 540h80v-80h-80v80zM100 380h560v-80h-560v80zM100 220h80v-240h480v-80h-560v320z" />
    <glyph glyph-name="uniADFF" unicode="&#xadff;" 
d="M180 780h400v-240h-80v160h-320v80zM420 540h80v-80h-80v80zM100 380h560v-80h-560v80zM100 220h560v-80h-400v-160h400v-80h-480v240h-80v80z" />
    <glyph glyph-name="uniAE00" unicode="&#xae00;" 
d="M180 780h400v-160h-80v80h-320v80zM420 620h80v-80h-80v80zM100 460h560v-80h-560v80zM180 300h400v-240h-320v-80h320v-80h-400v240h320v80h-320v80z" />
    <glyph glyph-name="uniAE01" unicode="&#xae01;" 
d="M180 780h400v-160h-80v80h-320v80zM420 620h80v-80h-80v80zM100 460h560v-80h-560v80zM100 300h240v-240h-160v-80h160v-80h-240v240h160v80h-160v80zM420 300h240v-400h-80v320h-160v80z" />
    <glyph glyph-name="uniAE08" unicode="&#xae08;" 
d="M180 780h400v-240h-80v160h-320v80zM420 540h80v-80h-80v80zM100 380h560v-80h-560v80zM100 220h560v-320h-560v320zM180 140v-160h400v160h-400z" />
    <glyph glyph-name="uniAE09" unicode="&#xae09;" 
d="M180 780h400v-240h-80v160h-320v80zM420 540h80v-80h-80v80zM100 380h560v-80h-560v80zM100 220h80v-80h400v80h80v-320h-560v320zM180 60v-80h400v80h-400z" />
    <glyph glyph-name="uniAE0B" unicode="&#xae0b;" 
d="M180 780h400v-240h-80v160h-320v80zM420 540h80v-80h-80v80zM100 380h560v-80h-560v80zM420 220h80v-80h-80v80zM340 140h80v-80h-80v80zM260 60h80v-80h-80v80zM420 60h80v-80h-80v80zM180 -20h80v-80h-80v80zM500 -20h80v-80h-80v80z" />
    <glyph glyph-name="uniAE0D" unicode="&#xae0d;" 
d="M180 780h400v-240h-80v160h-320v80zM420 540h80v-80h-80v80zM100 380h560v-80h-560v80zM260 220h240v-80h-240v80zM180 140h80v-160h-80v160zM500 140h80v-160h-80v160zM260 -20h240v-80h-240v80z" />
    <glyph glyph-name="uniAE14" unicode="&#xae14;" 
d="M580 780h80v-880h-80v880zM100 540h400v-240h-80v160h-320v80zM340 300h80v-80h-80v80zM260 220h80v-80h-80v80zM100 60h400v-80h-400v80z" />
    <glyph glyph-name="uniAE30" unicode="&#xae30;" 
d="M580 780h80v-880h-80v880zM100 620h400v-320h-80v240h-320v80zM340 300h80v-160h-80v160zM260 140h80v-160h-80v160z" />
    <glyph glyph-name="uniAE31" unicode="&#xae31;" 
d="M580 780h80v-480h-80v480zM100 700h400v-240h-80v160h-320v80zM340 460h80v-80h-80v80zM260 380h80v-80h-80v80zM100 220h560v-320h-80v240h-480v80z" />
    <glyph glyph-name="uniAE34" unicode="&#xae34;" 
d="M580 780h80v-560h-80v560zM100 700h400v-240h-80v160h-320v80zM340 460h80v-80h-80v80zM260 380h80v-80h-80v80zM100 220h80v-240h480v-80h-560v320z" />
    <glyph glyph-name="uniAE37" unicode="&#xae37;" 
d="M580 780h80v-480h-80v480zM100 700h400v-240h-80v160h-320v80zM340 460h80v-80h-80v80zM260 380h80v-80h-80v80zM100 220h560v-80h-400v-160h400v-80h-480v240h-80v80z" />
    <glyph glyph-name="uniAE38" unicode="&#xae38;" 
d="M580 780h80v-400h-80v400zM100 700h400v-160h-80v80h-320v80zM340 540h80v-80h-80v80zM260 460h80v-80h-80v80zM180 300h400v-240h-320v-80h320v-80h-400v240h320v80h-320v80z" />
    <glyph glyph-name="uniAE3A" unicode="&#xae3a;" 
d="M580 780h80v-400h-80v400zM100 700h400v-160h-80v80h-320v80zM340 540h80v-80h-80v80zM260 460h80v-80h-80v80zM100 300h240v-240h-160v-80h160v-80h-240v240h160v80h-160v80zM420 300h240v-400h-240v400zM500 220v-240h80v240h-80z" />
    <glyph glyph-name="uniAE40" unicode="&#xae40;" 
d="M580 780h80v-480h-80v480zM100 700h400v-240h-80v160h-320v80zM340 460h80v-80h-80v80zM260 380h80v-80h-80v80zM100 220h560v-320h-560v320zM180 140v-160h400v160h-400z" />
    <glyph glyph-name="uniAE41" unicode="&#xae41;" 
d="M580 780h80v-480h-80v480zM100 700h400v-240h-80v160h-320v80zM340 460h80v-80h-80v80zM260 380h80v-80h-80v80zM100 220h80v-80h400v80h80v-320h-560v320zM180 60v-80h400v80h-400z" />
    <glyph glyph-name="uniAE43" unicode="&#xae43;" 
d="M580 780h80v-560h-80v560zM100 700h400v-240h-80v160h-320v80zM340 460h80v-80h-80v80zM260 380h80v-80h-80v80zM420 220h80v-80h-80v80zM340 140h80v-80h-80v80zM260 60h80v-80h-80v80zM420 60h80v-80h-80v80zM180 -20h80v-80h-80v80zM500 -20h80v-80h-80v80z" />
    <glyph glyph-name="uniAE45" unicode="&#xae45;" 
d="M580 780h80v-560h-80v560zM100 700h400v-240h-80v160h-320v80zM340 460h80v-80h-80v80zM260 380h80v-80h-80v80zM260 220h240v-80h-240v80zM180 140h80v-160h-80v160zM500 140h80v-160h-80v160zM260 -20h240v-80h-240v80z" />
    <glyph glyph-name="uniAE46" unicode="&#xae46;" 
d="M580 780h80v-480h-80v480zM100 700h400v-240h-80v160h-320v80zM340 460h80v-80h-80v80zM260 380h80v-80h-80v80zM100 220h560v-80h-160v-80h-80v80h-80v-80h-80v80h-160v80zM180 60h80v-80h-80v80zM500 60h80v-80h-80v80zM100 -20h80v-80h-80v80zM580 -20h80v-80h-80v80z
" />
    <glyph glyph-name="uniAE4A" unicode="&#xae4a;" 
d="M580 780h80v-480h-80v480zM100 700h400v-240h-80v160h-320v80zM340 460h80v-80h-80v80zM260 380h80v-80h-80v80zM100 220h560v-80h-80v-160h80v-80h-560v80h80v160h-80v80zM260 140v-160h240v160h-240z" />
    <glyph glyph-name="uniAE4C" unicode="&#xae4c;" 
d="M500 780h80v-400h80v-80h-80v-400h-80v880zM100 700h320v-480h-80v400h-80v-320h-80v320h-80v80zM100 300h80v-320h-80v320zM260 220h80v-240h-80v240z" />
    <glyph glyph-name="uniAE4D" unicode="&#xae4d;" 
d="M100 780h320v-320h-80v240h-80v-160h-80v160h-80v80zM500 780h80v-240h80v-80h-80v-160h-80v480zM100 540h80v-240h-80v240zM260 460h80v-160h-80v160zM100 220h560v-320h-80v240h-480v80z" />
    <glyph glyph-name="uniAE4E" unicode="&#xae4e;" 
d="M100 780h320v-320h-80v240h-80v-160h-80v160h-80v80zM500 780h80v-240h80v-80h-80v-160h-80v480zM100 540h80v-240h-80v240zM260 460h80v-160h-80v160zM100 220h560v-320h-80v240h-160v-160h-80v160h-240v80zM260 -20h80v-80h-80v80z" />
    <glyph glyph-name="uniAE50" unicode="&#xae50;" 
d="M100 780h320v-320h-80v240h-80v-160h-80v160h-80v80zM500 780h80v-240h80v-80h-80v-240h-80v560zM100 540h80v-240h-80v240zM260 460h80v-160h-80v160zM100 220h80v-240h480v-80h-560v320z" />
    <glyph glyph-name="uniAE54" unicode="&#xae54;" 
d="M100 780h320v-320h-80v240h-80v-160h-80v160h-80v80zM500 780h80v-160h80v-80h-80v-160h-80v400zM100 540h80v-160h-80v160zM260 460h80v-80h-80v80zM180 300h400v-240h-320v-80h320v-80h-400v240h320v80h-320v80z" />
    <glyph glyph-name="uniAE56" unicode="&#xae56;" 
d="M100 780h320v-320h-80v240h-80v-160h-80v160h-80v80zM500 780h80v-160h80v-80h-80v-160h-80v400zM100 540h80v-160h-80v160zM260 460h80v-80h-80v80zM100 300h240v-240h-160v-80h160v-80h-240v240h160v80h-160v80zM420 300h240v-400h-240v400zM500 220v-240h80v240h-80z
" />
    <glyph glyph-name="uniAE5C" unicode="&#xae5c;" 
d="M100 780h320v-320h-80v240h-80v-160h-80v160h-80v80zM500 780h80v-240h80v-80h-80v-160h-80v480zM100 540h80v-240h-80v240zM260 460h80v-160h-80v160zM100 220h560v-320h-560v320zM180 140v-160h400v160h-400z" />
    <glyph glyph-name="uniAE5D" unicode="&#xae5d;" 
d="M100 780h320v-320h-80v240h-80v-160h-80v160h-80v80zM500 780h80v-240h80v-80h-80v-160h-80v480zM100 540h80v-240h-80v240zM260 460h80v-160h-80v160zM100 220h80v-80h400v80h80v-320h-560v320zM180 60v-80h400v80h-400z" />
    <glyph glyph-name="uniAE5F" unicode="&#xae5f;" 
d="M100 780h320v-320h-80v240h-80v-160h-80v160h-80v80zM500 780h80v-240h80v-80h-80v-160h-80v480zM100 540h80v-240h-80v240zM260 460h80v-160h-80v160zM420 220h80v-80h-80v80zM340 140h80v-80h-80v80zM260 60h80v-80h-80v80zM420 60h80v-80h-80v80zM180 -20h80v-80h-80
v80zM500 -20h80v-80h-80v80z" />
    <glyph glyph-name="uniAE60" unicode="&#xae60;" 
d="M100 780h320v-320h-80v240h-80v-160h-80v160h-80v80zM500 780h80v-240h80v-80h-80v-160h-80v480zM100 540h80v-240h-80v240zM260 460h80v-160h-80v160zM180 220h80v-160h-80v160zM500 220h80v-160h-80v160zM100 60h80v-160h-80v160zM260 60h80v-160h-80v160zM420 60h80
v-160h-80v160zM580 60h80v-160h-80v160z" />
    <glyph glyph-name="uniAE61" unicode="&#xae61;" 
d="M100 780h320v-320h-80v240h-80v-160h-80v160h-80v80zM500 780h80v-240h80v-80h-80v-160h-80v480zM100 540h80v-240h-80v240zM260 460h80v-160h-80v160zM260 220h240v-80h-240v80zM180 140h80v-160h-80v160zM500 140h80v-160h-80v160zM260 -20h240v-80h-240v80z" />
    <glyph glyph-name="uniAE65" unicode="&#xae65;" 
d="M100 780h320v-320h-80v240h-80v-160h-80v160h-80v80zM500 780h80v-160h80v-80h-80v-160h-80v400zM100 540h80v-160h-80v160zM260 460h80v-80h-80v80zM180 300h400v-80h-320v-80h320v-80h-320v-80h320v-80h-400v400z" />
    <glyph glyph-name="uniAE68" unicode="&#xae68;" 
d="M420 780h80v-400h80v400h80v-880h-80v400h-80v-400h-80v320h-80v400h-80v-320h-80v320h-80v80h320v80zM100 300h80v-320h-80v320zM260 220h80v-240h-80v240z" />
    <glyph glyph-name="uniAE69" unicode="&#xae69;" 
d="M420 780h80v-240h80v240h80v-480h-80v160h-80v-160h-80v80h-80v240h-80v-160h-80v160h-80v80h320v80zM100 460h80v-160h-80v160zM260 380h80v-80h-80v80zM100 220h560v-320h-80v240h-480v80z" />
    <glyph glyph-name="uniAE6C" unicode="&#xae6c;" 
d="M420 780h80v-240h80v240h80v-560h-80v240h-80v-240h-80v160h-80v240h-80v-160h-80v160h-80v80h320v80zM100 460h80v-160h-80v160zM260 380h80v-80h-80v80zM100 220h80v-240h480v-80h-560v320z" />
    <glyph glyph-name="uniAE70" unicode="&#xae70;" 
d="M420 780h80v-240h80v240h80v-480h-80v160h-80v-160h80v-240h-320v-80h320v-80h-400v240h320v80h-320v80h240v160h-80v160h-80v-80h-80v80h-80v80h320v80zM100 540h80v-160h-80v160zM260 460h80v-80h-80v80z" />
    <glyph glyph-name="uniAE78" unicode="&#xae78;" 
d="M420 780h80v-240h80v240h80v-480h-80v160h-80v-160h-80v80h-80v240h-80v-160h-80v160h-80v80h320v80zM100 460h80v-160h-80v160zM260 380h80v-80h-80v80zM100 220h560v-320h-560v320zM180 140v-160h400v160h-400z" />
    <glyph glyph-name="uniAE79" unicode="&#xae79;" 
d="M420 780h80v-240h80v240h80v-480h-80v160h-80v-160h-80v80h-80v240h-80v-160h-80v160h-80v80h320v80zM100 460h80v-160h-80v160zM260 380h80v-80h-80v80zM100 220h80v-80h400v80h80v-320h-560v320zM180 60v-80h400v80h-400z" />
    <glyph glyph-name="uniAE7B" unicode="&#xae7b;" 
d="M420 780h80v-240h80v240h80v-480h-80v160h-80v-160h-80v80h-80v240h-80v-160h-80v160h-80v80h320v80zM100 460h80v-160h-80v160zM260 380h80v-80h-80v80zM420 220h80v-80h-80v80zM340 140h80v-80h-80v80zM260 60h80v-80h-80v80zM420 60h80v-80h-80v80zM180 -20h80v-80
h-80v80zM500 -20h80v-80h-80v80z" />
    <glyph glyph-name="uniAE7C" unicode="&#xae7c;" 
d="M420 780h80v-240h80v240h80v-480h-80v160h-80v-160h-80v80h-80v240h-80v-160h-80v160h-80v80h320v80zM100 460h80v-160h-80v160zM260 380h80v-80h-80v80zM180 220h80v-160h-80v160zM500 220h80v-160h-80v160zM100 60h80v-160h-80v160zM260 60h80v-160h-80v160zM420 60h80
v-160h-80v160zM580 60h80v-160h-80v160z" />
    <glyph glyph-name="uniAE7D" unicode="&#xae7d;" 
d="M420 780h80v-240h80v240h80v-480h-80v160h-80v-160h-80v80h-80v240h-80v-160h-80v160h-80v80h320v80zM100 460h80v-160h-80v160zM260 380h80v-80h-80v80zM260 220h240v-80h-240v80zM180 140h80v-160h-80v160zM500 140h80v-160h-80v160zM260 -20h240v-80h-240v80z" />
    <glyph glyph-name="uniAE84" unicode="&#xae84;" 
d="M500 780h80v-240h80v-80h-80v-240h80v-80h-80v-240h-80v880zM100 700h320v-480h-80v400h-80v-320h-80v320h-80v80zM100 300h80v-320h-80v320zM260 220h80v-240h-80v240z" />
    <glyph glyph-name="uniAE85" unicode="&#xae85;" 
d="M100 780h320v-320h-80v240h-80v-160h-80v160h-80v80zM500 780h80v-160h80v-80h-80v-80h80v-80h-80v-80h-80v480zM100 540h80v-240h-80v240zM260 460h80v-160h-80v160zM100 220h560v-320h-80v240h-480v80z" />
    <glyph glyph-name="uniAE8C" unicode="&#xae8c;" 
d="M100 780h320v-320h-80v240h-80v-160h-80v160h-80v80zM500 780h80v-80h80v-80h-80v-80h80v-80h-80v-80h-80v400zM100 540h80v-160h-80v160zM260 460h80v-80h-80v80zM180 300h400v-240h-320v-80h320v-80h-400v240h320v80h-320v80z" />
    <glyph glyph-name="uniAEBC" unicode="&#xaebc;" 
d="M580 780h80v-880h-80v400h-80v80h80v400zM100 700h320v-480h-80v400h-80v-320h-80v320h-80v80zM100 300h80v-320h-80v320zM260 220h80v-240h-80v240z" />
    <glyph glyph-name="uniAEBD" unicode="&#xaebd;" 
d="M100 780h320v-320h-80v240h-80v-160h-80v160h-80v80zM580 780h80v-480h-80v160h-80v80h80v240zM100 540h80v-240h-80v240zM260 460h80v-160h-80v160zM100 220h560v-320h-80v240h-480v80z" />
    <glyph glyph-name="uniAEBE" unicode="&#xaebe;" 
d="M100 780h320v-320h-80v240h-80v-160h-80v160h-80v80zM580 780h80v-480h-80v160h-80v80h80v240zM100 540h80v-240h-80v240zM260 460h80v-160h-80v160zM100 220h560v-320h-80v240h-160v-160h-80v160h-240v80zM260 -20h80v-80h-80v80z" />
    <glyph glyph-name="uniAEC0" unicode="&#xaec0;" 
d="M100 780h320v-320h-80v240h-80v-160h-80v160h-80v80zM580 780h80v-560h-80v240h-80v80h80v240zM100 540h80v-240h-80v240zM260 460h80v-160h-80v160zM100 220h80v-240h480v-80h-560v320z" />
    <glyph glyph-name="uniAEC4" unicode="&#xaec4;" 
d="M100 780h320v-320h-80v240h-80v-160h-80v160h-80v80zM580 780h80v-400h-80v160h-80v80h80v160zM100 540h80v-160h-80v160zM260 460h80v-80h-80v80zM180 300h400v-240h-320v-80h320v-80h-400v240h320v80h-320v80z" />
    <glyph glyph-name="uniAECC" unicode="&#xaecc;" 
d="M100 780h320v-320h-80v240h-80v-160h-80v160h-80v80zM580 780h80v-480h-80v160h-80v80h80v240zM100 540h80v-240h-80v240zM260 460h80v-160h-80v160zM100 220h560v-320h-560v320zM180 140v-160h400v160h-400z" />
    <glyph glyph-name="uniAECD" unicode="&#xaecd;" 
d="M100 780h320v-320h-80v240h-80v-160h-80v160h-80v80zM580 780h80v-480h-80v160h-80v80h80v240zM100 540h80v-240h-80v240zM260 460h80v-160h-80v160zM100 220h80v-80h400v80h80v-320h-560v320zM180 60v-80h400v80h-400z" />
    <glyph glyph-name="uniAECF" unicode="&#xaecf;" 
d="M100 780h320v-320h-80v240h-80v-160h-80v160h-80v80zM580 780h80v-560h-80v240h-80v80h80v240zM100 540h80v-320h-80v320zM260 460h80v-240h-80v240zM420 220h80v-80h-80v80zM340 140h80v-80h-80v80zM260 60h80v-80h-80v80zM420 60h80v-80h-80v80zM180 -20h80v-80h-80v80
zM500 -20h80v-80h-80v80z" />
    <glyph glyph-name="uniAED0" unicode="&#xaed0;" 
d="M100 780h320v-320h-80v240h-80v-160h-80v160h-80v80zM580 780h80v-480h-80v160h-80v80h80v240zM100 540h80v-240h-80v240zM260 460h80v-160h-80v160zM180 220h80v-160h-80v160zM500 220h80v-160h-80v160zM100 60h80v-160h-80v160zM260 60h80v-160h-80v160zM420 60h80
v-160h-80v160zM580 60h80v-160h-80v160z" />
    <glyph glyph-name="uniAED1" unicode="&#xaed1;" 
d="M100 780h320v-320h-80v240h-80v-160h-80v160h-80v80zM580 780h80v-480h-80v160h-80v80h80v240zM100 540h80v-240h-80v240zM260 460h80v-160h-80v160zM260 220h240v-80h-240v80zM180 140h80v-160h-80v160zM500 140h80v-160h-80v160zM260 -20h240v-80h-240v80z" />
    <glyph glyph-name="uniAED8" unicode="&#xaed8;" 
d="M580 780h80v-880h-80v160h-80v240h-80v-80h-80v400h-80v-320h-80v320h-80v80h320v-320h80v240h80v160zM100 300h80v-320h-80v320zM260 220h80v-240h-80v240z" />
    <glyph glyph-name="uniAED9" unicode="&#xaed9;" 
d="M100 780h320v-160h80v80h80v80h80v-480h-80v80h-80v160h-80v-160h-80v320h-80v-160h-80v160h-80v80zM100 540h80v-240h-80v240zM260 380h80v-80h-80v80zM100 220h560v-320h-80v240h-480v80z" />
    <glyph glyph-name="uniAEDC" unicode="&#xaedc;" 
d="M100 780h320v-160h80v80h80v80h80v-480h-80v80h-80v160h-80v-160h-80v320h-80v-160h-80v160h-80v80zM100 540h80v-240h-80v240zM260 380h80v-80h-80v80zM100 220h80v-240h480v-80h-560v320z" />
    <glyph glyph-name="uniAEE8" unicode="&#xaee8;" 
d="M100 780h320v-160h80v80h80v80h80v-480h-80v80h-80v160h-80v-160h-80v320h-80v-160h-80v160h-80v80zM100 540h80v-240h-80v240zM260 380h80v-80h-80v80zM100 220h560v-320h-560v320zM180 140v-160h400v160h-400z" />
    <glyph glyph-name="uniAEEB" unicode="&#xaeeb;" 
d="M100 780h320v-160h80v80h80v80h80v-480h-80v80h-80v160h-80v-160h-80v320h-80v-160h-80v160h-80v80zM100 540h80v-240h-80v240zM260 380h80v-80h-80v80zM420 220h80v-80h-80v80zM340 140h80v-80h-80v80zM260 60h80v-80h-80v80zM420 60h80v-80h-80v80zM180 -20h80v-80h-80
v80zM500 -20h80v-80h-80v80z" />
    <glyph glyph-name="uniAEED" unicode="&#xaeed;" 
d="M100 780h320v-160h80v80h80v80h80v-480h-80v80h-80v160h-80v-160h-80v320h-80v-160h-80v160h-80v80zM100 540h80v-240h-80v240zM260 380h80v-80h-80v80zM260 220h240v-80h-240v80zM180 140h80v-160h-80v160zM500 140h80v-160h-80v160zM260 -20h240v-80h-240v80z" />
    <glyph glyph-name="uniAEF4" unicode="&#xaef4;" 
d="M580 780h80v-880h-80v240h-80v80h80v240h-80v80h80v240zM100 700h320v-480h-80v400h-80v-320h-80v320h-80v80zM100 300h80v-320h-80v320zM260 220h80v-240h-80v240z" />
    <glyph glyph-name="uniAEF8" unicode="&#xaef8;" 
d="M100 780h320v-320h-80v240h-80v-160h-80v160h-80v80zM580 780h80v-560h-80v160h-80v80h80v80h-80v80h80v160zM100 540h80v-240h-80v240zM260 460h80v-160h-80v160zM100 220h80v-240h480v-80h-560v320z" />
    <glyph glyph-name="uniAEFC" unicode="&#xaefc;" 
d="M100 780h320v-320h-80v240h-80v-160h-80v160h-80v80zM580 780h80v-400h-80v80h-80v80h80v80h-80v80h80v80zM100 540h80v-160h-80v160zM260 460h80v-80h-80v80zM180 300h400v-240h-320v-80h320v-80h-400v240h320v80h-320v80z" />
    <glyph glyph-name="uniAF07" unicode="&#xaf07;" 
d="M100 780h320v-320h-80v240h-80v-160h-80v160h-80v80zM580 780h80v-480h-80v80h-80v80h80v80h-80v80h80v160zM100 540h80v-240h-80v240zM260 460h80v-160h-80v160zM420 220h80v-80h-80v80zM340 140h80v-80h-80v80zM260 60h80v-80h-80v80zM420 60h80v-80h-80v80zM180 -20
h80v-80h-80v80zM500 -20h80v-80h-80v80z" />
    <glyph glyph-name="uniAF08" unicode="&#xaf08;" 
d="M100 780h320v-320h-80v240h-80v-160h-80v160h-80v80zM580 780h80v-480h-80v80h-80v80h80v80h-80v80h80v160zM100 540h80v-240h-80v240zM260 460h80v-160h-80v160zM180 220h80v-160h-80v160zM500 220h80v-160h-80v160zM100 60h80v-160h-80v160zM260 60h80v-160h-80v160z
M420 60h80v-160h-80v160zM580 60h80v-160h-80v160z" />
    <glyph glyph-name="uniAF0D" unicode="&#xaf0d;" 
d="M100 780h320v-320h-80v240h-80v-160h-80v160h-80v80zM580 780h80v-400h-80v80h-80v80h80v80h-80v80h80v80zM100 540h80v-160h-80v160zM260 460h80v-80h-80v80zM180 300h400v-80h-320v-80h320v-80h-320v-80h320v-80h-400v400z" />
    <glyph glyph-name="uniAF10" unicode="&#xaf10;" 
d="M580 780h80v-880h-80v160h-80v80h-80v80h80v240h-80v-160h-80v320h-80v-240h-80v240h-80v80h320v-160h80v80h80v160zM100 380h80v-400h-80v400zM260 300h80v-320h-80v320z" />
    <glyph glyph-name="uniAF2C" unicode="&#xaf2c;" 
d="M100 620h240v-240h-80v160h-160v80zM420 620h240v-240h-80v160h-160v80zM180 380h80v-80h-80v80zM500 380h80v-80h-80v80zM340 220h80v-240h240v-80h-560v80h240v240z" />
    <glyph glyph-name="uniAF2D" unicode="&#xaf2d;" 
d="M100 780h240v-240h-80v160h-160v80zM420 780h240v-240h-80v160h-160v80zM180 540h80v-80h-80v80zM500 540h80v-80h-80v80zM340 460h80v-80h240v-80h-560v80h240v80zM100 220h560v-320h-80v240h-480v80z" />
    <glyph glyph-name="uniAF30" unicode="&#xaf30;" 
d="M100 780h240v-240h-80v160h-160v80zM420 780h240v-240h-80v160h-160v80zM180 540h80v-80h-80v80zM500 540h80v-80h-80v80zM340 460h80v-80h240v-80h-560v80h240v80zM100 220h80v-240h480v-80h-560v320z" />
    <glyph glyph-name="uniAF32" unicode="&#xaf32;" 
d="M100 780h240v-160h-80v80h-160v80zM420 780h240v-160h-80v80h-160v80zM180 620h80v-80h-80v80zM500 620h80v-80h-80v80zM340 540h80v-80h240v-80h-560v80h240v80zM100 300h80v-320h160v-80h-240v400zM420 300h160v-80h80v-80h-80v-80h-160v80h-80v80h80v80zM340 60h80
v-80h-80v80zM580 60h80v-80h-80v80zM420 -20h160v-80h-160v80z" />
    <glyph glyph-name="uniAF34" unicode="&#xaf34;" 
d="M100 780h240v-160h-80v80h-160v80zM420 780h240v-160h-80v80h-160v80zM180 620h80v-80h-80v80zM500 620h80v-80h-80v80zM340 540h80v-80h240v-80h-560v80h240v80zM180 300h400v-240h-320v-80h320v-80h-400v240h320v80h-320v80z" />
    <glyph glyph-name="uniAF3C" unicode="&#xaf3c;" 
d="M100 780h240v-240h-80v160h-160v80zM420 780h240v-240h-80v160h-160v80zM180 540h80v-80h-80v80zM500 540h80v-80h-80v80zM340 460h80v-80h240v-80h-560v80h240v80zM100 220h560v-320h-560v320zM180 140v-160h400v160h-400z" />
    <glyph glyph-name="uniAF3D" unicode="&#xaf3d;" 
d="M100 780h240v-240h-80v160h-160v80zM420 780h240v-240h-80v160h-160v80zM180 540h80v-80h-80v80zM500 540h80v-80h-80v80zM340 460h80v-80h240v-80h-560v80h240v80zM100 220h80v-80h400v80h80v-320h-560v320zM180 60v-80h400v80h-400z" />
    <glyph glyph-name="uniAF3F" unicode="&#xaf3f;" 
d="M100 780h240v-240h-80v160h-160v80zM420 780h240v-240h-80v160h-160v80zM180 540h80v-80h-80v80zM500 540h80v-80h-80v80zM340 460h80v-80h240v-80h-560v80h240v80zM420 220h80v-80h-80v80zM340 140h80v-80h-80v80zM260 60h80v-80h-80v80zM420 60h80v-80h-80v80zM180 -20
h80v-80h-80v80zM500 -20h80v-80h-80v80z" />
    <glyph glyph-name="uniAF41" unicode="&#xaf41;" 
d="M100 780h240v-240h-80v160h-160v80zM420 780h240v-240h-80v160h-160v80zM180 540h80v-80h-80v80zM500 540h80v-80h-80v80zM340 460h80v-80h240v-80h-560v80h240v80zM260 220h240v-80h-240v80zM180 140h80v-160h-80v160zM500 140h80v-160h-80v160zM260 -20h240v-80h-240
v80z" />
    <glyph glyph-name="uniAF42" unicode="&#xaf42;" 
d="M100 780h240v-240h-80v160h-160v80zM420 780h240v-240h-80v160h-160v80zM180 540h80v-80h-80v80zM500 540h80v-80h-80v80zM340 460h80v-80h240v-80h-560v80h240v80zM100 220h560v-80h-160v-80h-80v80h-80v-80h-80v80h-160v80zM180 60h80v-80h-80v80zM500 60h80v-80h-80
v80zM100 -20h80v-80h-80v80zM580 -20h80v-80h-80v80z" />
    <glyph glyph-name="uniAF43" unicode="&#xaf43;" 
d="M100 780h240v-240h-80v160h-160v80zM420 780h240v-240h-80v160h-160v80zM180 540h80v-80h-80v80zM500 540h80v-80h-80v80zM340 460h80v-80h240v-80h-560v80h240v80zM340 220h80v-80h240v-80h-160v-80h-80v80h-80v-80h-80v80h-160v80h240v80zM180 -20h80v-80h-80v80z
M500 -20h80v-80h-80v80z" />
    <glyph glyph-name="uniAF48" unicode="&#xaf48;" 
d="M500 780h80v-400h80v-80h-80v-400h-80v880zM100 700h320v-320h-80v240h-80v-160h-80v160h-80v80zM100 460h80v-160h-80v160zM260 380h80v-80h-80v80zM260 220h80v-240h80v-80h-320v80h160v240z" />
    <glyph glyph-name="uniAF49" unicode="&#xaf49;" 
d="M100 780h320v-240h-80v160h-80v-160h-80v160h-80v80zM500 780h80v-240h80v-80h-80v-160h-80v480zM260 460h80v-80h80v-80h-320v80h160v80zM100 220h560v-320h-80v240h-480v80z" />
    <glyph glyph-name="uniAF50" unicode="&#xaf50;" 
d="M100 780h320v-160h-80v80h-80v-80h-80v80h-80v80zM500 780h80v-160h80v-80h-80v-160h-80v400zM260 540h80v-80h80v-80h-320v80h160v80zM180 300h400v-240h-320v-80h320v-80h-400v240h320v80h-320v80z" />
    <glyph glyph-name="uniAF5C" unicode="&#xaf5c;" 
d="M100 780h320v-240h-80v160h-80v-160h-80v160h-80v80zM500 780h80v-240h80v-80h-80v-160h-80v480zM260 460h80v-80h80v-80h-320v80h160v80zM180 220h80v-160h-80v160zM500 220h80v-160h-80v160zM100 60h80v-160h-80v160zM260 60h80v-160h-80v160zM420 60h80v-160h-80v160z
M580 60h80v-160h-80v160z" />
    <glyph glyph-name="uniAF5D" unicode="&#xaf5d;" 
d="M100 780h320v-240h-80v160h-80v-160h-80v160h-80v80zM500 780h80v-240h80v-80h-80v-160h-80v480zM260 460h80v-80h80v-80h-320v80h160v80zM260 220h240v-80h-240v80zM180 140h80v-160h-80v160zM500 140h80v-160h-80v160zM260 -20h240v-80h-240v80z" />
    <glyph glyph-name="uniAF64" unicode="&#xaf64;" 
d="M420 780h80v-400h80v400h80v-880h-80v400h-80v-400h-80v480h-80v240h-80v-160h-80v160h-80v80h320v80zM100 460h80v-160h-80v160zM260 380h80v-80h-80v80zM180 220h80v-240h80v-80h-240v80h80v240z" />
    <glyph glyph-name="uniAF65" unicode="&#xaf65;" 
d="M420 780h80v-240h80v240h80v-560h-80v240h-80v-240h-80v240h-80v160h-80v-160h-80v160h-80v80h320v80zM180 380h80v-80h80v-80h-240v80h80v80zM100 140h560v-240h-80v160h-480v80z" />
    <glyph glyph-name="uniAF79" unicode="&#xaf79;" 
d="M420 780h80v-240h80v240h80v-560h-80v240h-80v-240h-80v240h-80v160h-80v-160h-80v160h-80v80h320v80zM180 380h80v-80h80v-80h-240v80h80v80zM260 140h240v-80h-240v80zM180 60h80v-80h-80v80zM500 60h80v-80h-80v80zM260 -20h240v-80h-240v80z" />
    <glyph glyph-name="uniAF80" unicode="&#xaf80;" 
d="M580 780h80v-880h-80v880zM100 700h160v-240h-80v160h-80v80zM340 700h160v-240h-80v160h-80v80zM100 460h80v-160h-80v160zM340 460h80v-160h-80v160zM260 220h80v-240h160v-80h-400v80h160v240z" />
    <glyph glyph-name="uniAF84" unicode="&#xaf84;" 
d="M100 780h160v-240h-80v160h-80v80zM340 780h160v-240h-80v160h-80v80zM580 780h80v-560h-80v560zM260 460h80v-80h160v-80h-400v80h160v80zM100 220h80v-240h480v-80h-560v320z" />
    <glyph glyph-name="uniAF88" unicode="&#xaf88;" 
d="M100 780h160v-240h-80v160h-80v80zM340 780h160v-240h-80v160h-80v80zM580 780h80v-400h-80v400zM260 540h80v-80h160v-80h-400v80h160v80zM180 300h400v-240h-320v-80h320v-80h-400v240h320v80h-320v80z" />
    <glyph glyph-name="uniAF90" unicode="&#xaf90;" 
d="M100 780h160v-240h-80v160h-80v80zM340 780h160v-240h-80v160h-80v80zM580 780h80v-480h-80v480zM260 460h80v-80h160v-80h-400v80h160v80zM100 220h560v-320h-560v320zM180 140v-160h400v160h-400z" />
    <glyph glyph-name="uniAF91" unicode="&#xaf91;" 
d="M100 780h160v-240h-80v160h-80v80zM340 780h160v-240h-80v160h-80v80zM580 780h80v-480h-80v480zM260 460h80v-80h160v-80h-400v80h160v80zM100 220h80v-80h400v80h80v-320h-560v320zM180 60v-80h400v80h-400z" />
    <glyph glyph-name="uniAF95" unicode="&#xaf95;" 
d="M100 780h160v-240h-80v160h-80v80zM340 780h160v-240h-80v160h-80v80zM580 780h80v-480h-80v480zM260 460h80v-80h160v-80h-400v80h160v80zM260 220h240v-80h-240v80zM180 140h80v-160h-80v160zM500 140h80v-160h-80v160zM260 -20h240v-80h-240v80z" />
    <glyph glyph-name="uniAF9C" unicode="&#xaf9c;" 
d="M100 620h240v-240h-80v160h-160v80zM420 620h240v-240h-80v160h-160v80zM180 380h80v-80h-80v80zM500 380h80v-80h-80v80zM260 220h80v-240h80v240h80v-240h160v-80h-560v80h160v240z" />
    <glyph glyph-name="uniAFB8" unicode="&#xafb8;" 
d="M100 620h240v-240h-80v160h-160v80zM420 620h240v-240h-80v160h-160v80zM180 380h80v-80h-80v80zM500 380h80v-80h-80v80zM100 220h560v-80h-240v-240h-80v240h-240v80z" />
    <glyph glyph-name="uniAFB9" unicode="&#xafb9;" 
d="M100 780h240v-240h-80v160h-160v80zM420 780h240v-240h-80v160h-160v80zM180 540h80v-80h-80v80zM500 540h80v-80h-80v80zM100 380h560v-80h-240v-80h240v-320h-80v240h-480v80h240v80h-240v80z" />
    <glyph glyph-name="uniAFBC" unicode="&#xafbc;" 
d="M100 780h240v-240h-80v160h-160v80zM420 780h240v-240h-80v160h-160v80zM180 540h80v-80h-80v80zM500 540h80v-80h-80v80zM100 380h560v-80h-240v-80h-80v80h-240v80zM100 220h80v-240h480v-80h-560v320z" />
    <glyph glyph-name="uniAFC0" unicode="&#xafc0;" 
d="M100 780h240v-160h-80v80h-160v80zM420 780h240v-160h-80v80h-160v80zM180 620h80v-80h-80v80zM500 620h80v-80h-80v80zM100 460h560v-80h-240v-80h160v-240h-320v-80h320v-80h-400v240h320v80h-320v80h160v80h-240v80z" />
    <glyph glyph-name="uniAFC7" unicode="&#xafc7;" 
d="M100 780h240v-160h-80v80h-160v80zM420 780h240v-160h-80v80h-160v80zM180 620h80v-80h-80v80zM500 620h80v-80h-80v80zM100 460h560v-80h-240v-80h-80v80h-240v80zM100 300h240v-80h80v80h160v-80h80v-80h-80v-80h-160v80h-80v-80h-160v-80h160v-80h-240v240h160v80
h-160v80zM340 60h80v-80h-80v80zM580 60h80v-80h-80v80zM420 -20h160v-80h-160v80z" />
    <glyph glyph-name="uniAFC8" unicode="&#xafc8;" 
d="M100 780h240v-240h-80v160h-160v80zM420 780h240v-240h-80v160h-160v80zM180 540h80v-80h-80v80zM500 540h80v-80h-80v80zM100 380h560v-80h-240v-80h240v-320h-560v320h240v80h-240v80zM180 140v-160h400v160h-400z" />
    <glyph glyph-name="uniAFC9" unicode="&#xafc9;" 
d="M100 780h240v-240h-80v160h-160v80zM420 780h240v-240h-80v160h-160v80zM180 540h80v-80h-80v80zM500 540h80v-80h-80v80zM100 380h560v-80h-240v-80h-80v80h-240v80zM100 220h80v-80h400v80h80v-320h-560v320zM180 60v-80h400v80h-400z" />
    <glyph glyph-name="uniAFCB" unicode="&#xafcb;" 
d="M100 780h240v-240h-80v160h-160v80zM420 780h240v-240h-80v160h-160v80zM180 540h80v-80h-80v80zM500 540h80v-80h-80v80zM100 380h560v-80h-240v-80h-80v80h-240v80zM340 140h80v-80h-80v80zM260 60h80v-80h-80v80zM420 60h80v-80h-80v80zM180 -20h80v-80h-80v80z
M500 -20h80v-80h-80v80z" />
    <glyph glyph-name="uniAFCD" unicode="&#xafcd;" 
d="M100 780h240v-240h-80v160h-160v80zM420 780h240v-240h-80v160h-160v80zM180 540h80v-80h-80v80zM500 540h80v-80h-80v80zM100 380h560v-80h-240v-80h80v-80h-240v80h80v80h-240v80zM180 140h80v-160h-80v160zM500 140h80v-160h-80v160zM260 -20h240v-80h-240v80z" />
    <glyph glyph-name="uniAFCE" unicode="&#xafce;" 
d="M100 780h240v-160h-80v80h-160v80zM420 780h240v-160h-80v80h-160v80zM180 620h80v-80h-80v80zM500 620h80v-80h-80v80zM100 460h560v-80h-240v-80h-80v80h-240v80zM100 220h560v-80h-160v-80h-80v80h-80v-80h-80v80h-160v80zM180 60h80v-80h-80v80zM500 60h80v-80h-80
v80zM100 -20h80v-80h-80v80zM580 -20h80v-80h-80v80z" />
    <glyph glyph-name="uniAFD4" unicode="&#xafd4;" 
d="M580 780h80v-880h-80v400h-80v80h80v400zM100 700h320v-320h-80v240h-80v-160h-80v160h-80v80zM100 460h80v-160h-80v160zM260 380h80v-80h-80v80zM100 220h320v-80h-80v-240h-80v240h-160v80z" />
    <glyph glyph-name="uniAFDC" unicode="&#xafdc;" 
d="M100 780h320v-240h-80v160h-80v-160h-80v160h-80v80zM580 780h80v-480h-80v240h-80v80h80v160zM100 460h320v-80h-80v-80h240v-240h-320v-80h320v-80h-400v240h320v80h-320v80h80v80h-160v80z" />
    <glyph glyph-name="uniAFE8" unicode="&#xafe8;" 
d="M100 780h320v-240h-80v160h-80v-160h-80v160h-80v80zM580 780h80v-480h-80v240h-80v80h80v160zM100 460h320v-80h-80v-80h-80v80h-160v80zM180 220h80v-160h-80v160zM500 220h80v-160h-80v160zM100 60h80v-160h-80v160zM260 60h80v-160h-80v160zM420 60h80v-160h-80v160z
M580 60h80v-160h-80v160z" />
    <glyph glyph-name="uniAFE9" unicode="&#xafe9;" 
d="M100 780h320v-240h-80v160h-80v-160h-80v160h-80v80zM580 780h80v-480h-80v240h-80v80h80v160zM100 460h320v-80h-80v-80h-80v80h-160v80zM260 220h240v-80h-240v80zM180 140h80v-160h-80v160zM500 140h80v-160h-80v160zM260 -20h240v-80h-240v80z" />
    <glyph glyph-name="uniAFF0" unicode="&#xaff0;" 
d="M580 780h80v-880h-80v160h-80v160h-80v80h80v320h80v160zM100 700h320v-320h-80v240h-80v-160h-80v160h-80v80zM100 460h80v-160h-80v160zM260 380h80v-80h-80v80zM100 220h240v-80h-80v-240h-80v240h-80v80z" />
    <glyph glyph-name="uniAFF1" unicode="&#xaff1;" 
d="M100 780h320v-240h-80v160h-80v-160h-80v160h-80v80zM580 780h80v-480h-80v80h-80v80h-80v80h80v160h80v80zM180 460h240v-80h-80v-80h-80v80h-80v80zM100 220h560v-320h-80v240h-480v80z" />
    <glyph glyph-name="uniAFF4" unicode="&#xaff4;" 
d="M100 780h320v-240h-80v160h-80v-160h-80v160h-80v80zM580 780h80v-480h-80v80h-80v80h-80v80h80v160h80v80zM180 460h240v-80h-80v-80h-80v80h-80v80zM100 220h80v-240h480v-80h-560v320z" />
    <glyph glyph-name="uniAFF8" unicode="&#xaff8;" 
d="M100 780h320v-240h-80v160h-80v-160h-80v160h-80v80zM580 780h80v-480h-80v80h-80v80h-80v80h80v160h80v80zM180 460h240v-80h-80v-80h240v-240h-320v-80h320v-80h-400v240h320v80h-320v80h80v80h-80v80z" />
    <glyph glyph-name="uniB000" unicode="&#xb000;" 
d="M100 780h320v-240h-80v160h-80v-160h-80v160h-80v80zM580 780h80v-480h-80v80h-80v80h-80v80h80v160h80v80zM180 460h240v-80h-80v-80h-80v80h-80v80zM100 220h560v-320h-560v320zM180 140v-160h400v160h-400z" />
    <glyph glyph-name="uniB001" unicode="&#xb001;" 
d="M100 780h320v-240h-80v160h-80v-160h-80v160h-80v80zM580 780h80v-480h-80v80h-80v80h-80v80h80v160h80v80zM180 460h240v-80h-80v-80h-80v80h-80v80zM100 220h80v-80h400v80h80v-320h-560v320zM180 60v-80h400v80h-400z" />
    <glyph glyph-name="uniB004" unicode="&#xb004;" 
d="M100 780h320v-240h-80v160h-80v-160h-80v160h-80v80zM580 780h80v-480h-80v80h-80v80h-80v80h80v160h80v80zM180 460h240v-80h-80v-80h-80v80h-80v80zM180 220h80v-160h-80v160zM500 220h80v-160h-80v160zM100 60h80v-160h-80v160zM260 60h80v-160h-80v160zM420 60h80
v-160h-80v160zM580 60h80v-160h-80v160z" />
    <glyph glyph-name="uniB00C" unicode="&#xb00c;" 
d="M580 780h80v-880h-80v880zM100 700h160v-240h-80v160h-80v80zM340 700h160v-240h-80v160h-80v80zM100 460h80v-160h-80v160zM340 460h80v-160h-80v160zM100 220h400v-80h-160v-240h-80v240h-160v80z" />
    <glyph glyph-name="uniB010" unicode="&#xb010;" 
d="M100 780h160v-240h-80v160h-80v80zM340 780h160v-240h-80v160h-80v80zM580 780h80v-480h-80v480zM100 460h400v-80h-160v-80h-80v80h-160v80zM100 220h80v-240h480v-80h-560v320z" />
    <glyph glyph-name="uniB014" unicode="&#xb014;" 
d="M100 780h160v-240h-80v160h-80v80zM340 780h160v-240h-80v160h-80v80zM580 780h80v-480h-80v480zM100 460h400v-80h-160v-80h240v-240h-320v-80h320v-80h-400v240h320v80h-320v80h80v80h-160v80z" />
    <glyph glyph-name="uniB01C" unicode="&#xb01c;" 
d="M100 780h160v-240h-80v160h-80v80zM340 780h160v-240h-80v160h-80v80zM580 780h80v-480h-80v480zM100 460h400v-80h-160v-80h-80v80h-160v80zM100 220h560v-320h-560v320zM180 140v-160h400v160h-400z" />
    <glyph glyph-name="uniB01D" unicode="&#xb01d;" 
d="M100 780h160v-240h-80v160h-80v80zM340 780h160v-240h-80v160h-80v80zM580 780h80v-480h-80v480zM100 460h400v-80h-160v-80h-80v80h-160v80zM100 220h80v-80h400v80h80v-320h-560v320zM180 60v-80h400v80h-400z" />
    <glyph glyph-name="uniB028" unicode="&#xb028;" 
d="M100 620h240v-240h-80v160h-160v80zM420 620h240v-240h-80v160h-160v80zM180 380h80v-80h-80v80zM500 380h80v-80h-80v80zM100 220h560v-80h-160v-240h-80v240h-80v-240h-80v240h-160v80z" />
    <glyph glyph-name="uniB044" unicode="&#xb044;" 
d="M100 620h240v-320h-80v240h-160v80zM420 620h240v-320h-80v240h-160v80zM180 300h80v-160h-80v160zM500 300h80v-160h-80v160zM100 -20h560v-80h-560v80z" />
    <glyph glyph-name="uniB045" unicode="&#xb045;" 
d="M100 780h240v-240h-80v160h-160v80zM420 780h240v-240h-80v160h-160v80zM180 540h80v-80h-80v80zM500 540h80v-80h-80v80zM100 380h560v-80h-560v80zM100 220h560v-320h-80v240h-480v80z" />
    <glyph glyph-name="uniB048" unicode="&#xb048;" 
d="M100 780h240v-240h-80v160h-160v80zM420 780h240v-240h-80v160h-160v80zM180 540h80v-80h-80v80zM500 540h80v-80h-80v80zM100 380h560v-80h-560v80zM100 220h80v-240h480v-80h-560v320z" />
    <glyph glyph-name="uniB04A" unicode="&#xb04a;" 
d="M100 780h240v-160h-80v80h-160v80zM420 780h240v-160h-80v80h-160v80zM180 620h80v-80h-80v80zM500 620h80v-80h-80v80zM100 460h560v-80h-560v80zM100 300h80v-320h160v-80h-240v400zM420 300h160v-80h80v-80h-80v-80h-160v80h-80v80h80v80zM340 60h80v-80h-80v80z
M580 60h80v-80h-80v80zM420 -20h160v-80h-160v80z" />
    <glyph glyph-name="uniB04C" unicode="&#xb04c;" 
d="M100 780h240v-160h-80v80h-160v80zM420 780h240v-160h-80v80h-160v80zM180 620h80v-80h-80v80zM500 620h80v-80h-80v80zM100 460h560v-80h-560v80zM180 300h400v-240h-320v-80h320v-80h-400v240h320v80h-320v80z" />
    <glyph glyph-name="uniB04E" unicode="&#xb04e;" 
d="M100 780h240v-160h-80v80h-160v80zM420 780h240v-160h-80v80h-160v80zM180 620h80v-80h-80v80zM500 620h80v-80h-80v80zM100 460h560v-80h-560v80zM100 300h240v-240h-160v-80h160v-80h-240v240h160v80h-160v80zM420 300h240v-400h-240v400zM500 220v-240h80v240h-80z
" />
    <glyph glyph-name="uniB053" unicode="&#xb053;" 
d="M100 780h240v-160h-80v80h-160v80zM420 780h240v-160h-80v80h-160v80zM180 620h80v-80h-80v80zM500 620h80v-80h-80v80zM100 460h560v-80h-560v80zM100 300h240v-80h80v80h160v-80h80v-80h-80v-80h-160v80h-80v-80h-160v-80h160v-80h-240v240h160v80h-160v80zM340 60h80
v-80h-80v80zM580 60h80v-80h-80v80zM420 -20h160v-80h-160v80z" />
    <glyph glyph-name="uniB054" unicode="&#xb054;" 
d="M100 780h240v-240h-80v160h-160v80zM420 780h240v-240h-80v160h-160v80zM180 540h80v-80h-80v80zM500 540h80v-80h-80v80zM100 380h560v-80h-560v80zM100 220h560v-320h-560v320zM180 140v-160h400v160h-400z" />
    <glyph glyph-name="uniB055" unicode="&#xb055;" 
d="M100 780h240v-240h-80v160h-160v80zM420 780h240v-240h-80v160h-160v80zM180 540h80v-80h-80v80zM500 540h80v-80h-80v80zM100 380h560v-80h-560v80zM100 220h80v-80h400v80h80v-320h-560v320zM180 60v-80h400v80h-400z" />
    <glyph glyph-name="uniB057" unicode="&#xb057;" 
d="M100 780h240v-240h-80v160h-160v80zM420 780h240v-240h-80v160h-160v80zM180 540h80v-80h-80v80zM500 540h80v-80h-80v80zM100 380h560v-80h-560v80zM420 220h80v-80h-80v80zM340 140h80v-80h-80v80zM260 60h80v-80h-80v80zM420 60h80v-80h-80v80zM180 -20h80v-80h-80v80
zM500 -20h80v-80h-80v80z" />
    <glyph glyph-name="uniB059" unicode="&#xb059;" 
d="M100 780h240v-240h-80v160h-160v80zM420 780h240v-240h-80v160h-160v80zM180 540h80v-80h-80v80zM500 540h80v-80h-80v80zM100 380h560v-80h-560v80zM260 220h240v-80h-240v80zM180 140h80v-160h-80v160zM500 140h80v-160h-80v160zM260 -20h240v-80h-240v80z" />
    <glyph glyph-name="uniB05D" unicode="&#xb05d;" 
d="M100 780h240v-160h-80v80h-160v80zM420 780h240v-160h-80v80h-160v80zM180 620h80v-80h-80v80zM500 620h80v-80h-80v80zM100 460h560v-80h-560v80zM180 300h400v-80h-320v-80h320v-80h-320v-80h320v-80h-400v400z" />
    <glyph glyph-name="uniB07C" unicode="&#xb07c;" 
d="M580 780h80v-880h-80v880zM100 700h160v-400h-80v320h-80v80zM340 700h160v-480h-80v400h-80v80zM100 300h80v-320h-80v320zM340 220h80v-240h-80v240z" />
    <glyph glyph-name="uniB07D" unicode="&#xb07d;" 
d="M100 780h160v-240h-80v160h-80v80zM340 780h160v-320h-80v240h-80v80zM580 780h80v-480h-80v480zM100 540h80v-240h-80v240zM340 460h80v-160h-80v160zM100 220h560v-320h-80v240h-480v80z" />
    <glyph glyph-name="uniB080" unicode="&#xb080;" 
d="M100 780h160v-240h-80v160h-80v80zM340 780h160v-320h-80v240h-80v80zM580 780h80v-480h-80v480zM100 540h80v-240h-80v240zM340 460h80v-160h-80v160zM100 220h80v-240h480v-80h-560v320z" />
    <glyph glyph-name="uniB084" unicode="&#xb084;" 
d="M100 780h160v-240h-80v160h-80v80zM340 780h160v-320h-80v240h-80v80zM580 780h80v-400h-80v400zM100 540h80v-160h-80v160zM340 460h80v-80h-80v80zM180 300h400v-240h-320v-80h320v-80h-400v240h320v80h-320v80z" />
    <glyph glyph-name="uniB08C" unicode="&#xb08c;" 
d="M100 780h160v-240h-80v160h-80v80zM340 780h160v-320h-80v240h-80v80zM580 780h80v-480h-80v480zM100 540h80v-240h-80v240zM340 460h80v-160h-80v160zM100 220h560v-320h-560v320zM180 140v-160h400v160h-400z" />
    <glyph glyph-name="uniB08D" unicode="&#xb08d;" 
d="M100 780h160v-240h-80v160h-80v80zM340 780h160v-320h-80v240h-80v80zM580 780h80v-480h-80v480zM100 540h80v-240h-80v240zM340 460h80v-160h-80v160zM100 220h80v-80h400v80h80v-320h-560v320zM180 60v-80h400v80h-400z" />
    <glyph glyph-name="uniB08F" unicode="&#xb08f;" 
d="M100 780h160v-240h-80v160h-80v80zM340 780h160v-320h-80v240h-80v80zM580 780h80v-480h-80v480zM100 540h80v-240h-80v240zM340 460h80v-160h-80v160zM420 220h80v-80h-80v80zM340 140h80v-80h-80v80zM260 60h80v-80h-80v80zM420 60h80v-80h-80v80zM180 -20h80v-80h-80
v80zM500 -20h80v-80h-80v80z" />
    <glyph glyph-name="uniB091" unicode="&#xb091;" 
d="M100 780h160v-240h-80v160h-80v80zM340 780h160v-320h-80v240h-80v80zM580 780h80v-480h-80v480zM100 540h80v-240h-80v240zM340 460h80v-160h-80v160zM260 220h240v-80h-240v80zM180 140h80v-160h-80v160zM500 140h80v-160h-80v160zM260 -20h240v-80h-240v80z" />
    <glyph glyph-name="uniB098" unicode="&#xb098;" 
d="M500 780h80v-400h80v-80h-80v-400h-80v880zM100 700h80v-560h240v-80h-320v640z" />
    <glyph glyph-name="uniB099" unicode="&#xb099;" 
d="M500 780h80v-240h80v-80h-80v-160h-80v480zM100 700h80v-320h240v-80h-320v400zM100 220h560v-320h-80v240h-480v80z" />
    <glyph glyph-name="uniB09A" unicode="&#xb09a;" 
d="M500 780h80v-240h80v-80h-80v-160h-80v480zM100 700h80v-320h240v-80h-320v400zM100 220h560v-320h-80v240h-160v-160h-80v160h-240v80zM260 -20h80v-80h-80v80z" />
    <glyph glyph-name="uniB09C" unicode="&#xb09c;" 
d="M500 780h80v-240h80v-80h-80v-240h-80v560zM100 700h80v-320h240v-80h-320v400zM100 220h80v-240h480v-80h-560v320z" />
    <glyph glyph-name="uniB09F" unicode="&#xb09f;" 
d="M500 780h80v-240h80v-80h-80v-160h-80v480zM100 700h80v-320h240v-80h-320v400zM100 220h560v-80h-400v-160h400v-80h-480v240h-80v80z" />
    <glyph glyph-name="uniB0A0" unicode="&#xb0a0;" 
d="M500 780h80v-160h80v-80h-80v-160h-80v400zM100 700h80v-240h240v-80h-320v320zM180 300h400v-240h-320v-80h320v-80h-400v240h320v80h-320v80z" />
    <glyph glyph-name="uniB0A1" unicode="&#xb0a1;" 
d="M500 780h80v-160h80v-80h-80v-160h-80v400zM100 700h80v-240h240v-80h-320v320zM100 300h240v-240h-160v-80h160v-80h-240v240h160v80h-160v80zM420 300h240v-400h-80v320h-160v80z" />
    <glyph glyph-name="uniB0A2" unicode="&#xb0a2;" 
d="M500 780h80v-160h80v-80h-80v-160h-80v400zM100 700h80v-240h240v-80h-320v320zM100 300h240v-240h-160v-80h160v-80h-240v240h160v80h-160v80zM420 300h240v-400h-240v400zM500 220v-240h80v240h-80z" />
    <glyph glyph-name="uniB0A8" unicode="&#xb0a8;" 
d="M500 780h80v-240h80v-80h-80v-160h-80v480zM100 700h80v-320h240v-80h-320v400zM100 220h560v-320h-560v320zM180 140v-160h400v160h-400z" />
    <glyph glyph-name="uniB0A9" unicode="&#xb0a9;" 
d="M500 780h80v-240h80v-80h-80v-160h-80v480zM100 700h80v-320h240v-80h-320v400zM100 220h80v-80h400v80h80v-320h-560v320zM180 60v-80h400v80h-400z" />
    <glyph glyph-name="uniB0AB" unicode="&#xb0ab;" 
d="M500 780h80v-240h80v-80h-80v-160h-80v480zM100 700h80v-320h240v-80h-320v400zM420 220h80v-80h-80v80zM340 140h80v-80h-80v80zM260 60h80v-80h-80v80zM420 60h80v-80h-80v80zM180 -20h80v-80h-80v80zM500 -20h80v-80h-80v80z" />
    <glyph glyph-name="uniB0AC" unicode="&#xb0ac;" 
d="M500 780h80v-240h80v-80h-80v-160h-80v480zM100 700h80v-320h240v-80h-320v400zM180 220h80v-160h-80v160zM500 220h80v-160h-80v160zM100 60h80v-160h-80v160zM260 60h80v-160h-80v160zM420 60h80v-160h-80v160zM580 60h80v-160h-80v160z" />
    <glyph glyph-name="uniB0AD" unicode="&#xb0ad;" 
d="M500 780h80v-240h80v-80h-80v-160h-80v480zM100 700h80v-320h240v-80h-320v400zM260 220h240v-80h-240v80zM180 140h80v-160h-80v160zM500 140h80v-160h-80v160zM260 -20h240v-80h-240v80z" />
    <glyph glyph-name="uniB0AE" unicode="&#xb0ae;" 
d="M500 780h80v-240h80v-80h-80v-160h-80v480zM100 700h80v-320h240v-80h-320v400zM100 220h560v-80h-160v-80h-80v80h-80v-80h-80v80h-160v80zM180 60h80v-80h-80v80zM500 60h80v-80h-80v80zM100 -20h80v-80h-80v80zM580 -20h80v-80h-80v80z" />
    <glyph glyph-name="uniB0AF" unicode="&#xb0af;" 
d="M500 780h80v-240h80v-80h-80v-160h-80v480zM100 700h80v-320h240v-80h-320v400zM340 220h80v-80h240v-80h-160v-80h-80v80h-80v-80h-80v80h-160v80h240v80zM180 -20h80v-80h-80v80zM500 -20h80v-80h-80v80z" />
    <glyph glyph-name="uniB0B1" unicode="&#xb0b1;" 
d="M500 780h80v-160h80v-80h-80v-160h-80v400zM100 700h80v-240h240v-80h-320v320zM180 300h400v-80h-320v-80h320v-80h-320v-80h320v-80h-400v400z" />
    <glyph glyph-name="uniB0B3" unicode="&#xb0b3;" 
d="M500 780h80v-160h80v-80h-80v-160h-80v400zM100 700h80v-240h240v-80h-320v320zM340 300h80v-80h240v-80h-160v-80h-240v80h-160v80h240v80zM180 60h80v-80h-80v80zM500 60h80v-80h-80v80zM260 -20h240v-80h-240v80z" />
    <glyph glyph-name="uniB0B4" unicode="&#xb0b4;" 
d="M420 780h80v-400h80v400h80v-880h-80v400h-80v-400h-80v880zM100 700h80v-560h160v-80h-240v640z" />
    <glyph glyph-name="uniB0B5" unicode="&#xb0b5;" 
d="M420 780h80v-240h80v240h80v-480h-80v160h-80v-160h-80v480zM100 700h80v-320h160v-80h-240v400zM100 220h560v-320h-80v240h-480v80z" />
    <glyph glyph-name="uniB0B8" unicode="&#xb0b8;" 
d="M420 780h80v-240h80v240h80v-560h-80v240h-80v-240h-80v560zM100 700h80v-320h160v-80h-240v400zM100 220h80v-240h480v-80h-560v320z" />
    <glyph glyph-name="uniB0BC" unicode="&#xb0bc;" 
d="M420 780h80v-160h80v160h80v-400h-80v160h-80v-160h-80v400zM100 700h80v-240h160v-80h-240v320zM180 300h400v-240h-320v-80h320v-80h-400v240h320v80h-320v80z" />
    <glyph glyph-name="uniB0C4" unicode="&#xb0c4;" 
d="M420 780h80v-240h80v240h80v-480h-80v160h-80v-160h-80v480zM100 700h80v-320h160v-80h-240v400zM100 220h560v-320h-560v320zM180 140v-160h400v160h-400z" />
    <glyph glyph-name="uniB0C5" unicode="&#xb0c5;" 
d="M420 780h80v-240h80v240h80v-480h-80v160h-80v-160h-80v480zM100 700h80v-320h160v-80h-240v400zM100 220h80v-80h400v80h80v-320h-560v320zM180 60v-80h400v80h-400z" />
    <glyph glyph-name="uniB0C7" unicode="&#xb0c7;" 
d="M420 780h80v-240h80v240h80v-480h-80v160h-80v-160h-80v480zM100 700h80v-320h160v-80h-240v400zM420 220h80v-80h-80v80zM340 140h80v-80h-80v80zM260 60h80v-80h-80v80zM420 60h80v-80h-80v80zM180 -20h80v-80h-80v80zM500 -20h80v-80h-80v80z" />
    <glyph glyph-name="uniB0C8" unicode="&#xb0c8;" 
d="M420 780h80v-240h80v240h80v-480h-80v160h-80v-160h-80v480zM100 700h80v-320h160v-80h-240v400zM180 220h80v-160h-80v160zM500 220h80v-160h-80v160zM100 60h80v-160h-80v160zM260 60h80v-160h-80v160zM420 60h80v-160h-80v160zM580 60h80v-160h-80v160z" />
    <glyph glyph-name="uniB0C9" unicode="&#xb0c9;" 
d="M420 780h80v-240h80v240h80v-480h-80v160h-80v-160h-80v480zM100 700h80v-320h160v-80h-240v400zM260 220h240v-80h-240v80zM180 140h80v-160h-80v160zM500 140h80v-160h-80v160zM260 -20h240v-80h-240v80z" />
    <glyph glyph-name="uniB0D0" unicode="&#xb0d0;" 
d="M500 780h80v-240h80v-80h-80v-240h80v-80h-80v-240h-80v880zM100 700h80v-560h240v-80h-320v640z" />
    <glyph glyph-name="uniB0D1" unicode="&#xb0d1;" 
d="M500 780h80v-160h80v-80h-80v-80h80v-80h-80v-80h-80v480zM100 700h80v-320h240v-80h-320v400zM100 220h560v-320h-80v240h-480v80z" />
    <glyph glyph-name="uniB0D4" unicode="&#xb0d4;" 
d="M500 780h80v-160h80v-80h-80v-80h80v-80h-80v-160h-80v560zM100 700h80v-320h240v-80h-320v400zM100 220h80v-240h480v-80h-560v320z" />
    <glyph glyph-name="uniB0D8" unicode="&#xb0d8;" 
d="M500 780h80v-80h80v-80h-80v-80h80v-80h-80v-80h-80v400zM100 700h80v-240h240v-80h-320v320zM180 300h400v-240h-320v-80h320v-80h-400v240h320v80h-320v80z" />
    <glyph glyph-name="uniB0E0" unicode="&#xb0e0;" 
d="M500 780h80v-160h80v-80h-80v-80h80v-80h-80v-80h-80v480zM100 700h80v-320h240v-80h-320v400zM100 220h560v-320h-560v320zM180 140v-160h400v160h-400z" />
    <glyph glyph-name="uniB0E5" unicode="&#xb0e5;" 
d="M500 780h80v-160h80v-80h-80v-80h80v-80h-80v-80h-80v480zM100 700h80v-320h240v-80h-320v400zM260 220h240v-80h-240v80zM180 140h80v-160h-80v160zM500 140h80v-160h-80v160zM260 -20h240v-80h-240v80z" />
    <glyph glyph-name="uniB108" unicode="&#xb108;" 
d="M580 780h80v-880h-80v400h-80v80h80v400zM100 700h80v-560h240v-80h-320v640z" />
    <glyph glyph-name="uniB109" unicode="&#xb109;" 
d="M580 780h80v-480h-80v160h-80v80h80v240zM100 700h80v-320h240v-80h-320v400zM100 220h560v-320h-80v240h-480v80z" />
    <glyph glyph-name="uniB10B" unicode="&#xb10b;" 
d="M580 780h80v-400h-80v160h-80v80h80v160zM100 700h80v-240h240v-80h-320v320zM100 300h240v-400h-80v320h-160v80zM500 300h80v-240h-80v240zM420 60h80v-160h-80v160zM580 60h80v-160h-80v160z" />
    <glyph glyph-name="uniB10C" unicode="&#xb10c;" 
d="M580 780h80v-560h-80v240h-80v80h80v240zM100 700h80v-320h240v-80h-320v400zM100 220h80v-240h480v-80h-560v320z" />
    <glyph glyph-name="uniB110" unicode="&#xb110;" 
d="M580 780h80v-400h-80v160h-80v80h80v160zM100 700h80v-240h240v-80h-320v320zM180 300h400v-240h-320v-80h320v-80h-400v240h320v80h-320v80z" />
    <glyph glyph-name="uniB112" unicode="&#xb112;" 
d="M580 780h80v-400h-80v160h-80v80h80v160zM100 700h80v-240h240v-80h-320v320zM100 300h240v-240h-160v-80h160v-80h-240v240h160v80h-160v80zM420 300h240v-400h-240v400zM500 220v-240h80v240h-80z" />
    <glyph glyph-name="uniB113" unicode="&#xb113;" 
d="M580 780h80v-400h-80v160h-80v80h80v160zM100 700h80v-240h240v-80h-320v320zM100 300h240v-240h-160v-80h160v-80h-240v240h160v80h-160v80zM420 300h80v-160h80v160h80v-400h-240v400zM500 60v-80h80v80h-80z" />
    <glyph glyph-name="uniB118" unicode="&#xb118;" 
d="M580 780h80v-480h-80v160h-80v80h80v240zM100 700h80v-320h240v-80h-320v400zM100 220h560v-320h-560v320zM180 140v-160h400v160h-400z" />
    <glyph glyph-name="uniB119" unicode="&#xb119;" 
d="M580 780h80v-480h-80v160h-80v80h80v240zM100 700h80v-320h240v-80h-320v400zM100 220h80v-80h400v80h80v-320h-560v320zM180 60v-80h400v80h-400z" />
    <glyph glyph-name="uniB11B" unicode="&#xb11b;" 
d="M580 780h80v-560h-80v240h-80v80h80v240zM100 700h80v-320h240v-80h-320v400zM420 220h80v-80h-80v80zM340 140h80v-80h-80v80zM260 60h80v-80h-80v80zM420 60h80v-80h-80v80zM180 -20h80v-80h-80v80zM500 -20h80v-80h-80v80z" />
    <glyph glyph-name="uniB11C" unicode="&#xb11c;" 
d="M580 780h80v-480h-80v160h-80v80h80v240zM100 700h80v-320h240v-80h-320v400zM180 220h80v-160h-80v160zM500 220h80v-160h-80v160zM100 60h80v-160h-80v160zM260 60h80v-160h-80v160zM420 60h80v-160h-80v160zM580 60h80v-160h-80v160z" />
    <glyph glyph-name="uniB11D" unicode="&#xb11d;" 
d="M580 780h80v-560h-80v240h-80v80h80v240zM100 700h80v-320h240v-80h-320v400zM260 220h240v-80h-240v80zM180 140h80v-160h-80v160zM500 140h80v-160h-80v160zM260 -20h240v-80h-240v80z" />
    <glyph glyph-name="uniB123" unicode="&#xb123;" 
d="M580 780h80v-480h-80v240h-80v80h80v160zM100 700h80v-240h240v-80h-320v320zM340 300h80v-80h240v-80h-160v-80h-240v80h-160v80h240v80zM180 60h80v-80h-80v80zM500 60h80v-80h-80v80zM260 -20h240v-80h-240v80z" />
    <glyph glyph-name="uniB124" unicode="&#xb124;" 
d="M420 780h80v-880h-80v400h-80v80h80v400zM580 780h80v-880h-80v880zM100 700h80v-560h160v-80h-240v640z" />
    <glyph glyph-name="uniB125" unicode="&#xb125;" 
d="M420 780h80v-480h-80v160h-80v80h80v240zM580 780h80v-480h-80v480zM100 700h80v-320h160v-80h-240v400zM100 220h560v-320h-80v240h-480v80z" />
    <glyph glyph-name="uniB128" unicode="&#xb128;" 
d="M420 780h80v-560h-80v240h-80v80h80v240zM580 780h80v-560h-80v560zM100 700h80v-320h160v-80h-240v400zM100 220h80v-240h480v-80h-560v320z" />
    <glyph glyph-name="uniB12C" unicode="&#xb12c;" 
d="M420 780h80v-400h-80v160h-80v80h80v160zM580 780h80v-400h-80v400zM100 700h80v-240h160v-80h-240v320zM180 300h400v-240h-320v-80h320v-80h-400v240h320v80h-320v80z" />
    <glyph glyph-name="uniB134" unicode="&#xb134;" 
d="M420 780h80v-480h-80v160h-80v80h80v240zM580 780h80v-480h-80v480zM100 700h80v-320h160v-80h-240v400zM100 220h560v-320h-560v320zM180 140v-160h400v160h-400z" />
    <glyph glyph-name="uniB135" unicode="&#xb135;" 
d="M420 780h80v-480h-80v160h-80v80h80v240zM580 780h80v-480h-80v480zM100 700h80v-320h160v-80h-240v400zM100 220h80v-80h400v80h80v-320h-560v320zM180 60v-80h400v80h-400z" />
    <glyph glyph-name="uniB137" unicode="&#xb137;" 
d="M420 780h80v-480h-80v160h-80v80h80v240zM580 780h80v-480h-80v480zM100 700h80v-320h160v-80h-240v400zM420 220h80v-80h-80v80zM340 140h80v-80h-80v80zM260 60h80v-80h-80v80zM420 60h80v-80h-80v80zM180 -20h80v-80h-80v80zM500 -20h80v-80h-80v80z" />
    <glyph glyph-name="uniB138" unicode="&#xb138;" 
d="M420 780h80v-480h-80v160h-80v80h80v240zM580 780h80v-480h-80v480zM100 700h80v-320h160v-80h-240v400zM180 220h80v-160h-80v160zM500 220h80v-160h-80v160zM100 60h80v-160h-80v160zM260 60h80v-160h-80v160zM420 60h80v-160h-80v160zM580 60h80v-160h-80v160z" />
    <glyph glyph-name="uniB139" unicode="&#xb139;" 
d="M420 780h80v-480h-80v160h-80v80h80v240zM580 780h80v-480h-80v480zM100 700h80v-320h160v-80h-240v400zM260 220h240v-80h-240v80zM180 140h80v-160h-80v160zM500 140h80v-160h-80v160zM260 -20h240v-80h-240v80z" />
    <glyph glyph-name="uniB140" unicode="&#xb140;" 
d="M580 780h80v-880h-80v240h-80v80h80v240h-80v80h80v240zM100 700h80v-560h240v-80h-320v640z" />
    <glyph glyph-name="uniB141" unicode="&#xb141;" 
d="M580 780h80v-480h-80v80h-80v80h80v80h-80v80h80v160zM100 700h80v-320h240v-80h-320v400zM100 220h560v-320h-80v240h-480v80z" />
    <glyph glyph-name="uniB144" unicode="&#xb144;" 
d="M580 780h80v-560h-80v160h-80v80h80v80h-80v80h80v160zM100 700h80v-320h240v-80h-320v400zM100 220h80v-240h480v-80h-560v320z" />
    <glyph glyph-name="uniB148" unicode="&#xb148;" 
d="M580 780h80v-480h-80v160h-80v80h80v80h-80v80h80v80zM100 700h80v-240h240v-80h-320v320zM180 300h400v-240h-320v-80h320v-80h-400v240h320v80h-320v80z" />
    <glyph glyph-name="uniB150" unicode="&#xb150;" 
d="M580 780h80v-480h-80v80h-80v80h80v80h-80v80h80v160zM100 700h80v-320h240v-80h-320v400zM100 220h560v-320h-560v320zM180 140v-160h400v160h-400z" />
    <glyph glyph-name="uniB151" unicode="&#xb151;" 
d="M580 780h80v-480h-80v80h-80v80h80v80h-80v80h80v160zM100 700h80v-320h240v-80h-320v400zM100 220h80v-80h400v80h80v-320h-560v320zM180 60v-80h400v80h-400z" />
    <glyph glyph-name="uniB154" unicode="&#xb154;" 
d="M580 780h80v-480h-80v80h-80v80h80v80h-80v80h80v160zM100 700h80v-320h240v-80h-320v400zM180 220h80v-160h-80v160zM500 220h80v-160h-80v160zM100 60h80v-160h-80v160zM260 60h80v-160h-80v160zM420 60h80v-160h-80v160zM580 60h80v-160h-80v160z" />
    <glyph glyph-name="uniB155" unicode="&#xb155;" 
d="M580 780h80v-560h-80v160h-80v80h80v80h-80v80h80v160zM100 700h80v-320h240v-80h-320v400zM260 220h240v-80h-240v80zM180 140h80v-160h-80v160zM500 140h80v-160h-80v160zM260 -20h240v-80h-240v80z" />
    <glyph glyph-name="uniB158" unicode="&#xb158;" 
d="M580 780h80v-480h-80v80h-80v80h80v80h-80v80h80v160zM100 700h80v-320h240v-80h-320v400zM100 220h560v-320h-80v80h-400v80h400v80h-480v80z" />
    <glyph glyph-name="uniB15C" unicode="&#xb15c;" 
d="M420 780h80v-880h-80v240h-80v80h80v240h-80v80h80v240zM580 780h80v-880h-80v880zM100 700h80v-640h160v-80h-240v720z" />
    <glyph glyph-name="uniB160" unicode="&#xb160;" 
d="M420 780h80v-560h-80v160h-80v80h80v80h-80v80h80v160zM580 780h80v-560h-80v560zM100 700h80v-320h80v-80h-160v400zM100 220h80v-240h480v-80h-560v320z" />
    <glyph glyph-name="uniB178" unicode="&#xb178;" 
d="M180 620h80v-240h320v-80h-400v320zM340 220h80v-240h240v-80h-560v80h240v240z" />
    <glyph glyph-name="uniB179" unicode="&#xb179;" 
d="M180 780h80v-240h320v-80h-160v-80h240v-80h-560v80h240v80h-160v320zM100 220h560v-320h-80v240h-480v80z" />
    <glyph glyph-name="uniB17C" unicode="&#xb17c;" 
d="M180 780h80v-240h320v-80h-160v-80h240v-80h-560v80h240v80h-160v320zM100 220h80v-240h480v-80h-560v320z" />
    <glyph glyph-name="uniB180" unicode="&#xb180;" 
d="M180 780h80v-160h320v-80h-160v-80h240v-80h-560v80h240v80h-160v240zM180 300h400v-240h-320v-80h320v-80h-400v240h320v80h-320v80z" />
    <glyph glyph-name="uniB182" unicode="&#xb182;" 
d="M180 780h80v-160h320v-80h-160v-80h240v-80h-560v80h240v80h-160v240zM100 300h240v-240h-160v-80h160v-80h-240v240h160v80h-160v80zM420 300h240v-400h-240v400zM500 220v-240h80v240h-80z" />
    <glyph glyph-name="uniB188" unicode="&#xb188;" 
d="M180 780h80v-240h320v-80h-160v-80h240v-80h-560v80h240v80h-160v320zM100 220h560v-320h-560v320zM180 140v-160h400v160h-400z" />
    <glyph glyph-name="uniB189" unicode="&#xb189;" 
d="M180 780h80v-240h320v-80h-160v-80h240v-80h-560v80h240v80h-160v320zM100 220h80v-80h400v80h80v-320h-560v320zM180 60v-80h400v80h-400z" />
    <glyph glyph-name="uniB18B" unicode="&#xb18b;" 
d="M180 780h80v-240h320v-80h-160v-80h240v-80h-560v80h240v80h-160v320zM420 220h80v-80h-80v80zM340 140h80v-80h-80v80zM260 60h80v-80h-80v80zM420 60h80v-80h-80v80zM180 -20h80v-80h-80v80zM500 -20h80v-80h-80v80z" />
    <glyph glyph-name="uniB18D" unicode="&#xb18d;" 
d="M180 780h80v-240h320v-80h-160v-80h240v-80h-560v80h240v80h-160v320zM260 220h240v-80h-240v80zM180 140h80v-160h-80v160zM500 140h80v-160h-80v160zM260 -20h240v-80h-240v80z" />
    <glyph glyph-name="uniB192" unicode="&#xb192;" 
d="M180 780h80v-240h320v-80h-160v-80h240v-80h-560v80h240v80h-160v320zM100 220h560v-80h-80v-160h80v-80h-560v80h80v160h-80v80zM260 140v-160h240v160h-240z" />
    <glyph glyph-name="uniB193" unicode="&#xb193;" 
d="M180 780h80v-160h320v-80h-160v-80h240v-80h-560v80h240v80h-160v240zM340 300h80v-80h240v-80h-160v-80h-240v80h-160v80h240v80zM180 60h80v-80h-80v80zM500 60h80v-80h-80v80zM260 -20h240v-80h-240v80z" />
    <glyph glyph-name="uniB194" unicode="&#xb194;" 
d="M500 780h80v-400h80v-80h-80v-400h-80v880zM100 700h80v-320h240v-80h-320v400zM260 220h80v-240h80v-80h-320v80h160v240z" />
    <glyph glyph-name="uniB198" unicode="&#xb198;" 
d="M100 780h80v-160h240v-80h-320v240zM500 780h80v-240h80v-80h-80v-240h-80v560zM260 460h80v-80h80v-80h-320v80h160v80zM100 220h80v-240h480v-80h-560v320z" />
    <glyph glyph-name="uniB19C" unicode="&#xb19c;" 
d="M100 780h80v-80h240v-80h-320v160zM500 780h80v-160h80v-80h-80v-160h-80v400zM260 540h80v-80h80v-80h-320v80h160v80zM180 300h400v-240h-320v-80h320v-80h-400v240h320v80h-320v80z" />
    <glyph glyph-name="uniB1A8" unicode="&#xb1a8;" 
d="M100 780h80v-160h240v-80h-320v240zM500 780h80v-240h80v-80h-80v-160h-80v480zM260 460h80v-80h80v-80h-320v80h160v80zM180 220h80v-160h-80v160zM500 220h80v-160h-80v160zM100 60h80v-160h-80v160zM260 60h80v-160h-80v160zM420 60h80v-160h-80v160zM580 60h80v-160
h-80v160z" />
    <glyph glyph-name="uniB1CC" unicode="&#xb1cc;" 
d="M580 780h80v-880h-80v880zM100 700h80v-240h320v-80h-400v320zM260 220h80v-240h160v-80h-400v80h160v240z" />
    <glyph glyph-name="uniB1D0" unicode="&#xb1d0;" 
d="M100 780h80v-160h320v-80h-400v240zM580 780h80v-560h-80v560zM260 460h80v-80h160v-80h-400v80h160v80zM100 220h80v-240h480v-80h-560v320z" />
    <glyph glyph-name="uniB1D4" unicode="&#xb1d4;" 
d="M100 780h80v-80h320v-80h-400v160zM580 780h80v-400h-80v400zM260 540h80v-80h160v-80h-400v80h160v80zM180 300h400v-240h-320v-80h320v-80h-400v240h320v80h-320v80z" />
    <glyph glyph-name="uniB1DC" unicode="&#xb1dc;" 
d="M100 780h80v-160h320v-80h-400v240zM580 780h80v-480h-80v480zM260 460h80v-80h160v-80h-400v80h160v80zM100 220h560v-320h-560v320zM180 140v-160h400v160h-400z" />
    <glyph glyph-name="uniB1DD" unicode="&#xb1dd;" 
d="M100 780h80v-160h320v-80h-400v240zM580 780h80v-480h-80v480zM260 460h80v-80h160v-80h-400v80h160v80zM100 220h80v-80h400v80h80v-320h-560v320zM180 60v-80h400v80h-400z" />
    <glyph glyph-name="uniB1DF" unicode="&#xb1df;" 
d="M100 780h80v-160h320v-80h-400v240zM580 780h80v-480h-80v480zM260 460h80v-80h160v-80h-400v80h160v80zM420 220h80v-80h-80v80zM340 140h80v-80h-80v80zM260 60h80v-80h-80v80zM420 60h80v-80h-80v80zM180 -20h80v-80h-80v80zM500 -20h80v-80h-80v80z" />
    <glyph glyph-name="uniB1E8" unicode="&#xb1e8;" 
d="M180 620h80v-240h320v-80h-400v320zM260 220h80v-240h80v240h80v-240h160v-80h-560v80h160v240z" />
    <glyph glyph-name="uniB1E9" unicode="&#xb1e9;" 
d="M180 780h80v-240h320v-80h-80v-80h160v-80h-560v80h160v80h-80v320zM340 460v-80h80v80h-80zM100 220h560v-320h-80v240h-480v80z" />
    <glyph glyph-name="uniB1EC" unicode="&#xb1ec;" 
d="M180 780h80v-240h320v-80h-80v-80h160v-80h-560v80h160v80h-80v320zM340 460v-80h80v80h-80zM100 220h80v-240h480v-80h-560v320z" />
    <glyph glyph-name="uniB1F0" unicode="&#xb1f0;" 
d="M180 780h80v-160h320v-80h-80v-80h160v-80h-560v80h160v80h-80v240zM340 540v-80h80v80h-80zM180 300h400v-240h-320v-80h320v-80h-400v240h320v80h-320v80z" />
    <glyph glyph-name="uniB1F9" unicode="&#xb1f9;" 
d="M180 780h80v-240h320v-80h-80v-80h160v-80h-560v80h160v80h-80v320zM340 460v-80h80v80h-80zM100 220h80v-80h400v80h80v-320h-560v320zM180 60v-80h400v80h-400z" />
    <glyph glyph-name="uniB1FB" unicode="&#xb1fb;" 
d="M180 780h80v-240h320v-80h-80v-80h160v-80h-560v80h160v80h-80v320zM340 460v-80h80v80h-80zM420 220h80v-80h-80v80zM340 140h80v-80h-80v80zM260 60h80v-80h-80v80zM420 60h80v-80h-80v80zM180 -20h80v-80h-80v80zM500 -20h80v-80h-80v80z" />
    <glyph glyph-name="uniB1FD" unicode="&#xb1fd;" 
d="M180 780h80v-240h320v-80h-80v-80h160v-80h-560v80h160v80h-80v320zM340 460v-80h80v80h-80zM260 220h240v-80h-240v80zM180 140h80v-160h-80v160zM500 140h80v-160h-80v160zM260 -20h240v-80h-240v80z" />
    <glyph glyph-name="uniB204" unicode="&#xb204;" 
d="M180 620h80v-240h320v-80h-400v320zM100 220h560v-80h-240v-240h-80v240h-240v80z" />
    <glyph glyph-name="uniB205" unicode="&#xb205;" 
d="M180 780h80v-240h320v-80h-400v320zM100 380h560v-80h-240v-80h240v-320h-80v240h-480v80h240v80h-240v80z" />
    <glyph glyph-name="uniB208" unicode="&#xb208;" 
d="M180 780h80v-240h320v-80h-400v320zM100 380h560v-80h-240v-80h-80v80h-240v80zM100 220h80v-240h480v-80h-560v320z" />
    <glyph glyph-name="uniB20B" unicode="&#xb20b;" 
d="M180 780h80v-240h320v-80h-400v320zM100 380h560v-80h-240v-80h240v-80h-400v-160h400v-80h-480v240h-80v80h240v80h-240v80z" />
    <glyph glyph-name="uniB20C" unicode="&#xb20c;" 
d="M180 780h80v-160h320v-80h-400v240zM100 460h560v-80h-240v-80h160v-240h-320v-80h320v-80h-400v240h320v80h-320v80h160v80h-240v80z" />
    <glyph glyph-name="uniB214" unicode="&#xb214;" 
d="M180 780h80v-240h320v-80h-400v320zM100 380h560v-80h-240v-80h240v-320h-560v320h240v80h-240v80zM180 140v-160h400v160h-400z" />
    <glyph glyph-name="uniB215" unicode="&#xb215;" 
d="M180 780h80v-240h320v-80h-400v320zM100 380h560v-80h-240v-80h-80v80h-240v80zM100 220h80v-80h400v80h80v-320h-560v320zM180 60v-80h400v80h-400z" />
    <glyph glyph-name="uniB217" unicode="&#xb217;" 
d="M180 780h80v-240h320v-80h-400v320zM100 380h560v-80h-240v-80h-80v80h-240v80zM420 220h80v-80h-80v80zM340 140h80v-80h-80v80zM260 60h80v-80h-80v80zM420 60h80v-80h-80v80zM180 -20h80v-80h-80v80zM500 -20h80v-80h-80v80z" />
    <glyph glyph-name="uniB219" unicode="&#xb219;" 
d="M180 780h80v-240h320v-80h-400v320zM100 380h560v-80h-240v-80h80v-80h-240v80h80v80h-240v80zM180 140h80v-160h-80v160zM500 140h80v-160h-80v160zM260 -20h240v-80h-240v80z" />
    <glyph glyph-name="uniB220" unicode="&#xb220;" 
d="M580 780h80v-880h-80v400h-80v80h80v400zM100 700h80v-320h240v-80h-320v400zM100 220h320v-80h-80v-240h-80v240h-160v80z" />
    <glyph glyph-name="uniB234" unicode="&#xb234;" 
d="M100 780h80v-160h240v-80h-320v240zM580 780h80v-480h-80v160h-80v80h80v240zM100 460h320v-80h-80v-80h-80v80h-160v80zM180 220h80v-160h-80v160zM500 220h80v-160h-80v160zM100 60h80v-160h-80v160zM260 60h80v-160h-80v160zM420 60h80v-160h-80v160zM580 60h80v-160
h-80v160z" />
    <glyph glyph-name="uniB23C" unicode="&#xb23c;" 
d="M420 780h80v-880h-80v560h-80v80h80v240zM580 780h80v-880h-80v880zM100 700h80v-320h160v-80h-240v400zM100 220h240v-80h-80v-240h-80v240h-80v80z" />
    <glyph glyph-name="uniB258" unicode="&#xb258;" 
d="M580 780h80v-880h-80v880zM100 700h80v-320h320v-80h-400v400zM100 220h400v-80h-160v-240h-80v240h-160v80z" />
    <glyph glyph-name="uniB25C" unicode="&#xb25c;" 
d="M100 780h80v-160h320v-80h-400v240zM580 780h80v-560h-80v560zM100 460h400v-80h-160v-80h-80v80h-160v80zM100 220h80v-240h480v-80h-560v320z" />
    <glyph glyph-name="uniB260" unicode="&#xb260;" 
d="M100 780h80v-160h320v-80h-400v240zM580 780h80v-480h-80v480zM100 460h400v-80h-160v-80h240v-240h-320v-80h320v-80h-400v240h320v80h-320v80h80v80h-160v80z" />
    <glyph glyph-name="uniB268" unicode="&#xb268;" 
d="M100 780h80v-160h320v-80h-400v240zM580 780h80v-480h-80v480zM100 460h400v-80h-160v-80h-80v80h-160v80zM100 220h560v-320h-560v320zM180 140v-160h400v160h-400z" />
    <glyph glyph-name="uniB269" unicode="&#xb269;" 
d="M100 780h80v-160h320v-80h-400v240zM580 780h80v-480h-80v480zM100 460h400v-80h-160v-80h-80v80h-160v80zM100 220h80v-80h400v80h80v-320h-560v320zM180 60v-80h400v80h-400z" />
    <glyph glyph-name="uniB274" unicode="&#xb274;" 
d="M180 620h80v-240h320v-80h-400v320zM100 220h560v-80h-160v-240h-80v240h-80v-240h-80v240h-160v80z" />
    <glyph glyph-name="uniB275" unicode="&#xb275;" 
d="M180 780h80v-240h320v-80h-400v320zM100 380h560v-80h-160v-80h160v-320h-80v240h-480v80h160v80h-160v80zM340 300v-80h80v80h-80z" />
    <glyph glyph-name="uniB27C" unicode="&#xb27c;" 
d="M180 780h80v-160h320v-80h-400v240zM100 460h560v-80h-160v-80h80v-240h-320v-80h320v-80h-400v240h320v80h-320v80h80v80h-160v80zM340 380v-80h80v80h-80z" />
    <glyph glyph-name="uniB284" unicode="&#xb284;" 
d="M180 780h80v-240h320v-80h-400v320zM100 380h560v-80h-160v-80h160v-320h-560v320h160v80h-160v80zM340 300v-80h80v80h-80zM180 140v-160h400v160h-400z" />
    <glyph glyph-name="uniB285" unicode="&#xb285;" 
d="M180 780h80v-240h320v-80h-400v320zM100 380h560v-80h-160v-80h-80v80h-80v-80h-80v80h-160v80zM100 220h80v-80h400v80h80v-320h-560v320zM180 60v-80h400v80h-400z" />
    <glyph glyph-name="uniB289" unicode="&#xb289;" 
d="M180 780h80v-240h320v-80h-400v320zM100 380h560v-80h-160v-160h-240v160h-160v80zM340 300v-80h80v80h-80zM180 140h80v-160h-80v160zM500 140h80v-160h-80v160zM260 -20h240v-80h-240v80z" />
    <glyph glyph-name="uniB290" unicode="&#xb290;" 
d="M180 620h80v-320h320v-80h-400v400zM100 -20h560v-80h-560v80z" />
    <glyph glyph-name="uniB291" unicode="&#xb291;" 
d="M180 780h80v-240h320v-80h-400v320zM100 380h560v-80h-560v80zM100 220h560v-320h-80v240h-480v80z" />
    <glyph glyph-name="uniB294" unicode="&#xb294;" 
d="M180 780h80v-240h320v-80h-400v320zM100 380h560v-80h-560v80zM100 220h80v-240h480v-80h-560v320z" />
    <glyph glyph-name="uniB298" unicode="&#xb298;" 
d="M180 780h80v-160h320v-80h-400v240zM100 460h560v-80h-560v80zM180 300h400v-240h-320v-80h320v-80h-400v240h320v80h-320v80z" />
    <glyph glyph-name="uniB299" unicode="&#xb299;" 
d="M180 780h80v-160h320v-80h-400v240zM100 460h560v-80h-560v80zM100 300h240v-240h-160v-80h160v-80h-240v240h160v80h-160v80zM420 300h240v-400h-80v320h-160v80z" />
    <glyph glyph-name="uniB29A" unicode="&#xb29a;" 
d="M180 780h80v-160h320v-80h-400v240zM100 460h560v-80h-560v80zM100 300h240v-240h-160v-80h160v-80h-240v240h160v80h-160v80zM420 300h240v-400h-240v400zM500 220v-240h80v240h-80z" />
    <glyph glyph-name="uniB2A0" unicode="&#xb2a0;" 
d="M180 780h80v-240h320v-80h-400v320zM100 380h560v-80h-560v80zM100 220h560v-320h-560v320zM180 140v-160h400v160h-400z" />
    <glyph glyph-name="uniB2A1" unicode="&#xb2a1;" 
d="M180 780h80v-240h320v-80h-400v320zM100 380h560v-80h-560v80zM100 220h80v-80h400v80h80v-320h-560v320zM180 60v-80h400v80h-400z" />
    <glyph glyph-name="uniB2A3" unicode="&#xb2a3;" 
d="M180 780h80v-240h320v-80h-400v320zM100 380h560v-80h-560v80zM420 220h80v-80h-80v80zM340 140h80v-80h-80v80zM260 60h80v-80h-80v80zM420 60h80v-80h-80v80zM180 -20h80v-80h-80v80zM500 -20h80v-80h-80v80z" />
    <glyph glyph-name="uniB2A5" unicode="&#xb2a5;" 
d="M180 780h80v-240h320v-80h-400v320zM100 380h560v-80h-560v80zM260 220h240v-80h-240v80zM180 140h80v-160h-80v160zM500 140h80v-160h-80v160zM260 -20h240v-80h-240v80z" />
    <glyph glyph-name="uniB2A6" unicode="&#xb2a6;" 
d="M180 780h80v-240h240v-80h-320v320zM100 380h560v-80h-560v80zM100 220h560v-80h-160v-80h-80v80h-80v-80h-80v80h-160v80zM180 60h80v-80h-80v80zM500 60h80v-80h-80v80zM100 -20h80v-80h-80v80zM580 -20h80v-80h-80v80z" />
    <glyph glyph-name="uniB2AA" unicode="&#xb2aa;" 
d="M180 780h80v-240h320v-80h-400v320zM100 380h560v-80h-560v80zM100 220h560v-80h-80v-160h80v-80h-560v80h80v160h-80v80zM260 140v-160h240v160h-240z" />
    <glyph glyph-name="uniB2AC" unicode="&#xb2ac;" 
d="M580 780h80v-880h-80v880zM100 700h80v-480h320v-80h-400v560zM100 60h400v-80h-400v80z" />
    <glyph glyph-name="uniB2B0" unicode="&#xb2b0;" 
d="M100 780h80v-240h320v-80h-400v320zM580 780h80v-560h-80v560zM100 380h400v-80h-400v80zM100 220h80v-240h480v-80h-560v320z" />
    <glyph glyph-name="uniB2B4" unicode="&#xb2b4;" 
d="M100 780h80v-160h320v-80h-400v240zM580 780h80v-480h-80v480zM100 460h400v-80h-400v80zM180 300h400v-240h-320v-80h320v-80h-400v240h320v80h-320v80z" />
    <glyph glyph-name="uniB2C8" unicode="&#xb2c8;" 
d="M580 780h80v-880h-80v880zM100 700h80v-560h320v-80h-400v640z" />
    <glyph glyph-name="uniB2C9" unicode="&#xb2c9;" 
d="M580 780h80v-480h-80v480zM100 700h80v-320h320v-80h-400v400zM100 220h560v-320h-80v240h-480v80z" />
    <glyph glyph-name="uniB2CC" unicode="&#xb2cc;" 
d="M580 780h80v-480h-80v480zM100 700h80v-320h320v-80h-400v400zM100 220h80v-240h480v-80h-560v320z" />
    <glyph glyph-name="uniB2D0" unicode="&#xb2d0;" 
d="M580 780h80v-400h-80v400zM100 700h80v-240h320v-80h-400v320zM180 300h400v-240h-320v-80h320v-80h-400v240h320v80h-320v80z" />
    <glyph glyph-name="uniB2D2" unicode="&#xb2d2;" 
d="M580 780h80v-400h-80v400zM100 700h80v-240h320v-80h-400v320zM100 300h240v-240h-160v-80h160v-80h-240v240h160v80h-160v80zM420 300h240v-400h-240v400zM500 220v-240h80v240h-80z" />
    <glyph glyph-name="uniB2D8" unicode="&#xb2d8;" 
d="M580 780h80v-480h-80v480zM100 700h80v-320h320v-80h-400v400zM100 220h560v-320h-560v320zM180 140v-160h400v160h-400z" />
    <glyph glyph-name="uniB2D9" unicode="&#xb2d9;" 
d="M580 780h80v-480h-80v480zM100 700h80v-320h320v-80h-400v400zM100 220h80v-80h400v80h80v-320h-560v320zM180 60v-80h400v80h-400z" />
    <glyph glyph-name="uniB2DB" unicode="&#xb2db;" 
d="M580 780h80v-480h-80v480zM100 700h80v-320h320v-80h-400v400zM420 220h80v-80h-80v80zM340 140h80v-80h-80v80zM260 60h80v-80h-80v80zM420 60h80v-80h-80v80zM180 -20h80v-80h-80v80zM500 -20h80v-80h-80v80z" />
    <glyph glyph-name="uniB2DD" unicode="&#xb2dd;" 
d="M580 780h80v-480h-80v480zM100 700h80v-320h320v-80h-400v400zM260 220h240v-80h-240v80zM180 140h80v-160h-80v160zM500 140h80v-160h-80v160zM260 -20h240v-80h-240v80z" />
    <glyph glyph-name="uniB2E2" unicode="&#xb2e2;" 
d="M580 780h80v-480h-80v480zM100 700h80v-320h320v-80h-400v400zM100 220h560v-80h-80v-160h80v-80h-560v80h80v160h-80v80zM260 140v-160h240v160h-240z" />
    <glyph glyph-name="uniB2E4" unicode="&#xb2e4;" 
d="M500 780h80v-400h80v-80h-80v-400h-80v880zM100 700h320v-80h-240v-480h240v-80h-320v640z" />
    <glyph glyph-name="uniB2E5" unicode="&#xb2e5;" 
d="M500 780h80v-240h80v-80h-80v-160h-80v480zM100 700h320v-80h-240v-240h240v-80h-320v400zM100 220h560v-320h-80v240h-480v80z" />
    <glyph glyph-name="uniB2E6" unicode="&#xb2e6;" 
d="M500 780h80v-240h80v-80h-80v-160h-80v480zM100 700h320v-80h-240v-240h240v-80h-320v400zM100 220h560v-320h-80v240h-160v-160h-80v160h-240v80zM260 -20h80v-80h-80v80z" />
    <glyph glyph-name="uniB2E8" unicode="&#xb2e8;" 
d="M500 780h80v-240h80v-80h-80v-160h-80v480zM100 700h320v-80h-240v-240h240v-80h-320v400zM100 220h80v-240h480v-80h-560v320z" />
    <glyph glyph-name="uniB2EB" unicode="&#xb2eb;" 
d="M500 780h80v-240h80v-80h-80v-160h-80v480zM100 700h320v-80h-240v-240h240v-80h-320v400zM100 220h560v-80h-400v-160h400v-80h-480v240h-80v80z" />
    <glyph glyph-name="uniB2EC" unicode="&#xb2ec;" 
d="M500 780h80v-160h80v-80h-80v-160h-80v400zM100 700h320v-80h-240v-160h240v-80h-320v320zM180 300h400v-240h-320v-80h320v-80h-400v240h320v80h-320v80z" />
    <glyph glyph-name="uniB2ED" unicode="&#xb2ed;" 
d="M500 780h80v-160h80v-80h-80v-160h-80v400zM100 700h320v-80h-240v-160h240v-80h-320v320zM100 300h240v-240h-160v-80h160v-80h-240v240h160v80h-160v80zM420 300h240v-400h-80v320h-160v80z" />
    <glyph glyph-name="uniB2EE" unicode="&#xb2ee;" 
d="M500 780h80v-160h80v-80h-80v-160h-80v400zM100 700h320v-80h-240v-160h240v-80h-320v320zM100 300h240v-240h-160v-80h160v-80h-240v240h160v80h-160v80zM420 300h240v-400h-240v400zM500 220v-240h80v240h-80z" />
    <glyph glyph-name="uniB2EF" unicode="&#xb2ef;" 
d="M500 780h80v-160h80v-80h-80v-160h-80v400zM100 700h320v-80h-240v-160h240v-80h-320v320zM100 300h240v-240h-160v-80h160v-80h-240v240h160v80h-160v80zM420 300h80v-160h80v160h80v-400h-240v400zM500 60v-80h80v80h-80z" />
    <glyph glyph-name="uniB2F3" unicode="&#xb2f3;" 
d="M500 780h80v-160h80v-80h-80v-160h-80v400zM100 700h320v-80h-240v-160h240v-80h-320v320zM100 300h240v-80h80v80h160v-80h80v-80h-80v-80h-160v80h-80v-80h-160v-80h160v-80h-240v240h160v80h-160v80zM340 60h80v-80h-80v80zM580 60h80v-80h-80v80zM420 -20h160v-80
h-160v80z" />
    <glyph glyph-name="uniB2F4" unicode="&#xb2f4;" 
d="M500 780h80v-240h80v-80h-80v-160h-80v480zM100 700h320v-80h-240v-240h240v-80h-320v400zM100 220h560v-320h-560v320zM180 140v-160h400v160h-400z" />
    <glyph glyph-name="uniB2F5" unicode="&#xb2f5;" 
d="M500 780h80v-240h80v-80h-80v-160h-80v480zM100 700h320v-80h-240v-240h240v-80h-320v400zM100 220h80v-80h400v80h80v-320h-560v320zM180 60v-80h400v80h-400z" />
    <glyph glyph-name="uniB2F7" unicode="&#xb2f7;" 
d="M500 780h80v-240h80v-80h-80v-160h-80v480zM100 700h320v-80h-240v-240h240v-80h-320v400zM420 220h80v-80h-80v80zM340 140h80v-80h-80v80zM260 60h80v-80h-80v80zM420 60h80v-80h-80v80zM180 -20h80v-80h-80v80zM500 -20h80v-80h-80v80z" />
    <glyph glyph-name="uniB2F8" unicode="&#xb2f8;" 
d="M500 780h80v-240h80v-80h-80v-160h-80v480zM100 700h320v-80h-240v-240h240v-80h-320v400zM180 220h80v-160h-80v160zM500 220h80v-160h-80v160zM100 60h80v-160h-80v160zM260 60h80v-160h-80v160zM420 60h80v-160h-80v160zM580 60h80v-160h-80v160z" />
    <glyph glyph-name="uniB2F9" unicode="&#xb2f9;" 
d="M500 780h80v-240h80v-80h-80v-160h-80v480zM100 700h320v-80h-240v-240h240v-80h-320v400zM260 220h240v-80h-240v80zM180 140h80v-160h-80v160zM500 140h80v-160h-80v160zM260 -20h240v-80h-240v80z" />
    <glyph glyph-name="uniB2FA" unicode="&#xb2fa;" 
d="M500 780h80v-240h80v-80h-80v-160h-80v480zM100 700h320v-80h-240v-240h240v-80h-320v400zM100 220h560v-80h-160v-80h-80v80h-80v-80h-80v80h-160v80zM180 60h80v-80h-80v80zM500 60h80v-80h-80v80zM100 -20h80v-80h-80v80zM580 -20h80v-80h-80v80z" />
    <glyph glyph-name="uniB2FB" unicode="&#xb2fb;" 
d="M500 780h80v-240h80v-80h-80v-160h-80v480zM100 700h320v-80h-240v-240h240v-80h-320v400zM340 220h80v-80h240v-80h-160v-80h-80v80h-80v-80h-80v80h-160v80h240v80zM180 -20h80v-80h-80v80zM500 -20h80v-80h-80v80z" />
    <glyph glyph-name="uniB2FF" unicode="&#xb2ff;" 
d="M500 780h80v-160h80v-80h-80v-160h-80v400zM100 700h320v-80h-240v-160h240v-80h-320v320zM340 300h80v-80h240v-80h-160v-80h-240v80h-160v80h240v80zM180 60h80v-80h-80v80zM500 60h80v-80h-80v80zM260 -20h240v-80h-240v80z" />
    <glyph glyph-name="uniB300" unicode="&#xb300;" 
d="M420 780h80v-400h80v400h80v-880h-80v400h-80v-400h-80v880zM100 700h240v-80h-160v-480h160v-80h-240v640z" />
    <glyph glyph-name="uniB301" unicode="&#xb301;" 
d="M420 780h80v-240h80v240h80v-480h-80v160h-80v-160h-80v480zM100 700h240v-80h-160v-240h160v-80h-240v400zM100 220h560v-320h-80v240h-480v80z" />
    <glyph glyph-name="uniB304" unicode="&#xb304;" 
d="M420 780h80v-240h80v240h80v-480h-80v160h-80v-160h-80v480zM100 700h240v-80h-160v-240h160v-80h-240v400zM100 220h80v-240h480v-80h-560v320z" />
    <glyph glyph-name="uniB308" unicode="&#xb308;" 
d="M420 780h80v-160h80v160h80v-400h-80v160h-80v-160h-80v400zM100 700h240v-80h-160v-160h160v-80h-240v320zM180 300h400v-240h-320v-80h320v-80h-400v240h320v80h-320v80z" />
    <glyph glyph-name="uniB310" unicode="&#xb310;" 
d="M420 780h80v-240h80v240h80v-480h-80v160h-80v-160h-80v480zM100 700h240v-80h-160v-240h160v-80h-240v400zM100 220h560v-320h-560v320zM180 140v-160h400v160h-400z" />
    <glyph glyph-name="uniB311" unicode="&#xb311;" 
d="M420 780h80v-240h80v240h80v-480h-80v160h-80v-160h-80v480zM100 700h240v-80h-160v-240h160v-80h-240v400zM100 220h80v-80h400v80h80v-320h-560v320zM180 60v-80h400v80h-400z" />
    <glyph glyph-name="uniB313" unicode="&#xb313;" 
d="M420 780h80v-240h80v240h80v-480h-80v160h-80v-160h-80v480zM100 700h240v-80h-160v-240h160v-80h-240v400zM420 220h80v-80h-80v80zM340 140h80v-80h-80v80zM260 60h80v-80h-80v80zM420 60h80v-80h-80v80zM180 -20h80v-80h-80v80zM500 -20h80v-80h-80v80z" />
    <glyph glyph-name="uniB314" unicode="&#xb314;" 
d="M420 780h80v-240h80v240h80v-480h-80v160h-80v-160h-80v480zM100 700h240v-80h-160v-240h160v-80h-240v400zM180 220h80v-160h-80v160zM500 220h80v-160h-80v160zM100 60h80v-160h-80v160zM260 60h80v-160h-80v160zM420 60h80v-160h-80v160zM580 60h80v-160h-80v160z" />
    <glyph glyph-name="uniB315" unicode="&#xb315;" 
d="M420 780h80v-240h80v240h80v-480h-80v160h-80v-160h-80v480zM100 700h240v-80h-160v-240h160v-80h-240v400zM260 220h240v-80h-240v80zM180 140h80v-160h-80v160zM500 140h80v-160h-80v160zM260 -20h240v-80h-240v80z" />
    <glyph glyph-name="uniB354" unicode="&#xb354;" 
d="M580 780h80v-880h-80v400h-80v80h80v400zM100 700h320v-80h-240v-480h240v-80h-320v640z" />
    <glyph glyph-name="uniB355" unicode="&#xb355;" 
d="M580 780h80v-480h-80v160h-80v80h80v240zM100 700h320v-80h-240v-240h240v-80h-320v400zM100 220h560v-320h-80v240h-480v80z" />
    <glyph glyph-name="uniB356" unicode="&#xb356;" 
d="M580 780h80v-480h-80v160h-80v80h80v240zM100 700h320v-80h-240v-240h240v-80h-320v400zM100 220h560v-320h-80v240h-160v-160h-80v160h-240v80zM260 -20h80v-80h-80v80z" />
    <glyph glyph-name="uniB358" unicode="&#xb358;" 
d="M580 780h80v-560h-80v240h-80v80h80v240zM100 700h320v-80h-240v-240h240v-80h-320v400zM100 220h80v-240h480v-80h-560v320z" />
    <glyph glyph-name="uniB35B" unicode="&#xb35b;" 
d="M580 780h80v-480h-80v160h-80v80h80v240zM100 700h320v-80h-240v-240h240v-80h-320v400zM100 220h560v-80h-400v-160h400v-80h-480v240h-80v80z" />
    <glyph glyph-name="uniB35C" unicode="&#xb35c;" 
d="M580 780h80v-480h-80v240h-80v80h80v160zM100 700h320v-80h-240v-160h240v-80h-320v320zM180 300h400v-240h-320v-80h320v-80h-400v240h320v80h-320v80z" />
    <glyph glyph-name="uniB35E" unicode="&#xb35e;" 
d="M580 780h80v-400h-80v160h-80v80h80v160zM100 700h320v-80h-240v-160h240v-80h-320v320zM100 300h240v-240h-160v-80h160v-80h-240v240h160v80h-160v80zM420 300h240v-400h-240v400zM500 220v-240h80v240h-80z" />
    <glyph glyph-name="uniB35F" unicode="&#xb35f;" 
d="M580 780h80v-400h-80v160h-80v80h80v160zM100 700h320v-80h-240v-160h240v-80h-320v320zM100 300h240v-240h-160v-80h160v-80h-240v240h160v80h-160v80zM420 300h80v-160h80v160h80v-400h-240v400zM500 60v-80h80v80h-80z" />
    <glyph glyph-name="uniB364" unicode="&#xb364;" 
d="M580 780h80v-480h-80v160h-80v80h80v240zM100 700h320v-80h-240v-240h240v-80h-320v400zM100 220h560v-320h-560v320zM180 140v-160h400v160h-400z" />
    <glyph glyph-name="uniB365" unicode="&#xb365;" 
d="M580 780h80v-480h-80v160h-80v80h80v240zM100 700h320v-80h-240v-240h240v-80h-320v400zM100 220h80v-80h400v80h80v-320h-560v320zM180 60v-80h400v80h-400z" />
    <glyph glyph-name="uniB367" unicode="&#xb367;" 
d="M580 780h80v-560h-80v240h-80v80h80v240zM100 700h320v-80h-240v-240h240v-80h-320v400zM420 220h80v-80h-80v80zM340 140h80v-80h-80v80zM260 60h80v-80h-80v80zM420 60h80v-80h-80v80zM180 -20h80v-80h-80v80zM500 -20h80v-80h-80v80z" />
    <glyph glyph-name="uniB369" unicode="&#xb369;" 
d="M580 780h80v-560h-80v240h-80v80h80v240zM100 700h320v-80h-240v-240h240v-80h-320v400zM260 220h240v-80h-240v80zM180 140h80v-160h-80v160zM500 140h80v-160h-80v160zM260 -20h240v-80h-240v80z" />
    <glyph glyph-name="uniB36B" unicode="&#xb36b;" 
d="M580 780h80v-560h-80v240h-80v80h80v240zM100 700h320v-80h-240v-240h240v-80h-320v400zM340 220h80v-80h240v-80h-160v-80h-80v80h-80v-80h-80v80h-160v80h240v80zM180 -20h80v-80h-80v80zM500 -20h80v-80h-80v80z" />
    <glyph glyph-name="uniB36E" unicode="&#xb36e;" 
d="M580 780h80v-480h-80v160h-80v80h80v240zM100 700h320v-80h-240v-240h240v-80h-320v400zM100 220h560v-80h-80v-160h80v-80h-560v80h80v160h-80v80zM260 140v-160h240v160h-240z" />
    <glyph glyph-name="uniB370" unicode="&#xb370;" 
d="M420 780h80v-880h-80v400h-80v80h80v400zM580 780h80v-880h-80v880zM100 700h240v-80h-160v-480h160v-80h-240v640z" />
    <glyph glyph-name="uniB371" unicode="&#xb371;" 
d="M420 780h80v-480h-80v160h-80v80h80v240zM580 780h80v-480h-80v480zM100 700h240v-80h-160v-240h160v-80h-240v400zM100 220h560v-320h-80v240h-480v80z" />
    <glyph glyph-name="uniB374" unicode="&#xb374;" 
d="M420 780h80v-560h-80v240h-80v80h80v240zM580 780h80v-560h-80v560zM100 700h240v-80h-160v-240h160v-80h-240v400zM100 220h80v-240h480v-80h-560v320z" />
    <glyph glyph-name="uniB378" unicode="&#xb378;" 
d="M100 780h240v-80h-160v-240h160v-80h-240v400zM420 780h80v-400h-80v160h-80v80h80v160zM580 780h80v-400h-80v400zM180 300h400v-240h-320v-80h320v-80h-400v240h320v80h-320v80z" />
    <glyph glyph-name="uniB380" unicode="&#xb380;" 
d="M420 780h80v-480h-80v160h-80v80h80v240zM580 780h80v-480h-80v480zM100 700h240v-80h-160v-240h160v-80h-240v400zM100 220h560v-320h-560v320zM180 140v-160h400v160h-400z" />
    <glyph glyph-name="uniB381" unicode="&#xb381;" 
d="M420 780h80v-480h-80v160h-80v80h80v240zM580 780h80v-480h-80v480zM100 700h240v-80h-160v-240h160v-80h-240v400zM100 220h80v-80h400v80h80v-320h-560v320zM180 60v-80h400v80h-400z" />
    <glyph glyph-name="uniB383" unicode="&#xb383;" 
d="M420 780h80v-480h-80v160h-80v80h80v240zM580 780h80v-480h-80v480zM100 700h240v-80h-160v-240h160v-80h-240v400zM420 220h80v-80h-80v80zM340 140h80v-80h-80v80zM260 60h80v-80h-80v80zM420 60h80v-80h-80v80zM180 -20h80v-80h-80v80zM500 -20h80v-80h-80v80z" />
    <glyph glyph-name="uniB384" unicode="&#xb384;" 
d="M420 780h80v-480h-80v160h-80v80h80v240zM580 780h80v-480h-80v480zM100 700h240v-80h-160v-240h160v-80h-240v400zM180 220h80v-160h-80v160zM500 220h80v-160h-80v160zM100 60h80v-160h-80v160zM260 60h80v-160h-80v160zM420 60h80v-160h-80v160zM580 60h80v-160h-80
v160z" />
    <glyph glyph-name="uniB385" unicode="&#xb385;" 
d="M420 780h80v-480h-80v160h-80v80h80v240zM580 780h80v-480h-80v480zM100 700h240v-80h-160v-240h160v-80h-240v400zM260 220h240v-80h-240v80zM180 140h80v-160h-80v160zM500 140h80v-160h-80v160zM260 -20h240v-80h-240v80z" />
    <glyph glyph-name="uniB38C" unicode="&#xb38c;" 
d="M580 780h80v-880h-80v240h-80v80h80v240h-80v80h80v240zM100 700h320v-80h-240v-480h240v-80h-320v640z" />
    <glyph glyph-name="uniB390" unicode="&#xb390;" 
d="M580 780h80v-560h-80v160h-80v80h80v80h-80v80h80v160zM100 700h320v-80h-240v-240h240v-80h-320v400zM100 220h80v-240h480v-80h-560v320z" />
    <glyph glyph-name="uniB394" unicode="&#xb394;" 
d="M580 780h80v-400h-80v80h-80v80h80v80h-80v80h80v80zM100 700h320v-80h-240v-160h240v-80h-320v320zM180 300h400v-240h-320v-80h320v-80h-400v240h320v80h-320v80z" />
    <glyph glyph-name="uniB3A0" unicode="&#xb3a0;" 
d="M580 780h80v-480h-80v80h-80v80h80v80h-80v80h80v160zM100 700h320v-80h-240v-240h240v-80h-320v400zM180 220h80v-160h-80v160zM500 220h80v-160h-80v160zM100 60h80v-160h-80v160zM260 60h80v-160h-80v160zM420 60h80v-160h-80v160zM580 60h80v-160h-80v160z" />
    <glyph glyph-name="uniB3A1" unicode="&#xb3a1;" 
d="M580 780h80v-560h-80v160h-80v80h80v80h-80v80h80v160zM100 700h320v-80h-240v-240h240v-80h-320v400zM260 220h240v-80h-240v80zM180 140h80v-160h-80v160zM500 140h80v-160h-80v160zM260 -20h240v-80h-240v80z" />
    <glyph glyph-name="uniB3A8" unicode="&#xb3a8;" 
d="M420 780h80v-880h-80v320h-80v80h80v160h-80v80h80v240zM580 780h80v-880h-80v880zM100 700h240v-80h-160v-480h160v-80h-240v640z" />
    <glyph glyph-name="uniB3AC" unicode="&#xb3ac;" 
d="M100 780h240v-80h-160v-400h160v-80h-240v560zM420 780h80v-560h-80v160h-80v80h80v80h-80v80h80v160zM580 780h80v-560h-80v560zM100 140h80v-160h480v-80h-560v240z" />
    <glyph glyph-name="uniB3C4" unicode="&#xb3c4;" 
d="M180 620h400v-80h-320v-160h320v-80h-400v320zM340 220h80v-240h240v-80h-560v80h240v240z" />
    <glyph glyph-name="uniB3C5" unicode="&#xb3c5;" 
d="M180 780h400v-80h-320v-160h320v-80h-160v-80h240v-80h-560v80h240v80h-160v320zM100 220h560v-320h-80v240h-480v80z" />
    <glyph glyph-name="uniB3C8" unicode="&#xb3c8;" 
d="M180 780h400v-80h-320v-160h320v-80h-160v-80h240v-80h-560v80h240v80h-160v320zM100 220h80v-240h480v-80h-560v320z" />
    <glyph glyph-name="uniB3CB" unicode="&#xb3cb;" 
d="M180 780h400v-80h-320v-160h320v-80h-160v-80h240v-80h-560v80h240v80h-160v320zM100 220h560v-80h-400v-160h400v-80h-480v240h-80v80z" />
    <glyph glyph-name="uniB3CC" unicode="&#xb3cc;" 
d="M180 780h400v-80h-320v-80h320v-80h-160v-80h240v-80h-560v80h240v80h-160v240zM180 300h400v-240h-320v-80h320v-80h-400v240h320v80h-320v80z" />
    <glyph glyph-name="uniB3CE" unicode="&#xb3ce;" 
d="M180 780h400v-80h-320v-80h320v-80h-160v-80h240v-80h-560v80h240v80h-160v240zM100 300h240v-240h-160v-80h160v-80h-240v240h160v80h-160v80zM420 300h240v-400h-240v400zM500 220v-240h80v240h-80z" />
    <glyph glyph-name="uniB3D4" unicode="&#xb3d4;" 
d="M180 780h400v-80h-320v-160h320v-80h-160v-80h240v-80h-560v80h240v80h-160v320zM100 220h560v-320h-560v320zM180 140v-160h400v160h-400z" />
    <glyph glyph-name="uniB3D5" unicode="&#xb3d5;" 
d="M180 780h400v-80h-320v-160h320v-80h-160v-80h240v-80h-560v80h240v80h-160v320zM100 220h80v-80h400v80h80v-320h-560v320zM180 60v-80h400v80h-400z" />
    <glyph glyph-name="uniB3D7" unicode="&#xb3d7;" 
d="M180 780h400v-80h-320v-160h320v-80h-160v-80h240v-80h-560v80h240v80h-160v320zM420 220h80v-80h-80v80zM340 140h80v-80h-80v80zM260 60h80v-80h-80v80zM420 60h80v-80h-80v80zM180 -20h80v-80h-80v80zM500 -20h80v-80h-80v80z" />
    <glyph glyph-name="uniB3D9" unicode="&#xb3d9;" 
d="M180 780h400v-80h-320v-160h320v-80h-160v-80h240v-80h-560v80h240v80h-160v320zM260 220h240v-80h-240v80zM180 140h80v-160h-80v160zM500 140h80v-160h-80v160zM260 -20h240v-80h-240v80z" />
    <glyph glyph-name="uniB3DB" unicode="&#xb3db;" 
d="M180 780h400v-80h-320v-160h320v-80h-160v-80h240v-80h-560v80h240v80h-160v320zM340 220h80v-80h240v-80h-160v-80h-80v80h-80v-80h-80v80h-160v80h240v80zM180 -20h80v-80h-80v80zM500 -20h80v-80h-80v80z" />
    <glyph glyph-name="uniB3DD" unicode="&#xb3dd;" 
d="M180 780h400v-80h-320v-80h320v-80h-160v-80h240v-80h-560v80h240v80h-160v240zM180 300h400v-80h-320v-80h320v-80h-320v-80h320v-80h-400v400z" />
    <glyph glyph-name="uniB3E0" unicode="&#xb3e0;" 
d="M500 780h80v-400h80v-80h-80v-400h-80v880zM100 700h320v-80h-240v-240h240v-80h-320v400zM260 220h80v-240h80v-80h-320v80h160v240z" />
    <glyph glyph-name="uniB3E4" unicode="&#xb3e4;" 
d="M100 780h320v-80h-240v-160h240v-80h-80v-80h80v-80h-320v80h160v80h-160v320zM500 780h80v-240h80v-80h-80v-240h-80v560zM100 220h80v-240h480v-80h-560v320z" />
    <glyph glyph-name="uniB3E8" unicode="&#xb3e8;" 
d="M100 780h320v-80h-240v-80h240v-80h-80v-80h80v-80h-320v80h160v80h-160v240zM500 780h80v-160h80v-80h-80v-160h-80v400zM180 300h400v-240h-320v-80h320v-80h-400v240h320v80h-320v80z" />
    <glyph glyph-name="uniB3FC" unicode="&#xb3fc;" 
d="M420 780h80v-400h80v400h80v-880h-80v400h-80v-400h-80v880zM100 700h240v-80h-160v-240h160v-80h-240v400zM180 220h80v-240h80v-80h-240v80h80v240z" />
    <glyph glyph-name="uniB410" unicode="&#xb410;" 
d="M100 780h240v-80h-160v-160h160v-80h-80v-80h80v-80h-240v80h80v80h-80v320zM420 780h80v-240h80v240h80v-480h-80v160h-80v-160h-80v480zM180 220h80v-160h-80v160zM500 220h80v-160h-80v160zM100 60h80v-160h-80v160zM260 60h80v-160h-80v160zM420 60h80v-160h-80v160z
M580 60h80v-160h-80v160z" />
    <glyph glyph-name="uniB418" unicode="&#xb418;" 
d="M580 780h80v-880h-80v880zM100 700h400v-80h-320v-240h320v-80h-400v400zM260 220h80v-240h160v-80h-400v80h160v240z" />
    <glyph glyph-name="uniB41C" unicode="&#xb41c;" 
d="M100 780h400v-80h-320v-160h320v-80h-160v-80h160v-80h-400v80h160v80h-160v320zM580 780h80v-560h-80v560zM100 220h80v-240h480v-80h-560v320z" />
    <glyph glyph-name="uniB420" unicode="&#xb420;" 
d="M100 780h400v-80h-320v-80h320v-80h-160v-80h160v-80h-400v80h160v80h-160v240zM580 780h80v-480h-80v480zM180 300h400v-240h-320v-80h320v-80h-400v240h320v80h-320v80z" />
    <glyph glyph-name="uniB428" unicode="&#xb428;" 
d="M100 780h400v-80h-320v-160h320v-80h-160v-80h160v-80h-400v80h160v80h-160v320zM580 780h80v-480h-80v480zM100 220h560v-320h-560v320zM180 140v-160h400v160h-400z" />
    <glyph glyph-name="uniB429" unicode="&#xb429;" 
d="M100 780h400v-80h-320v-160h320v-80h-160v-80h160v-80h-400v80h160v80h-160v320zM580 780h80v-480h-80v480zM100 220h80v-80h400v80h80v-320h-560v320zM180 60v-80h400v80h-400z" />
    <glyph glyph-name="uniB42B" unicode="&#xb42b;" 
d="M100 780h400v-80h-320v-160h320v-80h-160v-80h160v-80h-400v80h160v80h-160v320zM580 780h80v-560h-80v560zM420 220h80v-80h-80v80zM340 140h80v-80h-80v80zM260 60h80v-80h-80v80zM420 60h80v-80h-80v80zM180 -20h80v-80h-80v80zM500 -20h80v-80h-80v80z" />
    <glyph glyph-name="uniB434" unicode="&#xb434;" 
d="M180 620h400v-80h-320v-160h320v-80h-400v320zM260 220h80v-240h80v240h80v-240h160v-80h-560v80h160v240z" />
    <glyph glyph-name="uniB450" unicode="&#xb450;" 
d="M180 620h400v-80h-320v-160h320v-80h-400v320zM100 220h560v-80h-240v-240h-80v240h-240v80z" />
    <glyph glyph-name="uniB451" unicode="&#xb451;" 
d="M180 780h400v-80h-320v-160h320v-80h-400v320zM100 380h560v-80h-240v-80h240v-320h-80v240h-480v80h240v80h-240v80z" />
    <glyph glyph-name="uniB454" unicode="&#xb454;" 
d="M180 780h400v-80h-320v-160h320v-80h-400v320zM100 380h560v-80h-240v-80h-80v80h-240v80zM100 220h80v-240h480v-80h-560v320z" />
    <glyph glyph-name="uniB458" unicode="&#xb458;" 
d="M180 780h400v-80h-320v-80h320v-80h-400v240zM100 460h560v-80h-240v-80h160v-240h-320v-80h320v-80h-400v240h320v80h-320v80h160v80h-240v80z" />
    <glyph glyph-name="uniB460" unicode="&#xb460;" 
d="M180 780h400v-80h-320v-160h320v-80h-400v320zM100 380h560v-80h-240v-80h240v-320h-560v320h240v80h-240v80zM180 140v-160h400v160h-400z" />
    <glyph glyph-name="uniB461" unicode="&#xb461;" 
d="M180 780h400v-80h-320v-160h320v-80h-400v320zM100 380h560v-80h-240v-80h-80v80h-240v80zM100 220h80v-80h400v80h80v-320h-560v320zM180 60v-80h400v80h-400z" />
    <glyph glyph-name="uniB463" unicode="&#xb463;" 
d="M180 780h400v-80h-320v-160h320v-80h-400v320zM100 380h560v-80h-240v-80h-80v80h-240v80zM420 220h80v-80h-80v80zM340 140h80v-80h-80v80zM260 60h80v-80h-80v80zM420 60h80v-80h-80v80zM180 -20h80v-80h-80v80zM500 -20h80v-80h-80v80z" />
    <glyph glyph-name="uniB465" unicode="&#xb465;" 
d="M180 780h400v-80h-320v-160h320v-80h-400v320zM100 380h560v-80h-240v-80h80v-80h-240v80h80v80h-240v80zM180 140h80v-160h-80v160zM500 140h80v-160h-80v160zM260 -20h240v-80h-240v80z" />
    <glyph glyph-name="uniB46C" unicode="&#xb46c;" 
d="M580 780h80v-880h-80v400h-80v80h80v400zM100 700h320v-80h-240v-240h240v-80h-320v400zM100 220h320v-80h-80v-240h-80v240h-160v80z" />
    <glyph glyph-name="uniB480" unicode="&#xb480;" 
d="M100 780h320v-80h-240v-80h240v-80h-320v240zM580 780h80v-480h-80v160h-80v80h80v240zM100 460h320v-80h-80v-80h-80v80h-160v80zM180 220h80v-160h-80v160zM500 220h80v-160h-80v160zM100 60h80v-160h-80v160zM260 60h80v-160h-80v160zM420 60h80v-160h-80v160zM580 60
h80v-160h-80v160z" />
    <glyph glyph-name="uniB488" unicode="&#xb488;" 
d="M420 780h80v-880h-80v560h-80v80h80v240zM580 780h80v-880h-80v880zM100 700h240v-80h-160v-240h160v-80h-240v400zM100 220h240v-80h-80v-240h-80v240h-80v80z" />
    <glyph glyph-name="uniB49D" unicode="&#xb49d;" 
d="M100 780h240v-80h-160v-160h160v-80h-240v320zM420 780h80v-640h-240v80h160v320h-80v80h80v160zM580 780h80v-560h-80v560zM100 380h240v-80h-80v-80h-80v80h-80v80zM180 140h80v-160h-80v160zM500 140h80v-160h-80v160zM260 -20h240v-80h-240v80z" />
    <glyph glyph-name="uniB4A4" unicode="&#xb4a4;" 
d="M580 780h80v-880h-80v880zM100 700h400v-80h-320v-240h320v-80h-400v400zM100 220h400v-80h-160v-240h-80v240h-160v80z" />
    <glyph glyph-name="uniB4A8" unicode="&#xb4a8;" 
d="M100 780h400v-80h-320v-80h320v-80h-400v240zM580 780h80v-560h-80v560zM100 460h400v-80h-160v-160h-80v160h-160v80zM100 220h80v-240h480v-80h-560v320z" />
    <glyph glyph-name="uniB4AC" unicode="&#xb4ac;" 
d="M100 780h400v-80h-320v-80h320v-80h-400v240zM580 780h80v-480h-80v480zM100 460h400v-80h-160v-80h240v-240h-320v-80h320v-80h-400v240h320v80h-320v80h80v80h-160v80z" />
    <glyph glyph-name="uniB4B5" unicode="&#xb4b5;" 
d="M100 780h400v-80h-320v-80h320v-80h-400v240zM580 780h80v-480h-80v480zM100 460h400v-80h-160v-80h-80v80h-160v80zM100 220h80v-80h400v80h80v-320h-560v320zM180 60v-80h400v80h-400z" />
    <glyph glyph-name="uniB4B7" unicode="&#xb4b7;" 
d="M100 780h400v-80h-320v-80h320v-80h-400v240zM580 780h80v-480h-80v480zM100 460h400v-80h-160v-80h-80v80h-160v80zM420 220h80v-80h-80v80zM340 140h80v-80h-80v80zM260 60h80v-80h-80v80zM420 60h80v-80h-80v80zM180 -20h80v-80h-80v80zM500 -20h80v-80h-80v80z" />
    <glyph glyph-name="uniB4B9" unicode="&#xb4b9;" 
d="M100 780h400v-80h-320v-80h320v-80h-400v240zM580 780h80v-480h-80v480zM100 460h400v-80h-160v-80h-80v80h-160v80zM260 220h240v-80h-240v80zM180 140h80v-160h-80v160zM500 140h80v-160h-80v160zM260 -20h240v-80h-240v80z" />
    <glyph glyph-name="uniB4C0" unicode="&#xb4c0;" 
d="M180 620h400v-80h-320v-160h320v-80h-400v320zM100 220h560v-80h-160v-240h-80v240h-80v-240h-80v240h-160v80z" />
    <glyph glyph-name="uniB4C4" unicode="&#xb4c4;" 
d="M180 780h400v-80h-320v-160h320v-80h-400v320zM100 380h560v-80h-160v-80h-80v80h-80v-80h-80v80h-160v80zM100 220h80v-240h480v-80h-560v320z" />
    <glyph glyph-name="uniB4C8" unicode="&#xb4c8;" 
d="M180 780h400v-80h-320v-80h320v-80h-400v240zM100 460h560v-80h-160v-80h80v-240h-320v-80h320v-80h-400v240h320v80h-320v80h80v80h-160v80zM340 380v-80h80v80h-80z" />
    <glyph glyph-name="uniB4D0" unicode="&#xb4d0;" 
d="M180 780h400v-80h-320v-160h320v-80h-400v320zM100 380h560v-80h-160v-80h160v-320h-560v320h160v80h-160v80zM340 300v-80h80v80h-80zM180 140v-160h400v160h-400z" />
    <glyph glyph-name="uniB4D5" unicode="&#xb4d5;" 
d="M180 780h400v-80h-320v-160h320v-80h-400v320zM100 380h560v-80h-160v-160h-240v160h-160v80zM340 300v-80h80v80h-80zM180 140h80v-160h-80v160zM500 140h80v-160h-80v160zM260 -20h240v-80h-240v80z" />
    <glyph glyph-name="uniB4DC" unicode="&#xb4dc;" 
d="M180 620h400v-80h-320v-240h320v-80h-400v400zM100 -20h560v-80h-560v80z" />
    <glyph glyph-name="uniB4DD" unicode="&#xb4dd;" 
d="M180 780h400v-80h-320v-160h320v-80h-400v320zM100 380h560v-80h-560v80zM100 220h560v-320h-80v240h-480v80z" />
    <glyph glyph-name="uniB4E0" unicode="&#xb4e0;" 
d="M180 780h400v-80h-320v-160h320v-80h-400v320zM100 380h560v-80h-560v80zM100 220h80v-240h480v-80h-560v320z" />
    <glyph glyph-name="uniB4E3" unicode="&#xb4e3;" 
d="M180 780h400v-80h-320v-160h320v-80h-400v320zM100 380h560v-80h-560v80zM100 220h560v-80h-400v-160h400v-80h-480v240h-80v80z" />
    <glyph glyph-name="uniB4E4" unicode="&#xb4e4;" 
d="M180 780h400v-80h-320v-80h320v-80h-400v240zM100 460h560v-80h-560v80zM180 300h400v-240h-320v-80h320v-80h-400v240h320v80h-320v80z" />
    <glyph glyph-name="uniB4E6" unicode="&#xb4e6;" 
d="M180 780h400v-80h-320v-80h320v-80h-400v240zM100 460h560v-80h-560v80zM100 300h240v-240h-160v-80h160v-80h-240v240h160v80h-160v80zM420 300h240v-400h-240v400zM500 220v-240h80v240h-80z" />
    <glyph glyph-name="uniB4EC" unicode="&#xb4ec;" 
d="M180 780h400v-80h-320v-160h320v-80h-400v320zM100 380h560v-80h-560v80zM100 220h560v-320h-560v320zM180 140v-160h400v160h-400z" />
    <glyph glyph-name="uniB4ED" unicode="&#xb4ed;" 
d="M180 780h400v-80h-320v-160h320v-80h-400v320zM100 380h560v-80h-560v80zM100 220h80v-80h400v80h80v-320h-560v320zM180 60v-80h400v80h-400z" />
    <glyph glyph-name="uniB4EF" unicode="&#xb4ef;" 
d="M180 780h400v-80h-320v-160h320v-80h-400v320zM100 380h560v-80h-560v80zM420 220h80v-80h-80v80zM340 140h80v-80h-80v80zM260 60h80v-80h-80v80zM420 60h80v-80h-80v80zM180 -20h80v-80h-80v80zM500 -20h80v-80h-80v80z" />
    <glyph glyph-name="uniB4F1" unicode="&#xb4f1;" 
d="M180 780h400v-80h-320v-160h320v-80h-400v320zM100 380h560v-80h-560v80zM260 220h240v-80h-240v80zM180 140h80v-160h-80v160zM500 140h80v-160h-80v160zM260 -20h240v-80h-240v80z" />
    <glyph glyph-name="uniB4F8" unicode="&#xb4f8;" 
d="M580 780h80v-880h-80v880zM100 700h400v-80h-320v-320h320v-80h-400v480zM100 60h400v-80h-400v80z" />
    <glyph glyph-name="uniB514" unicode="&#xb514;" 
d="M580 780h80v-880h-80v880zM100 700h320v-80h-240v-480h240v-80h-320v640z" />
    <glyph glyph-name="uniB515" unicode="&#xb515;" 
d="M580 780h80v-480h-80v480zM100 700h320v-80h-240v-240h240v-80h-320v400zM100 220h560v-320h-80v240h-480v80z" />
    <glyph glyph-name="uniB518" unicode="&#xb518;" 
d="M580 780h80v-480h-80v480zM100 700h320v-80h-240v-240h240v-80h-320v400zM100 220h80v-240h480v-80h-560v320z" />
    <glyph glyph-name="uniB51B" unicode="&#xb51b;" 
d="M580 780h80v-480h-80v480zM100 700h320v-80h-240v-240h240v-80h-320v400zM100 220h560v-80h-400v-160h400v-80h-480v240h-80v80z" />
    <glyph glyph-name="uniB51C" unicode="&#xb51c;" 
d="M580 780h80v-400h-80v400zM100 700h320v-80h-240v-160h240v-80h-320v320zM180 300h400v-240h-320v-80h320v-80h-400v240h320v80h-320v80z" />
    <glyph glyph-name="uniB524" unicode="&#xb524;" 
d="M580 780h80v-480h-80v480zM100 700h320v-80h-240v-240h240v-80h-320v400zM100 220h560v-320h-560v320zM180 140v-160h400v160h-400z" />
    <glyph glyph-name="uniB525" unicode="&#xb525;" 
d="M580 780h80v-480h-80v480zM100 700h320v-80h-240v-240h240v-80h-320v400zM100 220h80v-80h400v80h80v-320h-560v320zM180 60v-80h400v80h-400z" />
    <glyph glyph-name="uniB527" unicode="&#xb527;" 
d="M580 780h80v-480h-80v480zM100 700h320v-80h-240v-240h240v-80h-320v400zM420 220h80v-80h-80v80zM340 140h80v-80h-80v80zM260 60h80v-80h-80v80zM420 60h80v-80h-80v80zM180 -20h80v-80h-80v80zM500 -20h80v-80h-80v80z" />
    <glyph glyph-name="uniB528" unicode="&#xb528;" 
d="M580 780h80v-480h-80v480zM100 700h320v-80h-240v-240h240v-80h-320v400zM180 220h80v-160h-80v160zM500 220h80v-160h-80v160zM100 60h80v-160h-80v160zM260 60h80v-160h-80v160zM420 60h80v-160h-80v160zM580 60h80v-160h-80v160z" />
    <glyph glyph-name="uniB529" unicode="&#xb529;" 
d="M580 780h80v-480h-80v480zM100 700h320v-80h-240v-240h240v-80h-320v400zM260 220h240v-80h-240v80zM180 140h80v-160h-80v160zM500 140h80v-160h-80v160zM260 -20h240v-80h-240v80z" />
    <glyph glyph-name="uniB52A" unicode="&#xb52a;" 
d="M580 780h80v-480h-80v480zM100 700h320v-80h-240v-240h240v-80h-320v400zM100 220h560v-80h-160v-80h-80v80h-80v-80h-80v80h-160v80zM180 60h80v-80h-80v80zM500 60h80v-80h-80v80zM100 -20h80v-80h-80v80zM580 -20h80v-80h-80v80z" />
    <glyph glyph-name="uniB530" unicode="&#xb530;" 
d="M500 780h80v-400h80v-80h-80v-400h-80v880zM100 620h320v-80h-80v-400h80v-80h-320v560zM180 540v-400h80v400h-80z" />
    <glyph glyph-name="uniB531" unicode="&#xb531;" 
d="M500 780h80v-240h80v-80h-80v-160h-80v480zM100 700h320v-80h-80v-240h80v-80h-320v400zM180 620v-240h80v240h-80zM100 220h560v-320h-80v240h-480v80z" />
    <glyph glyph-name="uniB534" unicode="&#xb534;" 
d="M500 780h80v-240h80v-80h-80v-240h-80v560zM100 700h320v-80h-80v-240h80v-80h-320v400zM180 620v-240h80v240h-80zM100 220h80v-240h480v-80h-560v320z" />
    <glyph glyph-name="uniB538" unicode="&#xb538;" 
d="M500 780h80v-160h80v-80h-80v-160h-80v400zM100 700h320v-80h-80v-160h80v-80h-320v320zM180 620v-160h80v160h-80zM180 300h400v-240h-320v-80h320v-80h-400v240h320v80h-320v80z" />
    <glyph glyph-name="uniB540" unicode="&#xb540;" 
d="M500 780h80v-240h80v-80h-80v-160h-80v480zM100 700h320v-80h-80v-240h80v-80h-320v400zM180 620v-240h80v240h-80zM100 220h560v-320h-560v320zM180 140v-160h400v160h-400z" />
    <glyph glyph-name="uniB541" unicode="&#xb541;" 
d="M500 780h80v-240h80v-80h-80v-160h-80v480zM100 700h320v-80h-80v-240h80v-80h-320v400zM180 620v-240h80v240h-80zM100 220h80v-80h400v80h80v-320h-560v320zM180 60v-80h400v80h-400z" />
    <glyph glyph-name="uniB543" unicode="&#xb543;" 
d="M500 780h80v-240h80v-80h-80v-160h-80v480zM100 700h320v-80h-80v-240h80v-80h-320v400zM180 620v-240h80v240h-80zM420 220h80v-80h-80v80zM340 140h80v-80h-80v80zM260 60h80v-80h-80v80zM420 60h80v-80h-80v80zM180 -20h80v-80h-80v80zM500 -20h80v-80h-80v80z" />
    <glyph glyph-name="uniB544" unicode="&#xb544;" 
d="M500 780h80v-240h80v-80h-80v-160h-80v480zM100 700h320v-80h-80v-240h80v-80h-320v400zM180 620v-240h80v240h-80zM180 220h80v-160h-80v160zM500 220h80v-160h-80v160zM100 60h80v-160h-80v160zM260 60h80v-160h-80v160zM420 60h80v-160h-80v160zM580 60h80v-160h-80
v160z" />
    <glyph glyph-name="uniB545" unicode="&#xb545;" 
d="M500 780h80v-240h80v-80h-80v-160h-80v480zM100 700h320v-80h-80v-240h80v-80h-320v400zM180 620v-240h80v240h-80zM260 220h240v-80h-240v80zM180 140h80v-160h-80v160zM500 140h80v-160h-80v160zM260 -20h240v-80h-240v80z" />
    <glyph glyph-name="uniB54B" unicode="&#xb54b;" 
d="M500 780h80v-240h80v-80h-80v-160h-80v480zM100 700h320v-80h-80v-160h80v-80h-320v320zM180 620v-160h80v160h-80zM340 300h80v-80h240v-80h-160v-80h-240v80h-160v80h240v80zM180 60h80v-80h-80v80zM500 60h80v-80h-80v80zM260 -20h240v-80h-240v80z" />
    <glyph glyph-name="uniB54C" unicode="&#xb54c;" 
d="M420 780h80v-400h80v400h80v-880h-80v400h-80v-400h-80v160h-320v560h320v160zM180 540v-400h80v400h-80zM340 540v-400h80v400h-80z" />
    <glyph glyph-name="uniB54D" unicode="&#xb54d;" 
d="M420 780h80v-240h80v240h80v-480h-80v160h-80v-160h-80v80h-320v320h320v80zM180 620v-160h80v160h-80zM340 620v-160h80v160h-80zM100 220h560v-320h-80v240h-480v80z" />
    <glyph glyph-name="uniB550" unicode="&#xb550;" 
d="M420 780h80v-240h80v240h80v-480h-80v160h-80v-160h-80v80h-320v320h320v80zM180 620v-160h80v160h-80zM340 620v-160h80v160h-80zM100 220h80v-240h480v-80h-560v320z" />
    <glyph glyph-name="uniB554" unicode="&#xb554;" 
d="M420 780h80v-240h80v240h80v-480h-80v160h-80v-160h80v-240h-320v-80h320v-80h-400v240h320v80h-320v80h240v80h-320v320h320v80zM180 620v-160h80v160h-80zM340 620v-160h80v160h-80z" />
    <glyph glyph-name="uniB55C" unicode="&#xb55c;" 
d="M420 780h80v-240h80v240h80v-480h-80v160h-80v-160h-80v80h-320v320h320v80zM180 620v-160h80v160h-80zM340 620v-160h80v160h-80zM100 220h560v-320h-560v320zM180 140v-160h400v160h-400z" />
    <glyph glyph-name="uniB55D" unicode="&#xb55d;" 
d="M420 780h80v-240h80v240h80v-480h-80v160h-80v-160h-80v80h-320v320h320v80zM180 620v-160h80v160h-80zM340 620v-160h80v160h-80zM100 220h80v-80h400v80h80v-320h-560v320zM180 60v-80h400v80h-400z" />
    <glyph glyph-name="uniB55F" unicode="&#xb55f;" 
d="M420 780h80v-240h80v240h80v-480h-80v160h-80v-160h-80v80h-320v320h320v80zM180 620v-160h80v160h-80zM340 620v-160h80v160h-80zM420 220h80v-80h-80v80zM340 140h80v-80h-80v80zM260 60h80v-80h-80v80zM420 60h80v-80h-80v80zM180 -20h80v-80h-80v80zM500 -20h80v-80
h-80v80z" />
    <glyph glyph-name="uniB560" unicode="&#xb560;" 
d="M420 780h80v-240h80v240h80v-480h-80v160h-80v-160h-80v80h-320v320h320v80zM180 620v-160h80v160h-80zM340 620v-160h80v160h-80zM180 220h80v-160h-80v160zM500 220h80v-160h-80v160zM100 60h80v-160h-80v160zM260 60h80v-160h-80v160zM420 60h80v-160h-80v160zM580 60
h80v-160h-80v160z" />
    <glyph glyph-name="uniB561" unicode="&#xb561;" 
d="M420 780h80v-240h80v240h80v-480h-80v160h-80v-160h-80v80h-320v320h320v80zM180 620v-160h80v160h-80zM340 620v-160h80v160h-80zM260 220h240v-80h-240v80zM180 140h80v-160h-80v160zM500 140h80v-160h-80v160zM260 -20h240v-80h-240v80z" />
    <glyph glyph-name="uniB5A0" unicode="&#xb5a0;" 
d="M580 780h80v-880h-80v400h-80v80h80v400zM100 620h320v-80h-80v-400h80v-80h-320v560zM180 540v-400h80v400h-80z" />
    <glyph glyph-name="uniB5A1" unicode="&#xb5a1;" 
d="M580 780h80v-480h-80v160h-80v80h80v240zM100 700h320v-80h-80v-240h80v-80h-320v400zM180 620v-240h80v240h-80zM100 220h560v-320h-80v240h-480v80z" />
    <glyph glyph-name="uniB5A4" unicode="&#xb5a4;" 
d="M580 780h80v-560h-80v240h-80v80h80v240zM100 700h320v-80h-80v-240h80v-80h-320v400zM180 620v-240h80v240h-80zM100 220h80v-240h480v-80h-560v320z" />
    <glyph glyph-name="uniB5A8" unicode="&#xb5a8;" 
d="M580 780h80v-400h-80v160h-80v80h80v160zM100 700h320v-80h-80v-160h80v-80h-320v320zM180 620v-160h80v160h-80zM180 300h400v-240h-320v-80h320v-80h-400v240h320v80h-320v80z" />
    <glyph glyph-name="uniB5AA" unicode="&#xb5aa;" 
d="M580 780h80v-400h-80v160h-80v80h80v160zM100 700h320v-80h-80v-160h80v-80h-320v320zM180 620v-160h80v160h-80zM100 300h240v-240h-160v-80h160v-80h-240v240h160v80h-160v80zM420 300h240v-400h-240v400zM500 220v-240h80v240h-80z" />
    <glyph glyph-name="uniB5AB" unicode="&#xb5ab;" 
d="M580 780h80v-400h-80v160h-80v80h80v160zM100 700h320v-80h-80v-160h80v-80h-320v320zM180 620v-160h80v160h-80zM100 300h240v-240h-160v-80h160v-80h-240v240h160v80h-160v80zM420 300h80v-160h80v160h80v-400h-240v400zM500 60v-80h80v80h-80z" />
    <glyph glyph-name="uniB5B0" unicode="&#xb5b0;" 
d="M580 780h80v-480h-80v160h-80v80h80v240zM100 700h320v-80h-80v-240h80v-80h-320v400zM180 620v-240h80v240h-80zM100 220h560v-320h-560v320zM180 140v-160h400v160h-400z" />
    <glyph glyph-name="uniB5B1" unicode="&#xb5b1;" 
d="M580 780h80v-480h-80v160h-80v80h80v240zM100 700h320v-80h-80v-240h80v-80h-320v400zM180 620v-240h80v240h-80zM100 220h80v-80h400v80h80v-320h-560v320zM180 60v-80h400v80h-400z" />
    <glyph glyph-name="uniB5B3" unicode="&#xb5b3;" 
d="M580 780h80v-560h-80v240h-80v80h80v240zM100 700h320v-80h-80v-240h80v-80h-320v400zM180 620v-240h80v240h-80zM420 220h80v-80h-80v80zM340 140h80v-80h-80v80zM260 60h80v-80h-80v80zM420 60h80v-80h-80v80zM180 -20h80v-80h-80v80zM500 -20h80v-80h-80v80z" />
    <glyph glyph-name="uniB5B4" unicode="&#xb5b4;" 
d="M580 780h80v-480h-80v160h-80v80h80v240zM100 700h320v-80h-80v-240h80v-80h-320v400zM180 620v-240h80v240h-80zM180 220h80v-160h-80v160zM500 220h80v-160h-80v160zM100 60h80v-160h-80v160zM260 60h80v-160h-80v160zM420 60h80v-160h-80v160zM580 60h80v-160h-80v160
z" />
    <glyph glyph-name="uniB5B5" unicode="&#xb5b5;" 
d="M580 780h80v-560h-80v240h-80v80h80v240zM100 700h320v-80h-80v-240h80v-80h-320v400zM180 620v-240h80v240h-80zM260 220h240v-80h-240v80zM180 140h80v-160h-80v160zM500 140h80v-160h-80v160zM260 -20h240v-80h-240v80z" />
    <glyph glyph-name="uniB5BB" unicode="&#xb5bb;" 
d="M580 780h80v-480h-80v160h-80v80h80v240zM100 700h320v-80h-80v-160h80v-80h-320v320zM180 620v-160h80v160h-80zM340 300h80v-80h240v-80h-160v-80h-240v80h-160v80h240v80zM180 60h80v-80h-80v80zM500 60h80v-80h-80v80zM260 -20h240v-80h-240v80z" />
    <glyph glyph-name="uniB5BC" unicode="&#xb5bc;" 
d="M580 780h80v-880h-80v240h-80v240h-80v80h80v160h80v160zM100 620h320v-80h-80v-400h80v-80h-320v560zM180 540v-400h80v400h-80z" />
    <glyph glyph-name="uniB5BD" unicode="&#xb5bd;" 
d="M580 780h80v-560h-80v80h-80v160h-80v80h80v160h80v80zM100 700h320v-80h-80v-240h80v-80h-320v400zM180 620v-240h80v240h-80zM100 140h560v-240h-80v160h-480v80z" />
    <glyph glyph-name="uniB5C0" unicode="&#xb5c0;" 
d="M580 780h80v-560h-80v80h-80v160h-80v80h80v160h80v80zM100 700h320v-80h-80v-240h80v-80h-320v400zM180 620v-240h80v240h-80zM100 220h80v-240h480v-80h-560v320z" />
    <glyph glyph-name="uniB5C4" unicode="&#xb5c4;" 
d="M580 780h80v-480h-80v160h-80v80h-80v80h80v80h80v80zM100 700h320v-80h-80v-160h80v-80h-320v320zM180 620v-160h80v160h-80zM180 300h400v-240h-320v-80h320v-80h-400v240h320v80h-320v80z" />
    <glyph glyph-name="uniB5CC" unicode="&#xb5cc;" 
d="M580 780h80v-880h-560v320h480v80h-80v160h-80v80h80v160h80v80zM100 700h320v-80h-80v-240h80v-80h-320v400zM180 620v-240h80v240h-80zM180 140v-160h400v160h-400z" />
    <glyph glyph-name="uniB5CD" unicode="&#xb5cd;" 
d="M580 780h80v-880h-560v320h80v-80h400v160h-80v160h-80v80h80v160h80v80zM100 700h320v-80h-80v-240h80v-80h-320v400zM180 620v-240h80v240h-80zM180 60v-80h400v80h-400z" />
    <glyph glyph-name="uniB5CF" unicode="&#xb5cf;" 
d="M580 780h80v-560h-80v80h-80v160h-80v80h80v160h80v80zM100 700h320v-80h-80v-240h80v-80h-320v400zM180 620v-240h80v240h-80zM420 220h80v-80h-80v80zM340 140h80v-80h-80v80zM260 60h80v-80h-80v80zM420 60h80v-80h-80v80zM180 -20h80v-80h-80v80zM500 -20h80v-80h-80
v80z" />
    <glyph glyph-name="uniB5D0" unicode="&#xb5d0;" 
d="M580 780h80v-560h-80v80h-80v160h-80v80h80v160h80v80zM100 700h320v-80h-80v-240h80v-80h-320v400zM180 620v-240h80v240h-80zM180 220h80v-160h-80v160zM500 220h80v-160h-80v160zM100 60h80v-160h-80v160zM260 60h80v-160h-80v160zM420 60h80v-160h-80v160zM580 60h80
v-160h-80v160z" />
    <glyph glyph-name="uniB5D1" unicode="&#xb5d1;" 
d="M580 780h80v-560h-80v80h-80v160h-80v80h80v160h80v80zM100 700h320v-80h-80v-240h80v-80h-320v400zM180 620v-240h80v240h-80zM260 220h240v-80h-240v80zM180 140h80v-160h-80v160zM500 140h80v-160h-80v160zM260 -20h240v-80h-240v80z" />
    <glyph glyph-name="uniB5D8" unicode="&#xb5d8;" 
d="M580 780h80v-880h-80v240h-80v80h80v240h-80v80h80v240zM100 620h320v-80h-80v-400h80v-80h-320v560zM180 540v-400h80v400h-80z" />
    <glyph glyph-name="uniB5EC" unicode="&#xb5ec;" 
d="M580 780h80v-560h-80v160h-80v80h80v80h-80v80h80v160zM100 700h320v-80h-80v-240h80v-80h-320v400zM180 620v-240h80v240h-80zM180 220h80v-160h-80v160zM500 220h80v-160h-80v160zM100 60h80v-160h-80v160zM260 60h80v-160h-80v160zM420 60h80v-160h-80v160zM580 60h80
v-160h-80v160z" />
    <glyph glyph-name="uniB610" unicode="&#xb610;" 
d="M180 620h400v-80h-160v-160h160v-80h-400v320zM260 540v-160h80v160h-80zM340 220h80v-240h240v-80h-560v80h240v240z" />
    <glyph glyph-name="uniB611" unicode="&#xb611;" 
d="M180 780h400v-80h-160v-160h160v-80h-160v-80h240v-80h-560v80h240v80h-160v320zM260 700v-160h80v160h-80zM100 220h560v-320h-80v240h-480v80z" />
    <glyph glyph-name="uniB614" unicode="&#xb614;" 
d="M180 780h400v-80h-160v-160h160v-80h-160v-80h240v-80h-560v80h240v80h-160v320zM260 700v-160h80v160h-80zM100 220h80v-240h480v-80h-560v320z" />
    <glyph glyph-name="uniB618" unicode="&#xb618;" 
d="M180 780h400v-80h-160v-80h160v-80h-160v-80h240v-80h-560v80h240v80h-160v240zM260 700v-80h80v80h-80zM180 300h400v-240h-320v-80h320v-80h-400v240h320v80h-320v80z" />
    <glyph glyph-name="uniB625" unicode="&#xb625;" 
d="M180 780h400v-80h-160v-160h160v-80h-160v-80h240v-80h-560v80h240v80h-160v320zM260 700v-160h80v160h-80zM260 220h240v-80h-240v80zM180 140h80v-160h-80v160zM500 140h80v-160h-80v160zM260 -20h240v-80h-240v80z" />
    <glyph glyph-name="uniB62C" unicode="&#xb62c;" 
d="M500 780h80v-400h80v-80h-80v-400h-80v880zM100 700h320v-80h-80v-240h80v-80h-320v400zM180 620v-240h80v240h-80zM260 220h80v-240h80v-80h-320v80h160v240z" />
    <glyph glyph-name="uniB634" unicode="&#xb634;" 
d="M100 780h320v-80h-80v-80h80v-80h-80v-80h80v-80h-320v80h160v80h-160v240zM500 780h80v-160h80v-80h-80v-160h-80v400zM180 700v-80h80v80h-80zM180 300h400v-240h-320v-80h320v-80h-400v240h320v80h-320v80z" />
    <glyph glyph-name="uniB648" unicode="&#xb648;" 
d="M420 780h80v-320h80v320h80v-880h-80v480h-80v-480h-80v400h-320v400h320v80zM180 620v-240h80v240h-80zM340 620v-240h80v240h-80zM180 220h80v-240h80v-80h-240v80h80v240z" />
    <glyph glyph-name="uniB664" unicode="&#xb664;" 
d="M580 780h80v-880h-80v880zM100 700h400v-80h-160v-240h160v-80h-400v400zM180 620v-240h80v240h-80zM260 220h80v-240h160v-80h-400v80h160v240z" />
    <glyph glyph-name="uniB668" unicode="&#xb668;" 
d="M100 780h400v-80h-160v-160h160v-80h-160v-80h160v-80h-400v80h160v80h-160v320zM580 780h80v-560h-80v560zM180 700v-160h80v160h-80zM100 220h80v-240h480v-80h-560v320z" />
    <glyph glyph-name="uniB69C" unicode="&#xb69c;" 
d="M180 620h400v-80h-160v-160h160v-80h-400v320zM260 540v-160h80v160h-80zM100 220h560v-80h-240v-240h-80v240h-240v80z" />
    <glyph glyph-name="uniB69D" unicode="&#xb69d;" 
d="M180 780h400v-80h-160v-160h160v-80h-400v320zM260 700v-160h80v160h-80zM100 380h560v-80h-240v-80h240v-320h-80v240h-480v80h240v80h-240v80z" />
    <glyph glyph-name="uniB6A0" unicode="&#xb6a0;" 
d="M180 780h400v-80h-160v-160h160v-80h-400v320zM260 700v-160h80v160h-80zM100 380h560v-80h-240v-80h-80v80h-240v80zM100 220h80v-240h480v-80h-560v320z" />
    <glyph glyph-name="uniB6A4" unicode="&#xb6a4;" 
d="M180 780h400v-80h-160v-80h160v-80h-400v240zM260 700v-80h80v80h-80zM100 460h560v-80h-240v-80h160v-240h-320v-80h320v-80h-400v240h320v80h-320v80h160v80h-240v80z" />
    <glyph glyph-name="uniB6AB" unicode="&#xb6ab;" 
d="M180 780h400v-80h-160v-80h160v-80h-400v240zM260 700v-80h80v80h-80zM100 460h560v-80h-240v-80h-80v80h-240v80zM100 300h240v-80h80v80h160v-80h80v-80h-80v-80h-160v80h-80v-80h-160v-80h160v-80h-240v240h160v80h-160v80zM340 60h80v-80h-80v80zM580 60h80v-80h-80
v80zM420 -20h160v-80h-160v80z" />
    <glyph glyph-name="uniB6AC" unicode="&#xb6ac;" 
d="M180 780h400v-80h-160v-160h160v-80h-400v320zM260 700v-160h80v160h-80zM100 380h560v-80h-240v-80h240v-320h-560v320h240v80h-240v80zM180 140v-160h400v160h-400z" />
    <glyph glyph-name="uniB6B1" unicode="&#xb6b1;" 
d="M180 780h400v-80h-160v-160h160v-80h-400v320zM260 700v-160h80v160h-80zM100 380h560v-80h-240v-80h80v-80h-240v80h80v80h-240v80zM180 140h80v-160h-80v160zM500 140h80v-160h-80v160zM260 -20h240v-80h-240v80z" />
    <glyph glyph-name="uniB6D4" unicode="&#xb6d4;" 
d="M580 780h80v-880h-80v240h-80v320h-80v80h80v160h80v80zM100 700h320v-80h-80v-240h80v-80h-320v400zM180 620v-240h80v240h-80zM100 220h320v-80h-80v-240h-80v240h-160v80z" />
    <glyph glyph-name="uniB6F0" unicode="&#xb6f0;" 
d="M580 780h80v-880h-80v880zM100 700h400v-80h-160v-240h160v-80h-400v400zM180 620v-240h80v240h-80zM100 220h400v-80h-160v-240h-80v240h-160v80z" />
    <glyph glyph-name="uniB6F4" unicode="&#xb6f4;" 
d="M100 780h400v-80h-160v-160h160v-80h-400v320zM580 780h80v-560h-80v560zM180 700v-160h80v160h-80zM100 380h400v-80h-160v-80h-80v80h-160v80zM100 220h80v-240h480v-80h-560v320z" />
    <glyph glyph-name="uniB6F8" unicode="&#xb6f8;" 
d="M100 780h400v-80h-160v-80h160v-80h-400v240zM580 780h80v-480h-80v480zM180 700v-80h80v80h-80zM100 460h400v-80h-160v-80h240v-240h-320v-80h320v-80h-400v240h320v80h-320v80h80v80h-160v80z" />
    <glyph glyph-name="uniB700" unicode="&#xb700;" 
d="M100 780h400v-80h-160v-160h160v-80h-400v320zM580 780h80v-480h-80v480zM180 700v-160h80v160h-80zM100 380h400v-80h-160v-80h320v-320h-560v320h160v80h-160v80zM180 140v-160h400v160h-400z" />
    <glyph glyph-name="uniB701" unicode="&#xb701;" 
d="M100 780h400v-80h-160v-160h160v-80h-400v320zM580 780h80v-480h-80v480zM180 700v-160h80v160h-80zM100 380h400v-80h-160v-80h-80v80h-160v80zM100 220h80v-80h400v80h80v-320h-560v320zM180 60v-80h400v80h-400z" />
    <glyph glyph-name="uniB705" unicode="&#xb705;" 
d="M100 780h400v-80h-160v-160h160v-80h-400v320zM580 780h80v-480h-80v480zM180 700v-160h80v160h-80zM100 380h400v-80h-160v-80h160v-80h-240v160h-160v80zM180 140h80v-160h-80v160zM500 140h80v-160h-80v160zM260 -20h240v-80h-240v80z" />
    <glyph glyph-name="uniB728" unicode="&#xb728;" 
d="M180 620h400v-80h-160v-240h160v-80h-400v400zM260 540v-240h80v240h-80zM100 -20h560v-80h-560v80z" />
    <glyph glyph-name="uniB729" unicode="&#xb729;" 
d="M180 780h400v-80h-160v-160h160v-80h-400v320zM260 700v-160h80v160h-80zM100 380h560v-80h-560v80zM100 220h560v-320h-80v240h-480v80z" />
    <glyph glyph-name="uniB72C" unicode="&#xb72c;" 
d="M180 780h400v-80h-160v-160h160v-80h-400v320zM260 700v-160h80v160h-80zM100 380h560v-80h-560v80zM100 220h80v-240h480v-80h-560v320z" />
    <glyph glyph-name="uniB72F" unicode="&#xb72f;" 
d="M180 780h400v-80h-160v-160h160v-80h-400v320zM260 700v-160h80v160h-80zM100 380h560v-80h-560v80zM100 220h560v-80h-400v-160h400v-80h-480v240h-80v80z" />
    <glyph glyph-name="uniB730" unicode="&#xb730;" 
d="M180 780h400v-80h-160v-80h160v-80h-400v240zM260 700v-80h80v80h-80zM100 460h560v-80h-560v80zM180 300h400v-240h-320v-80h320v-80h-400v240h320v80h-320v80z" />
    <glyph glyph-name="uniB738" unicode="&#xb738;" 
d="M180 780h400v-80h-160v-160h160v-80h-400v320zM260 700v-160h80v160h-80zM100 380h560v-80h-560v80zM100 220h560v-320h-560v320zM180 140v-160h400v160h-400z" />
    <glyph glyph-name="uniB739" unicode="&#xb739;" 
d="M180 780h400v-80h-160v-160h160v-80h-400v320zM260 700v-160h80v160h-80zM100 380h560v-80h-560v80zM100 220h80v-80h400v80h80v-320h-560v320zM180 60v-80h400v80h-400z" />
    <glyph glyph-name="uniB73B" unicode="&#xb73b;" 
d="M180 780h400v-80h-160v-160h160v-80h-400v320zM260 700v-160h80v160h-80zM100 380h560v-80h-560v80zM420 220h80v-80h-80v80zM340 140h80v-80h-80v80zM260 60h80v-80h-80v80zM420 60h80v-80h-80v80zM180 -20h80v-80h-80v80zM500 -20h80v-80h-80v80z" />
    <glyph glyph-name="uniB744" unicode="&#xb744;" 
d="M580 780h80v-880h-80v880zM100 620h400v-80h-160v-320h160v-80h-400v480zM180 540v-320h80v320h-80zM100 60h400v-80h-400v80z" />
    <glyph glyph-name="uniB748" unicode="&#xb748;" 
d="M580 780h80v-560h-80v560zM100 700h400v-80h-160v-80h160v-80h-400v240zM180 620v-80h80v80h-80zM100 380h400v-80h-400v80zM100 220h80v-240h480v-80h-560v320z" />
    <glyph glyph-name="uniB74C" unicode="&#xb74c;" 
d="M100 780h400v-80h-160v-80h160v-80h-400v240zM580 780h80v-480h-80v480zM180 700v-80h80v80h-80zM100 460h400v-80h-400v80zM180 300h400v-240h-320v-80h320v-80h-400v240h320v80h-320v80z" />
    <glyph glyph-name="uniB754" unicode="&#xb754;" 
d="M580 780h80v-480h-80v480zM100 700h400v-80h-160v-80h160v-80h-400v240zM180 620v-80h80v80h-80zM100 380h400v-80h-400v80zM100 220h560v-320h-560v320zM180 140v-160h400v160h-400z" />
    <glyph glyph-name="uniB755" unicode="&#xb755;" 
d="M580 780h80v-480h-80v480zM100 700h400v-80h-160v-80h160v-80h-400v240zM180 620v-80h80v80h-80zM100 380h400v-80h-400v80zM100 220h80v-80h400v80h80v-320h-560v320zM180 60v-80h400v80h-400z" />
    <glyph glyph-name="uniB760" unicode="&#xb760;" 
d="M580 780h80v-880h-80v880zM100 620h400v-80h-160v-400h160v-80h-400v560zM180 540v-400h80v400h-80z" />
    <glyph glyph-name="uniB764" unicode="&#xb764;" 
d="M580 780h80v-560h-80v560zM100 700h400v-80h-160v-240h160v-80h-400v400zM180 620v-240h80v240h-80zM100 220h80v-240h480v-80h-560v320z" />
    <glyph glyph-name="uniB768" unicode="&#xb768;" 
d="M580 780h80v-400h-80v400zM100 700h400v-80h-160v-160h160v-80h-400v320zM180 620v-160h80v160h-80zM180 300h400v-240h-320v-80h320v-80h-400v240h320v80h-320v80z" />
    <glyph glyph-name="uniB770" unicode="&#xb770;" 
d="M580 780h80v-480h-80v480zM100 700h400v-80h-160v-240h160v-80h-400v400zM180 620v-240h80v240h-80zM100 220h560v-320h-560v320zM180 140v-160h400v160h-400z" />
    <glyph glyph-name="uniB771" unicode="&#xb771;" 
d="M580 780h80v-480h-80v480zM100 700h400v-80h-160v-240h160v-80h-400v400zM180 620v-240h80v240h-80zM100 220h80v-80h400v80h80v-320h-560v320zM180 60v-80h400v80h-400z" />
    <glyph glyph-name="uniB773" unicode="&#xb773;" 
d="M580 780h80v-480h-80v480zM100 700h400v-80h-160v-240h160v-80h-400v400zM180 620v-240h80v240h-80zM420 220h80v-80h-80v80zM340 140h80v-80h-80v80zM260 60h80v-80h-80v80zM420 60h80v-80h-80v80zM180 -20h80v-80h-80v80zM500 -20h80v-80h-80v80z" />
    <glyph glyph-name="uniB775" unicode="&#xb775;" 
d="M580 780h80v-480h-80v480zM100 700h400v-80h-160v-240h160v-80h-400v400zM180 620v-240h80v240h-80zM260 220h240v-80h-240v80zM180 140h80v-160h-80v160zM500 140h80v-160h-80v160zM260 -20h240v-80h-240v80z" />
    <glyph glyph-name="uniB77C" unicode="&#xb77c;" 
d="M500 780h80v-400h80v-80h-80v-400h-80v880zM100 700h320v-320h-240v-160h240v-80h-320v320h240v160h-240v80z" />
    <glyph glyph-name="uniB77D" unicode="&#xb77d;" 
d="M500 780h80v-240h80v-80h-80v-160h-80v480zM100 700h320v-240h-240v-80h240v-80h-320v240h240v80h-240v80zM100 220h560v-320h-80v240h-480v80z" />
    <glyph glyph-name="uniB780" unicode="&#xb780;" 
d="M500 780h80v-240h80v-80h-80v-240h-80v560zM100 700h320v-240h-240v-80h240v-80h-320v240h240v80h-240v80zM100 220h80v-240h480v-80h-560v320z" />
    <glyph glyph-name="uniB784" unicode="&#xb784;" 
d="M100 780h320v-240h-240v-80h240v-80h-320v240h240v80h-240v80zM500 780h80v-160h80v-80h-80v-160h-80v400zM180 300h400v-240h-320v-80h320v-80h-400v240h320v80h-320v80z" />
    <glyph glyph-name="uniB78C" unicode="&#xb78c;" 
d="M500 780h80v-240h80v-80h-80v-160h-80v480zM100 700h320v-240h-240v-80h240v-80h-320v240h240v80h-240v80zM100 220h560v-320h-560v320zM180 140v-160h400v160h-400z" />
    <glyph glyph-name="uniB78D" unicode="&#xb78d;" 
d="M500 780h80v-240h80v-80h-80v-160h-80v480zM100 700h320v-240h-240v-80h240v-80h-320v240h240v80h-240v80zM100 220h80v-80h400v80h80v-320h-560v320zM180 60v-80h400v80h-400z" />
    <glyph glyph-name="uniB78F" unicode="&#xb78f;" 
d="M100 700h320v-240h-240v-80h240v-80h-320v240h240v80h-240v80zM500 700h80v-160h80v-80h-80v-160h-80v400zM420 220h80v-80h-80v80zM340 140h80v-80h-80v80zM260 60h80v-80h-80v80zM420 60h80v-80h-80v80zM180 -20h80v-80h-80v80zM500 -20h80v-80h-80v80z" />
    <glyph glyph-name="uniB790" unicode="&#xb790;" 
d="M500 780h80v-240h80v-80h-80v-160h-80v480zM100 700h320v-240h-240v-80h240v-80h-320v240h240v80h-240v80zM180 220h80v-160h-80v160zM500 220h80v-160h-80v160zM100 60h80v-160h-80v160zM260 60h80v-160h-80v160zM420 60h80v-160h-80v160zM580 60h80v-160h-80v160z" />
    <glyph glyph-name="uniB791" unicode="&#xb791;" 
d="M500 780h80v-240h80v-80h-80v-160h-80v480zM100 700h320v-240h-240v-80h240v-80h-320v240h240v80h-240v80zM260 220h240v-80h-240v80zM180 140h80v-160h-80v160zM500 140h80v-160h-80v160zM260 -20h240v-80h-240v80z" />
    <glyph glyph-name="uniB792" unicode="&#xb792;" 
d="M500 780h80v-240h80v-80h-80v-160h-80v480zM100 700h320v-240h-240v-80h240v-80h-320v240h240v80h-240v80zM100 220h560v-80h-160v-80h-80v80h-80v-80h-80v80h-160v80zM180 60h80v-80h-80v80zM500 60h80v-80h-80v80zM100 -20h80v-80h-80v80zM580 -20h80v-80h-80v80z" />
    <glyph glyph-name="uniB796" unicode="&#xb796;" 
d="M500 780h80v-240h80v-80h-80v-160h-80v480zM100 700h320v-240h-240v-80h240v-80h-320v240h240v80h-240v80zM100 220h560v-80h-80v-160h80v-80h-560v80h80v160h-80v80zM260 140v-160h240v160h-240z" />
    <glyph glyph-name="uniB797" unicode="&#xb797;" 
d="M100 780h320v-240h-240v-80h240v-80h-320v240h240v80h-240v80zM500 780h80v-160h80v-80h-80v-160h-80v400zM340 300h80v-80h240v-80h-160v-80h-240v80h-160v80h240v80zM180 60h80v-80h-80v80zM500 60h80v-80h-80v80zM260 -20h240v-80h-240v80z" />
    <glyph glyph-name="uniB798" unicode="&#xb798;" 
d="M420 780h80v-400h80v400h80v-880h-80v400h-80v-400h-80v880zM100 700h240v-320h-160v-160h160v-80h-240v320h160v160h-160v80z" />
    <glyph glyph-name="uniB799" unicode="&#xb799;" 
d="M420 780h80v-240h80v240h80v-480h-80v160h-80v-160h-80v480zM100 700h240v-240h-160v-80h160v-80h-240v240h160v80h-160v80zM100 220h560v-320h-80v240h-480v80z" />
    <glyph glyph-name="uniB79C" unicode="&#xb79c;" 
d="M420 780h80v-240h80v240h80v-560h-80v240h-80v-240h-80v560zM100 700h240v-240h-160v-80h160v-80h-240v240h160v80h-160v80zM100 220h80v-240h480v-80h-560v320z" />
    <glyph glyph-name="uniB7A0" unicode="&#xb7a0;" 
d="M100 780h240v-240h-160v-80h160v-80h-240v240h160v80h-160v80zM420 780h80v-160h80v160h80v-400h-80v160h-80v-160h-80v400zM180 300h400v-240h-320v-80h320v-80h-400v240h320v80h-320v80z" />
    <glyph glyph-name="uniB7A8" unicode="&#xb7a8;" 
d="M420 780h80v-240h80v240h80v-480h-80v160h-80v-160h-80v480zM100 700h240v-240h-160v-80h160v-80h-240v240h160v80h-160v80zM100 220h560v-320h-560v320zM180 140v-160h400v160h-400z" />
    <glyph glyph-name="uniB7A9" unicode="&#xb7a9;" 
d="M420 780h80v-240h80v240h80v-480h-80v160h-80v-160h-80v480zM100 700h240v-240h-160v-80h160v-80h-240v240h160v80h-160v80zM100 220h80v-80h400v80h80v-320h-560v320zM180 60v-80h400v80h-400z" />
    <glyph glyph-name="uniB7AB" unicode="&#xb7ab;" 
d="M420 780h80v-240h80v240h80v-480h-80v160h-80v-160h-80v480zM100 700h240v-240h-160v-80h160v-80h-240v240h160v80h-160v80zM420 220h80v-80h-80v80zM340 140h80v-80h-80v80zM260 60h80v-80h-80v80zM420 60h80v-80h-80v80zM180 -20h80v-80h-80v80zM500 -20h80v-80h-80v80
z" />
    <glyph glyph-name="uniB7AC" unicode="&#xb7ac;" 
d="M420 780h80v-240h80v240h80v-480h-80v160h-80v-160h-80v480zM100 700h240v-240h-160v-80h160v-80h-240v240h160v80h-160v80zM180 220h80v-160h-80v160zM500 220h80v-160h-80v160zM100 60h80v-160h-80v160zM260 60h80v-160h-80v160zM420 60h80v-160h-80v160zM580 60h80
v-160h-80v160z" />
    <glyph glyph-name="uniB7AD" unicode="&#xb7ad;" 
d="M420 780h80v-240h80v240h80v-480h-80v160h-80v-160h-80v480zM100 700h240v-240h-160v-80h160v-80h-240v240h160v80h-160v80zM260 220h240v-80h-240v80zM180 140h80v-160h-80v160zM500 140h80v-160h-80v160zM260 -20h240v-80h-240v80z" />
    <glyph glyph-name="uniB7B4" unicode="&#xb7b4;" 
d="M500 780h80v-240h80v-80h-80v-240h80v-80h-80v-240h-80v880zM100 700h320v-320h-240v-160h240v-80h-320v320h240v160h-240v80z" />
    <glyph glyph-name="uniB7B5" unicode="&#xb7b5;" 
d="M500 780h80v-160h80v-80h-80v-80h80v-80h-80v-80h-80v480zM100 700h320v-240h-240v-80h240v-80h-320v240h240v80h-240v80zM100 220h560v-320h-80v240h-480v80z" />
    <glyph glyph-name="uniB7B8" unicode="&#xb7b8;" 
d="M500 780h80v-160h80v-80h-80v-80h80v-80h-80v-160h-80v560zM100 700h320v-240h-240v-80h240v-80h-320v240h240v80h-240v80zM100 220h80v-240h480v-80h-560v320z" />
    <glyph glyph-name="uniB7C7" unicode="&#xb7c7;" 
d="M500 780h80v-160h80v-80h-80v-80h80v-80h-80v-80h-80v480zM100 700h320v-240h-240v-80h240v-80h-320v240h240v80h-240v80zM420 220h80v-80h-80v80zM340 140h80v-80h-80v80zM260 60h80v-80h-80v80zM420 60h80v-80h-80v80zM180 -20h80v-80h-80v80zM500 -20h80v-80h-80v80z
" />
    <glyph glyph-name="uniB7C9" unicode="&#xb7c9;" 
d="M500 780h80v-160h80v-80h-80v-80h80v-80h-80v-80h-80v480zM100 700h320v-240h-240v-80h240v-80h-320v240h240v80h-240v80zM260 220h240v-80h-240v80zM180 140h80v-160h-80v160zM500 140h80v-160h-80v160zM260 -20h240v-80h-240v80z" />
    <glyph glyph-name="uniB7EC" unicode="&#xb7ec;" 
d="M580 780h80v-880h-80v400h-80v80h80v400zM100 700h320v-320h-240v-160h240v-80h-320v320h240v160h-240v80z" />
    <glyph glyph-name="uniB7ED" unicode="&#xb7ed;" 
d="M580 780h80v-480h-80v160h-80v80h80v240zM100 700h320v-240h-240v-80h240v-80h-320v240h240v80h-240v80zM100 220h560v-320h-80v240h-480v80z" />
    <glyph glyph-name="uniB7F0" unicode="&#xb7f0;" 
d="M580 780h80v-560h-80v240h-80v80h80v240zM100 700h320v-240h-240v-80h240v-80h-320v240h240v80h-240v80zM100 220h80v-240h480v-80h-560v320z" />
    <glyph glyph-name="uniB7F4" unicode="&#xb7f4;" 
d="M100 780h320v-240h-240v-80h240v-80h-320v240h240v80h-240v80zM580 780h80v-400h-80v160h-80v80h80v160zM180 300h400v-240h-320v-80h320v-80h-400v240h320v80h-320v80z" />
    <glyph glyph-name="uniB7FC" unicode="&#xb7fc;" 
d="M580 780h80v-480h-80v160h-80v80h80v240zM100 700h320v-240h-240v-80h240v-80h-320v240h240v80h-240v80zM100 220h560v-320h-560v320zM180 140v-160h400v160h-400z" />
    <glyph glyph-name="uniB7FD" unicode="&#xb7fd;" 
d="M580 780h80v-480h-80v160h-80v80h80v240zM100 700h320v-240h-240v-80h240v-80h-320v240h240v80h-240v80zM100 220h80v-80h400v80h80v-320h-560v320zM180 60v-80h400v80h-400z" />
    <glyph glyph-name="uniB7FF" unicode="&#xb7ff;" 
d="M580 780h80v-560h-80v240h-80v80h80v240zM100 700h320v-240h-240v-80h240v-80h-320v240h240v80h-240v80zM420 220h80v-80h-80v80zM340 140h80v-80h-80v80zM260 60h80v-80h-80v80zM420 60h80v-80h-80v80zM180 -20h80v-80h-80v80zM500 -20h80v-80h-80v80z" />
    <glyph glyph-name="uniB800" unicode="&#xb800;" 
d="M580 780h80v-480h-80v160h-80v80h80v240zM100 700h320v-240h-240v-80h240v-80h-320v240h240v80h-240v80zM180 220h80v-160h-80v160zM500 220h80v-160h-80v160zM100 60h80v-160h-80v160zM260 60h80v-160h-80v160zM420 60h80v-160h-80v160zM580 60h80v-160h-80v160z" />
    <glyph glyph-name="uniB801" unicode="&#xb801;" 
d="M580 780h80v-560h-80v240h-80v80h80v240zM100 700h320v-240h-240v-80h240v-80h-320v240h240v80h-240v80zM260 220h240v-80h-240v80zM180 140h80v-160h-80v160zM500 140h80v-160h-80v160zM260 -20h240v-80h-240v80z" />
    <glyph glyph-name="uniB807" unicode="&#xb807;" 
d="M100 780h320v-240h-240v-80h240v-80h-320v240h240v80h-240v80zM580 780h80v-480h-80v240h-80v80h80v160zM340 300h80v-80h240v-80h-160v-80h-240v80h-160v80h240v80zM180 60h80v-80h-80v80zM500 60h80v-80h-80v80zM260 -20h240v-80h-240v80z" />
    <glyph glyph-name="uniB808" unicode="&#xb808;" 
d="M420 780h80v-880h-80v240h-80v80h80v560zM580 780h80v-880h-80v880zM100 700h240v-400h-160v-240h160v-80h-240v400h160v240h-160v80z" />
    <glyph glyph-name="uniB809" unicode="&#xb809;" 
d="M100 780h240v-240h-160v-160h160v-80h-240v320h160v80h-160v80zM420 780h80v-480h-80v160h-80v80h80v240zM580 780h80v-480h-80v480zM100 220h560v-320h-80v240h-480v80z" />
    <glyph glyph-name="uniB80C" unicode="&#xb80c;" 
d="M100 780h240v-240h-160v-160h160v-80h-240v320h160v80h-160v80zM420 780h80v-560h-80v240h-80v80h80v240zM580 780h80v-560h-80v560zM100 220h80v-240h480v-80h-560v320z" />
    <glyph glyph-name="uniB810" unicode="&#xb810;" 
d="M100 780h240v-240h-160v-80h160v-80h-240v240h160v80h-160v80zM420 780h80v-400h-80v80h-80v80h80v240zM580 780h80v-400h-80v400zM180 300h400v-240h-320v-80h320v-80h-400v240h320v80h-320v80z" />
    <glyph glyph-name="uniB818" unicode="&#xb818;" 
d="M100 780h240v-240h-160v-160h160v-80h-240v320h160v80h-160v80zM420 780h80v-480h-80v160h-80v80h80v240zM580 780h80v-480h-80v480zM100 220h560v-320h-560v320zM180 140v-160h400v160h-400z" />
    <glyph glyph-name="uniB819" unicode="&#xb819;" 
d="M100 780h240v-240h-160v-160h160v-80h-240v320h160v80h-160v80zM420 780h80v-480h-80v160h-80v80h80v240zM580 780h80v-480h-80v480zM100 220h80v-80h400v80h80v-320h-560v320zM180 60v-80h400v80h-400z" />
    <glyph glyph-name="uniB81B" unicode="&#xb81b;" 
d="M100 780h240v-240h-160v-160h160v-80h-240v320h160v80h-160v80zM420 780h80v-480h-80v160h-80v80h80v240zM580 780h80v-480h-80v480zM420 220h80v-80h-80v80zM340 140h80v-80h-80v80zM260 60h80v-80h-80v80zM420 60h80v-80h-80v80zM180 -20h80v-80h-80v80zM500 -20h80
v-80h-80v80z" />
    <glyph glyph-name="uniB81D" unicode="&#xb81d;" 
d="M100 780h240v-240h-160v-160h160v-80h-240v320h160v80h-160v80zM420 780h80v-480h-80v160h-80v80h80v240zM580 780h80v-480h-80v480zM260 220h240v-80h-240v80zM180 140h80v-160h-80v160zM500 140h80v-160h-80v160zM260 -20h240v-80h-240v80z" />
    <glyph glyph-name="uniB824" unicode="&#xb824;" 
d="M580 780h80v-880h-80v240h-80v80h80v240h-80v80h80v240zM100 700h320v-320h-240v-160h240v-80h-320v320h240v160h-240v80z" />
    <glyph glyph-name="uniB825" unicode="&#xb825;" 
d="M580 780h80v-480h-80v80h-80v80h80v80h-80v80h80v160zM100 700h320v-240h-240v-80h240v-80h-320v240h240v80h-240v80zM100 220h560v-320h-80v240h-480v80z" />
    <glyph glyph-name="uniB828" unicode="&#xb828;" 
d="M580 780h80v-560h-80v160h-80v80h80v80h-80v80h80v160zM100 700h320v-240h-240v-80h240v-80h-320v240h240v80h-240v80zM100 220h80v-240h480v-80h-560v320z" />
    <glyph glyph-name="uniB82C" unicode="&#xb82c;" 
d="M100 780h320v-240h-240v-80h240v-80h-320v240h240v80h-240v80zM580 780h80v-400h-80v80h-80v80h80v80h-80v80h80v80zM180 300h400v-240h-320v-80h320v-80h-400v240h320v80h-320v80z" />
    <glyph glyph-name="uniB834" unicode="&#xb834;" 
d="M580 780h80v-480h-80v80h-80v80h80v80h-80v80h80v160zM100 700h320v-240h-240v-80h240v-80h-320v240h240v80h-240v80zM100 220h560v-320h-560v320zM180 140v-160h400v160h-400z" />
    <glyph glyph-name="uniB835" unicode="&#xb835;" 
d="M580 780h80v-480h-80v80h-80v80h80v80h-80v80h80v160zM100 700h320v-240h-240v-80h240v-80h-320v240h240v80h-240v80zM100 220h80v-80h400v80h80v-320h-560v320zM180 60v-80h400v80h-400z" />
    <glyph glyph-name="uniB837" unicode="&#xb837;" 
d="M580 780h80v-480h-80v80h-80v80h80v80h-80v80h80v160zM100 700h320v-240h-240v-80h240v-80h-320v240h240v80h-240v80zM420 220h80v-80h-80v80zM340 140h80v-80h-80v80zM260 60h80v-80h-80v80zM420 60h80v-80h-80v80zM180 -20h80v-80h-80v80zM500 -20h80v-80h-80v80z" />
    <glyph glyph-name="uniB838" unicode="&#xb838;" 
d="M580 780h80v-480h-80v80h-80v80h80v80h-80v80h80v160zM100 700h320v-240h-240v-80h240v-80h-320v240h240v80h-240v80zM180 220h80v-160h-80v160zM500 220h80v-160h-80v160zM100 60h80v-160h-80v160zM260 60h80v-160h-80v160zM420 60h80v-160h-80v160zM580 60h80v-160h-80
v160z" />
    <glyph glyph-name="uniB839" unicode="&#xb839;" 
d="M580 780h80v-480h-80v80h-80v80h80v80h-80v80h80v160zM100 700h320v-240h-240v-80h240v-80h-320v240h240v80h-240v80zM260 220h240v-80h-240v80zM180 140h80v-160h-80v160zM500 140h80v-160h-80v160zM260 -20h240v-80h-240v80z" />
    <glyph glyph-name="uniB840" unicode="&#xb840;" 
d="M420 780h80v-880h-80v240h-80v80h80v240h-80v-160h-160v-240h160v-80h-240v400h160v240h-160v80h240v-160h80v240zM580 780h80v-880h-80v880z" />
    <glyph glyph-name="uniB844" unicode="&#xb844;" 
d="M100 780h240v-80h80v80h80v-480h-80v80h-80v80h80v160h-80v-80h-160v-160h160v-80h-240v320h160v80h-160v80zM580 780h80v-480h-80v480zM100 220h80v-240h480v-80h-560v320z" />
    <glyph glyph-name="uniB851" unicode="&#xb851;" 
d="M100 780h240v-80h80v80h80v-480h-80v80h-80v80h80v160h-80v-80h-160v-160h160v-80h-240v320h160v80h-160v80zM580 780h80v-480h-80v480zM100 220h80v-80h400v80h80v-320h-560v320zM180 60v-80h400v80h-400z" />
    <glyph glyph-name="uniB853" unicode="&#xb853;" 
d="M100 780h240v-80h80v80h80v-480h-80v80h-80v80h80v160h-80v-80h-160v-160h160v-80h-240v320h160v80h-160v80zM580 780h80v-480h-80v480zM420 220h80v-80h-80v80zM340 140h80v-80h-80v80zM260 60h80v-80h-80v80zM420 60h80v-80h-80v80zM180 -20h80v-80h-80v80zM500 -20h80
v-80h-80v80z" />
    <glyph glyph-name="uniB85C" unicode="&#xb85c;" 
d="M180 700h400v-240h-320v-80h320v-80h-400v240h320v80h-320v80zM340 220h80v-240h240v-80h-560v80h240v240z" />
    <glyph glyph-name="uniB85D" unicode="&#xb85d;" 
d="M180 780h400v-240h-320v-80h320v-80h-160v-80h240v-80h-560v80h240v80h-160v240h320v80h-320v80zM100 140h560v-240h-80v160h-480v80z" />
    <glyph glyph-name="uniB860" unicode="&#xb860;" 
d="M180 780h400v-240h-320v-80h320v-80h-160v-80h240v-80h-560v80h240v80h-160v240h320v80h-320v80zM100 140h80v-160h480v-80h-560v240z" />
    <glyph glyph-name="uniB864" unicode="&#xb864;" 
d="M180 860h400v-240h-320v-80h320v-80h-160v-80h240v-80h-80v-240h-320v-80h320v-80h-400v240h320v80h-320v80h-80v80h240v80h-160v240h320v80h-320v80z" />
    <glyph glyph-name="uniB86C" unicode="&#xb86c;" 
d="M180 780h400v-240h-320v-80h320v-80h-160v-80h240v-80h-560v80h240v80h-160v240h320v80h-320v80zM100 140h560v-240h-560v240zM180 60v-80h400v80h-400z" />
    <glyph glyph-name="uniB86D" unicode="&#xb86d;" 
d="M180 860h400v-240h-320v-80h320v-80h-160v-80h240v-80h-560v80h240v80h-160v240h320v80h-320v80zM100 220h80v-80h400v80h80v-320h-560v320zM180 60v-80h400v80h-400z" />
    <glyph glyph-name="uniB86F" unicode="&#xb86f;" 
d="M180 780h400v-240h-320v-80h320v-80h-160v-80h240v-80h-560v80h240v80h-160v240h320v80h-320v80zM340 140h80v-80h-80v80zM260 60h80v-80h-80v80zM420 60h80v-80h-80v80zM180 -20h80v-80h-80v80zM500 -20h80v-80h-80v80z" />
    <glyph glyph-name="uniB871" unicode="&#xb871;" 
d="M180 780h400v-240h-320v-80h320v-80h-160v-80h240v-80h-560v80h240v80h-160v240h320v80h-320v80zM260 140h240v-80h-240v80zM180 60h80v-80h-80v80zM500 60h80v-80h-80v80zM260 -20h240v-80h-240v80z" />
    <glyph glyph-name="uniB878" unicode="&#xb878;" 
d="M500 780h80v-400h80v-80h-80v-400h-80v880zM100 700h320v-240h-240v-80h240v-80h-320v240h240v80h-240v80zM260 220h80v-240h80v-80h-320v80h160v240z" />
    <glyph glyph-name="uniB87C" unicode="&#xb87c;" 
d="M100 780h320v-240h-240v-80h240v-80h-80v-80h80v-80h-320v80h160v80h-160v240h240v80h-240v80zM500 780h80v-240h80v-80h-80v-240h-80v560zM100 140h80v-160h480v-80h-560v240z" />
    <glyph glyph-name="uniB88D" unicode="&#xb88d;" 
d="M100 780h320v-240h-240v-80h240v-80h-80v-80h80v-80h-320v80h160v80h-160v240h240v80h-240v80zM500 780h80v-240h80v-80h-80v-240h-80v560zM260 140h240v-80h-240v80zM180 60h80v-80h-80v80zM500 60h80v-80h-80v80zM260 -20h240v-80h-240v80z" />
    <glyph glyph-name="uniB8A8" unicode="&#xb8a8;" 
d="M100 780h240v-240h-160v-80h160v-80h-80v-80h80v-80h-240v80h80v80h-80v240h160v80h-160v80zM420 780h80v-240h80v240h80v-560h-80v240h-80v-240h-80v560zM180 140h80v-80h-80v80zM500 140h80v-80h-80v80zM100 60h80v-160h-80v160zM260 60h80v-160h-80v160zM420 60h80
v-160h-80v160zM580 60h80v-160h-80v160z" />
    <glyph glyph-name="uniB8B0" unicode="&#xb8b0;" 
d="M580 780h80v-880h-80v880zM180 700h240v-240h-160v-80h160v-80h-240v240h160v80h-160v80zM260 220h80v-240h160v-80h-400v80h160v240z" />
    <glyph glyph-name="uniB8B4" unicode="&#xb8b4;" 
d="M180 780h240v-240h-160v-80h160v-80h-80v-80h160v-80h-400v80h160v80h-80v240h160v80h-160v80zM580 780h80v-560h-80v560zM100 140h80v-160h480v-80h-560v240z" />
    <glyph glyph-name="uniB8B8" unicode="&#xb8b8;" 
d="M180 860h240v-240h-160v-80h160v-80h-80v-80h160v-80h80v-240h-320v-80h320v-80h-400v240h320v80h-320v80h-80v80h160v80h-80v240h160v80h-160v80zM580 860h80v-480h-80v480z" />
    <glyph glyph-name="uniB8C0" unicode="&#xb8c0;" 
d="M180 780h240v-240h-160v-80h160v-80h-80v-80h160v-80h-400v80h160v80h-80v240h160v80h-160v80zM580 780h80v-560h-80v560zM100 140h560v-240h-560v240zM180 60v-80h400v80h-400z" />
    <glyph glyph-name="uniB8C1" unicode="&#xb8c1;" 
d="M180 860h240v-240h-160v-80h160v-80h-80v-80h160v-80h-400v80h160v80h-80v240h160v80h-160v80zM580 860h80v-560h-80v560zM100 220h80v-80h400v80h80v-320h-560v320zM180 60v-80h400v80h-400z" />
    <glyph glyph-name="uniB8C3" unicode="&#xb8c3;" 
d="M180 780h240v-240h-160v-80h160v-80h-80v-80h160v-80h-400v80h160v80h-80v240h160v80h-160v80zM580 780h80v-560h-80v560zM340 140h80v-80h-80v80zM260 60h80v-80h-80v80zM420 60h80v-80h-80v80zM180 -20h80v-80h-80v80zM500 -20h80v-80h-80v80z" />
    <glyph glyph-name="uniB8C5" unicode="&#xb8c5;" 
d="M180 780h240v-240h-160v-80h160v-80h-80v-80h160v-80h-400v80h160v80h-80v240h160v80h-160v80zM580 780h80v-560h-80v560zM260 140h240v-80h-240v80zM180 60h80v-80h-80v80zM500 60h80v-80h-80v80zM260 -20h240v-80h-240v80z" />
    <glyph glyph-name="uniB8CC" unicode="&#xb8cc;" 
d="M180 700h400v-240h-320v-80h320v-80h-400v240h320v80h-320v80zM260 220h80v-240h80v240h80v-240h160v-80h-560v80h160v240z" />
    <glyph glyph-name="uniB8D0" unicode="&#xb8d0;" 
d="M180 780h400v-240h-320v-80h320v-80h-80v-80h160v-80h-560v80h160v80h-80v240h320v80h-320v80zM340 380v-80h80v80h-80zM100 140h80v-160h480v-80h-560v240z" />
    <glyph glyph-name="uniB8D4" unicode="&#xb8d4;" 
d="M180 860h400v-240h-320v-80h320v-80h-80v-80h160v-80h-80v-240h-320v-80h320v-80h-400v240h320v80h-320v80h-80v80h160v80h-80v240h320v80h-320v80zM340 460v-80h80v80h-80z" />
    <glyph glyph-name="uniB8DD" unicode="&#xb8dd;" 
d="M180 860h400v-240h-320v-80h320v-80h-80v-80h160v-80h-560v80h160v80h-80v240h320v80h-320v80zM340 460v-80h80v80h-80zM100 220h80v-80h400v80h80v-320h-560v320zM180 60v-80h400v80h-400z" />
    <glyph glyph-name="uniB8DF" unicode="&#xb8df;" 
d="M180 780h400v-240h-320v-80h320v-80h-80v-80h160v-80h-560v80h160v80h-80v240h320v80h-320v80zM340 380v-80h80v80h-80zM340 140h80v-80h-80v80zM260 60h80v-80h-80v80zM420 60h80v-80h-80v80zM180 -20h80v-80h-80v80zM500 -20h80v-80h-80v80z" />
    <glyph glyph-name="uniB8E1" unicode="&#xb8e1;" 
d="M180 780h400v-240h-320v-80h320v-80h-80v-80h160v-80h-560v80h160v80h-80v240h320v80h-320v80zM340 380v-80h80v80h-80zM260 140h240v-80h-240v80zM180 60h80v-80h-80v80zM500 60h80v-80h-80v80zM260 -20h240v-80h-240v80z" />
    <glyph glyph-name="uniB8E8" unicode="&#xb8e8;" 
d="M180 700h400v-240h-320v-80h320v-80h-400v240h320v80h-320v80zM100 220h560v-80h-240v-240h-80v240h-240v80z" />
    <glyph glyph-name="uniB8E9" unicode="&#xb8e9;" 
d="M180 780h400v-240h-320v-80h320v-80h-400v240h320v80h-320v80zM100 300h560v-80h-240v-80h240v-240h-80v160h-480v80h240v80h-240v80z" />
    <glyph glyph-name="uniB8EC" unicode="&#xb8ec;" 
d="M180 780h400v-240h-320v-80h320v-80h-400v240h320v80h-320v80zM100 300h560v-80h-240v-80h-80v80h-240v80zM100 140h80v-160h480v-80h-560v240z" />
    <glyph glyph-name="uniB8F0" unicode="&#xb8f0;" 
d="M180 860h400v-240h-320v-80h320v-80h80v-80h-240v-80h160v-240h-320v-80h320v-80h-400v240h320v80h-320v80h160v80h-240v80h80v240h320v80h-320v80z" />
    <glyph glyph-name="uniB8F8" unicode="&#xb8f8;" 
d="M180 780h400v-240h-320v-80h320v-80h-400v240h320v80h-320v80zM100 300h560v-80h-240v-80h240v-240h-560v240h240v80h-240v80zM180 60v-80h400v80h-400z" />
    <glyph glyph-name="uniB8F9" unicode="&#xb8f9;" 
d="M180 780h400v-240h-320v-80h320v-80h80v-80h-240v-80h-80v80h-240v80h80v240h320v80h-320v80zM100 220h80v-80h400v80h80v-320h-560v320zM180 60v-80h400v80h-400z" />
    <glyph glyph-name="uniB8FB" unicode="&#xb8fb;" 
d="M180 780h400v-240h-320v-80h320v-80h80v-80h-240v-80h-80v80h-240v80h80v240h320v80h-320v80zM340 140h80v-80h-80v80zM260 60h80v-80h-80v80zM420 60h80v-80h-80v80zM180 -20h80v-80h-80v80zM500 -20h80v-80h-80v80z" />
    <glyph glyph-name="uniB8FD" unicode="&#xb8fd;" 
d="M180 780h400v-240h-320v-80h320v-80h-400v240h320v80h-320v80zM100 300h560v-80h-240v-80h80v-80h-240v80h80v80h-240v80zM180 60h80v-80h-80v80zM500 60h80v-80h-80v80zM260 -20h240v-80h-240v80z" />
    <glyph glyph-name="uniB904" unicode="&#xb904;" 
d="M580 780h80v-880h-80v400h-80v80h80v400zM180 700h240v-240h-160v-80h160v-80h-240v240h160v80h-160v80zM100 220h400v-80h-160v-240h-80v240h-160v80z" />
    <glyph glyph-name="uniB918" unicode="&#xb918;" 
d="M180 780h240v-240h-160v-80h160v-80h80v-80h-160v-80h-80v80h-160v80h80v240h160v80h-160v80zM580 780h80v-560h-80v240h-80v80h80v240zM180 140h80v-80h-80v80zM500 140h80v-80h-80v80zM100 60h80v-160h-80v160zM260 60h80v-160h-80v160zM420 60h80v-160h-80v160z
M580 60h80v-160h-80v160z" />
    <glyph glyph-name="uniB920" unicode="&#xb920;" 
d="M420 780h80v-880h-80v320h-80v80h80v480zM580 780h80v-880h-80v880zM100 700h240v-240h-160v-80h160v-80h-240v240h160v80h-160v80zM100 220h240v-80h-80v-240h-80v240h-80v80z" />
    <glyph glyph-name="uniB93C" unicode="&#xb93c;" 
d="M580 780h80v-880h-80v880zM180 700h240v-240h-160v-80h160v-80h-240v240h160v80h-160v80zM100 220h400v-80h-160v-240h-80v240h-160v80z" />
    <glyph glyph-name="uniB93D" unicode="&#xb93d;" 
d="M180 780h240v-240h-160v-80h160v-80h-240v240h160v80h-160v80zM580 780h80v-560h-80v560zM100 300h400v-80h-160v-80h320v-240h-80v160h-480v80h160v80h-160v80z" />
    <glyph glyph-name="uniB940" unicode="&#xb940;" 
d="M180 780h240v-240h-160v-80h160v-80h-240v240h160v80h-160v80zM580 780h80v-640h-80v640zM100 300h400v-80h-160v-80h-80v80h-160v80zM100 140h80v-160h480v-80h-560v240z" />
    <glyph glyph-name="uniB944" unicode="&#xb944;" 
d="M180 860h240v-240h-160v-80h160v-80h80v-80h-160v-80h240v-240h-320v-80h320v-80h-400v240h320v80h-320v80h80v80h-160v80h80v240h160v80h-160v80zM580 860h80v-560h-80v560z" />
    <glyph glyph-name="uniB94C" unicode="&#xb94c;" 
d="M180 780h240v-240h-160v-80h160v-80h-240v240h160v80h-160v80zM580 780h80v-560h-80v560zM100 300h400v-80h-160v-80h320v-240h-560v240h160v80h-160v80zM180 60v-80h400v80h-400z" />
    <glyph glyph-name="uniB94F" unicode="&#xb94f;" 
d="M180 780h240v-240h-160v-80h160v-80h80v-80h-160v-80h-80v80h-160v80h80v240h160v80h-160v80zM580 780h80v-560h-80v560zM340 140h80v-80h-80v80zM260 60h80v-80h-80v80zM420 60h80v-80h-80v80zM180 -20h80v-80h-80v80zM500 -20h80v-80h-80v80z" />
    <glyph glyph-name="uniB951" unicode="&#xb951;" 
d="M180 780h240v-240h-160v-80h160v-80h-240v240h160v80h-160v80zM580 780h80v-640h-80v640zM100 300h400v-80h-160v-80h160v-80h-240v160h-160v80zM180 60h80v-80h-80v80zM500 60h80v-80h-80v80zM260 -20h240v-80h-240v80z" />
    <glyph glyph-name="uniB958" unicode="&#xb958;" 
d="M180 700h400v-240h-320v-80h320v-80h-400v240h320v80h-320v80zM100 220h560v-80h-160v-240h-80v240h-80v-240h-80v240h-160v80z" />
    <glyph glyph-name="uniB959" unicode="&#xb959;" 
d="M180 780h400v-240h-320v-80h320v-80h-400v240h320v80h-320v80zM100 300h560v-80h-160v-80h160v-240h-80v160h-480v80h160v80h-160v80zM340 220v-80h80v80h-80z" />
    <glyph glyph-name="uniB95C" unicode="&#xb95c;" 
d="M180 780h400v-240h-320v-80h320v-80h-400v240h320v80h-320v80zM100 300h560v-80h-160v-80h-80v80h-80v-80h-80v80h-160v80zM100 140h80v-160h480v-80h-560v240z" />
    <glyph glyph-name="uniB960" unicode="&#xb960;" 
d="M180 860h400v-240h-320v-80h320v-80h80v-80h-160v-80h80v-240h-320v-80h320v-80h-400v240h320v80h-320v80h80v80h-160v80h80v240h320v80h-320v80zM340 380v-80h80v80h-80z" />
    <glyph glyph-name="uniB968" unicode="&#xb968;" 
d="M180 780h400v-240h-320v-80h320v-80h-400v240h320v80h-320v80zM100 300h560v-80h-160v-80h160v-240h-560v240h160v80h-160v80zM340 220v-80h80v80h-80zM180 60v-80h400v80h-400z" />
    <glyph glyph-name="uniB969" unicode="&#xb969;" 
d="M180 780h400v-240h-320v-80h320v-80h80v-80h-160v-80h-80v80h-80v-80h-80v80h-160v80h80v240h320v80h-320v80zM100 220h80v-80h400v80h80v-320h-560v320zM180 60v-80h400v80h-400z" />
    <glyph glyph-name="uniB96B" unicode="&#xb96b;" 
d="M180 780h400v-240h-320v-80h320v-80h80v-80h-160v-80h-80v80h-80v-80h-80v80h-160v80h80v240h320v80h-320v80zM340 140h80v-80h-80v80zM260 60h80v-80h-80v80zM420 60h80v-80h-80v80zM180 -20h80v-80h-80v80zM500 -20h80v-80h-80v80z" />
    <glyph glyph-name="uniB96D" unicode="&#xb96d;" 
d="M180 780h400v-240h-320v-80h320v-80h-400v240h320v80h-320v80zM100 300h560v-80h-160v-160h-240v160h-160v80zM340 220v-80h80v80h-80zM180 60h80v-80h-80v80zM500 60h80v-80h-80v80zM260 -20h240v-80h-240v80z" />
    <glyph glyph-name="uniB974" unicode="&#xb974;" 
d="M180 620h400v-240h-320v-80h320v-80h-400v240h320v80h-320v80zM100 -20h560v-80h-560v80z" />
    <glyph glyph-name="uniB975" unicode="&#xb975;" 
d="M180 780h400v-240h-320v-80h320v-80h-400v240h320v80h-320v80zM100 300h560v-80h-560v80zM100 140h560v-240h-80v160h-480v80z" />
    <glyph glyph-name="uniB978" unicode="&#xb978;" 
d="M180 780h400v-240h-320v-80h320v-80h-400v240h320v80h-320v80zM100 300h560v-80h-560v80zM100 140h80v-160h480v-80h-560v240z" />
    <glyph glyph-name="uniB97C" unicode="&#xb97c;" 
d="M180 860h400v-240h-320v-80h320v-80h80v-80h-560v80h80v240h320v80h-320v80zM180 300h400v-240h-320v-80h320v-80h-400v240h320v80h-320v80z" />
    <glyph glyph-name="uniB984" unicode="&#xb984;" 
d="M180 780h400v-240h-320v-80h320v-80h-400v240h320v80h-320v80zM100 300h560v-80h-560v80zM100 140h560v-240h-560v240zM180 60v-80h400v80h-400z" />
    <glyph glyph-name="uniB985" unicode="&#xb985;" 
d="M180 780h400v-240h-320v-80h320v-80h80v-80h-560v80h80v240h320v80h-320v80zM100 220h80v-80h400v80h80v-320h-560v320zM180 60v-80h400v80h-400z" />
    <glyph glyph-name="uniB987" unicode="&#xb987;" 
d="M180 780h400v-240h-320v-80h320v-80h-400v240h320v80h-320v80zM100 300h560v-80h-560v80zM340 140h80v-80h-80v80zM260 60h80v-80h-80v80zM420 60h80v-80h-80v80zM180 -20h80v-80h-80v80zM500 -20h80v-80h-80v80z" />
    <glyph glyph-name="uniB989" unicode="&#xb989;" 
d="M180 780h400v-240h-320v-80h320v-80h-400v240h320v80h-320v80zM100 300h560v-80h-560v80zM260 140h240v-80h-240v80zM180 60h80v-80h-80v80zM500 60h80v-80h-80v80zM260 -20h240v-80h-240v80z" />
    <glyph glyph-name="uniB98A" unicode="&#xb98a;" 
d="M180 780h400v-240h-320v-80h320v-80h-400v240h320v80h-320v80zM100 300h560v-80h-560v80zM100 140h560v-80h-160v-80h-80v80h-80v-80h-80v80h-160v80zM180 -20h80v-80h-80v80zM500 -20h80v-80h-80v80z" />
    <glyph glyph-name="uniB98D" unicode="&#xb98d;" 
d="M180 860h400v-240h-320v-80h320v-80h80v-80h-560v80h80v240h320v80h-320v80zM180 300h400v-80h-320v-80h320v-80h-320v-80h320v-80h-400v400z" />
    <glyph glyph-name="uniB98E" unicode="&#xb98e;" 
d="M180 780h400v-240h-320v-80h320v-80h80v-80h-560v80h80v240h320v80h-320v80zM100 220h560v-80h-80v-160h80v-80h-560v80h80v160h-80v80zM260 140v-160h240v160h-240z" />
    <glyph glyph-name="uniB9AC" unicode="&#xb9ac;" 
d="M580 780h80v-880h-80v880zM100 700h320v-320h-240v-160h240v-80h-320v320h240v160h-240v80z" />
    <glyph glyph-name="uniB9AD" unicode="&#xb9ad;" 
d="M580 780h80v-480h-80v480zM100 700h320v-240h-240v-80h240v-80h-320v240h240v80h-240v80zM100 220h560v-320h-80v240h-480v80z" />
    <glyph glyph-name="uniB9B0" unicode="&#xb9b0;" 
d="M580 780h80v-560h-80v560zM100 700h320v-240h-240v-80h240v-80h-320v240h240v80h-240v80zM100 220h80v-240h480v-80h-560v320z" />
    <glyph glyph-name="uniB9B4" unicode="&#xb9b4;" 
d="M100 780h320v-240h-240v-80h240v-80h-320v240h240v80h-240v80zM580 780h80v-400h-80v400zM180 300h400v-240h-320v-80h320v-80h-400v240h320v80h-320v80z" />
    <glyph glyph-name="uniB9BC" unicode="&#xb9bc;" 
d="M580 780h80v-480h-80v480zM100 700h320v-240h-240v-80h240v-80h-320v240h240v80h-240v80zM100 220h560v-320h-560v320zM180 140v-160h400v160h-400z" />
    <glyph glyph-name="uniB9BD" unicode="&#xb9bd;" 
d="M580 780h80v-480h-80v480zM100 700h320v-240h-240v-80h240v-80h-320v240h240v80h-240v80zM100 220h80v-80h400v80h80v-320h-560v320zM180 60v-80h400v80h-400z" />
    <glyph glyph-name="uniB9BF" unicode="&#xb9bf;" 
d="M580 780h80v-560h-80v560zM100 700h320v-240h-240v-80h240v-80h-320v240h240v80h-240v80zM420 220h80v-80h-80v80zM340 140h80v-80h-80v80zM260 60h80v-80h-80v80zM420 60h80v-80h-80v80zM180 -20h80v-80h-80v80zM500 -20h80v-80h-80v80z" />
    <glyph glyph-name="uniB9C1" unicode="&#xb9c1;" 
d="M580 780h80v-560h-80v560zM100 700h320v-240h-240v-80h240v-80h-320v240h240v80h-240v80zM260 220h240v-80h-240v80zM180 140h80v-160h-80v160zM500 140h80v-160h-80v160zM260 -20h240v-80h-240v80z" />
    <glyph glyph-name="uniB9C8" unicode="&#xb9c8;" 
d="M500 780h80v-400h80v-80h-80v-400h-80v880zM100 700h320v-640h-320v640zM180 620v-480h160v480h-160z" />
    <glyph glyph-name="uniB9C9" unicode="&#xb9c9;" 
d="M500 780h80v-240h80v-80h-80v-160h-80v480zM100 700h320v-400h-320v400zM180 620v-240h160v240h-160zM100 220h560v-320h-80v240h-480v80z" />
    <glyph glyph-name="uniB9CC" unicode="&#xb9cc;" 
d="M500 780h80v-240h80v-80h-80v-240h-80v560zM100 700h320v-400h-320v400zM180 620v-240h160v240h-160zM100 220h80v-240h480v-80h-560v320z" />
    <glyph glyph-name="uniB9CE" unicode="&#xb9ce;" 
d="M500 780h80v-160h80v-80h-80v-160h-80v400zM100 700h320v-320h-320v320zM180 620v-160h160v160h-160zM100 300h80v-320h160v-80h-240v400zM420 300h160v-80h80v-80h-80v-80h-160v80h-80v80h80v80zM340 60h80v-80h-80v80zM580 60h80v-80h-80v80zM420 -20h160v-80h-160v80z
" />
    <glyph glyph-name="uniB9CF" unicode="&#xb9cf;" 
d="M500 780h80v-240h80v-80h-80v-160h-80v480zM100 700h320v-400h-320v400zM180 620v-240h160v240h-160zM100 220h560v-80h-400v-160h400v-80h-480v240h-80v80z" />
    <glyph glyph-name="uniB9D0" unicode="&#xb9d0;" 
d="M500 780h80v-160h80v-80h-80v-160h-80v400zM100 700h320v-320h-320v320zM180 620v-160h160v160h-160zM180 300h400v-240h-320v-80h320v-80h-400v240h320v80h-320v80z" />
    <glyph glyph-name="uniB9D1" unicode="&#xb9d1;" 
d="M500 780h80v-160h80v-80h-80v-160h-80v400zM100 700h320v-320h-320v320zM180 620v-160h160v160h-160zM100 300h240v-240h-160v-80h160v-80h-240v240h160v80h-160v80zM420 300h240v-400h-80v320h-160v80z" />
    <glyph glyph-name="uniB9D2" unicode="&#xb9d2;" 
d="M500 780h80v-160h80v-80h-80v-160h-80v400zM100 700h320v-320h-320v320zM180 620v-160h160v160h-160zM100 300h240v-240h-160v-80h160v-80h-240v240h160v80h-160v80zM420 300h240v-400h-240v400zM500 220v-240h80v240h-80z" />
    <glyph glyph-name="uniB9D8" unicode="&#xb9d8;" 
d="M500 780h80v-240h80v-80h-80v-160h-80v480zM100 700h320v-400h-320v400zM180 620v-240h160v240h-160zM100 220h560v-320h-560v320zM180 140v-160h400v160h-400z" />
    <glyph glyph-name="uniB9D9" unicode="&#xb9d9;" 
d="M500 780h80v-240h80v-80h-80v-160h-80v480zM100 700h320v-400h-320v400zM180 620v-240h160v240h-160zM100 220h80v-80h400v80h80v-320h-560v320zM180 60v-80h400v80h-400z" />
    </font>
</defs>
</svg>
